<?xml version="1.0" encoding="UTF-8" standalone="no"?>
<svg
   xmlns:dc="http://purl.org/dc/elements/1.1/"
   xmlns:cc="http://creativecommons.org/ns#"
   xmlns:rdf="http://www.w3.org/1999/02/22-rdf-syntax-ns#"
   xmlns:svg="http://www.w3.org/2000/svg"
   xmlns="http://www.w3.org/2000/svg"
   id="svg8"
   version="1.1"
   viewBox="0 0 126.43557 126.43556"
   height="512pt"
   width="512pt">
  <defs
     id="defs2" />
  <metadata
     id="metadata5">
    <rdf:RDF>
      <cc:Work
         rdf:about="">
        <dc:format>image/svg+xml</dc:format>
        <dc:type
           rdf:resource="http://purl.org/dc/dcmitype/StillImage" />
        <dc:title></dc:title>
      </cc:Work>
    </rdf:RDF>
  </metadata>
  <g
     transform="translate(81.104339,-34.477827)"
     id="layer1">
    <path
       id="path852"
       d="m -61.554829,153.64525 c -4.48828,-1.7762 -9.37091,-6.29146 -11.49255,-10.62795 -5.27413,-10.77996 -0.33232,-25.288 10.16127,-29.83147 2.86038,-1.23848 4.85675,-1.51447 12.862426,-1.77818 l 9.476509,-0.31221 V 97.69076 84.286074 l -6.26413,-0.004 c -7.647715,-0.004 -12.931955,-0.817728 -16.482465,-2.536488 -3.5608,-1.723774 -7.83099,-6.024768 -9.91648,-9.988063 -1.47845,-2.809696 -1.69151,-3.977412 -1.69985,-9.315891 -0.007,-5.048477 0.24074,-6.611645 1.43913,-9.043198 2.22685,-4.518869 5.44512,-7.857271 9.90647,-10.276124 3.77275,-2.045523 4.47909,-2.203607 9.84658,-2.203607 5.078514,0 6.212365,0.220625 9.315896,1.811377 9.252229,4.742729 12.827619,11.795894 12.84188,25.333236 l 0.007,7.227832 h 13.40469 13.4046795 l 0.34308,-9.476494 c 0.198769,-5.496076 0.707879,-10.469179 1.211599,-11.839818 2.99849902,-8.158582 10.989378,-13.422871 20.4203285,-13.452665 8.372061,-0.02777 15.824921,4.628838 19.663301,12.282348 5.305968,10.579729 0.3565,25.025131 -10.13012,29.565584 -2.86039,1.238481 -4.856761,1.51446 -12.862431,1.778145 L 4.4254935,84.46045 v 13.317365 13.317405 l 9.4764915,0.34273 c 5.21207,0.18837 10.48843,0.70735 11.72517,1.1529 8.31719,2.99656 13.777529,11.27129 13.777529,20.87878 0,11.00835 -9.017488,20.50858 -20.250418,21.33446 -7.144581,0.52531 -14.0363705,-2.15351 -18.43817148,-7.16692 -4.03681002,-4.59766 -4.29111002,-5.54772 -4.53224002,-16.93249 l -0.220971,-10.44023 h -13.6893175 -13.68928 l -0.230331,9.79776 c -0.215769,9.17908 -0.34343,10.02824 -2.021829,13.44804 -3.45999,7.04985 -10.034,10.9271 -19.086845,11.25719 -4.33672,0.15817 -6.14862,-0.0728 -8.80065,-1.12249 z m 12.726225,-6.7427 c 1.541179,-0.54379 3.62715,-1.77252 4.63547,-2.73055 3.32438,-3.15859 3.64596,-4.44279 3.64596,-14.55945 v -9.3478 h -9.347769 c -10.116676,0 -11.400866,0.32156 -14.559466,3.64598 -0.95803,1.00832 -2.18676,3.09425 -2.73055,4.63547 -4.27528,12.11747 6.23888,22.63163 18.356355,18.35635 z m 73.80805,-1.15104 c 1.644269,-0.83437 3.70406,-2.62916 4.788969,-4.17277 4.262411,-6.0647 2.340311,-16.13193 -3.762889,-19.70864 -2.584421,-1.51461 -3.27179,-1.60535 -12.159341,-1.60535 H 4.4261255 v 9.35814 c 0,5.6718 0.284798,9.91091 0.722759,10.76145 3.486851,6.77022 12.3425905,9.16702 19.8305615,5.36717 z M -4.5685455,97.778106 V 84.286143 H -18.060504 -31.552515 v 13.491963 13.492004 h 13.492011 13.4919585 z M 25.794096,74.107185 c 7.2288,-4.482349 8.2811,-16.101124 2.02492,-22.357343 -5.188351,-5.188307 -13.824322,-5.52091 -19.2671825,-0.742009 -3.814899,3.349536 -4.125708,4.504242 -4.125708,15.327108 v 9.739062 l 9.4765095,-0.234498 c 8.57645,-0.212306 9.70586,-0.376943 11.891461,-1.732146 z m -65.79576,-7.656248 c -0.2272,-8.271113 -0.357079,-9.035596 -2.01742,-11.868709 -4.595781,-7.842157 -15.576035,-9.177313 -22.069705,-2.683645 -6.79567,6.795642 -4.85259,17.817833 3.94612,22.384589 1.48158,0.768985 4.06199,1.001299 11.155606,1.004359 l 9.228209,0.004 z"
       style="fill:#ffffff;stroke-width:0.64247543" />
  </g>
</svg>
