<?xml version="1.0" encoding="UTF-8" standalone="no"?>
<svg
   xmlns:dc="http://purl.org/dc/elements/1.1/"
   xmlns:cc="http://creativecommons.org/ns#"
   xmlns:rdf="http://www.w3.org/1999/02/22-rdf-syntax-ns#"
   xmlns:svg="http://www.w3.org/2000/svg"
   xmlns="http://www.w3.org/2000/svg"
   width="512pt"
   height="512pt"
   viewBox="0 0 126.43557 126.43556"
   version="1.1"
   id="svg8">
  <defs
     id="defs2" />
  <metadata
     id="metadata5">
    <rdf:RDF>
      <cc:Work
         rdf:about="">
        <dc:format>image/svg+xml</dc:format>
        <dc:type
           rdf:resource="http://purl.org/dc/dcmitype/StillImage" />
        <dc:title></dc:title>
      </cc:Work>
    </rdf:RDF>
  </metadata>
  <path
     id="path872"
     d="m 45.690297,120.29289 c -3.24243,-0.22511 -6.41027,-1.97062 -9.73348,-5.36323 -2.11861,-2.16286 -4.10675,-4.70971 -7.25698,-9.2964 -0.8317,-1.21093 -1.93528,-3.00385 -2.74734,-4.46338 -4.91416,-8.832467 -8.11296,-19.183177 -8.86935,-28.699557 -0.17777,-2.23668 -0.22817,-5.26716 -0.11876,-7.14141 0.38727,-6.634156 1.91939,-12.175789 4.71582,-17.057027 5.02385,-8.769201 14.14582,-14.253966 23.71997,-14.26208 2.24296,-0.0019 4.28938,0.364636 7.05214,1.263119 1.08692,0.353473 2.14196,0.745872 4.30717,1.60193 3.46999,1.371937 4.55408,1.731905 6.00324,1.993333 0.58516,0.105565 1.74936,0.10514 2.31686,-9.64e-4 1.29863,-0.242535 2.52508,-0.652152 5.69491,-1.902033 3.66457,-1.444952 5.78197,-2.163809 7.74397,-2.629062 2.91833,-0.692034 4.95028,-0.81634 8.41348,-0.514704 3.9639,0.345243 7.94199,1.578655 11.29138,3.500898 3.108433,1.783951 5.720323,4.13004 7.841623,7.043596 l 0.47606,0.653868 -0.39204,0.251813 c -0.83707,0.537668 -1.94297,1.374495 -2.90336,2.196935 -0.72853,0.623887 -2.46443,2.38819 -3.09709,3.14777 -3.095473,3.716465 -4.966103,7.793903 -5.623513,12.257628 -0.20558,1.3959 -0.22852,1.77569 -0.22779,3.77156 7.3e-4,2.03363 0.0356,2.55902 0.27238,4.10631 0.95607,6.24751 4.05626,11.56787 9.091393,15.6021 1.62347,1.30075 3.66451,2.57374 5.30378,3.30797 l 0.56396,0.2526 -0.36921,1.09731 c -1.43094,4.25283 -3.40777,8.50231 -5.79472,12.456617 -1.5835,2.62327 -4.509003,6.79647 -6.321073,9.01693 -3.48155,4.2662 -6.71743,6.59088 -10.27258,7.37989 -0.91656,0.20341 -1.40361,0.25818 -2.52037,0.2834 -1.13951,0.0257 -1.85128,-0.0161 -2.84649,-0.16721 -1.73207,-0.26304 -2.96275,-0.66404 -5.92092,-1.92929 -2.5387,-1.08584 -3.59819,-1.47072 -4.99899,-1.81601 -1.6321,-0.40231 -2.72945,-0.53885 -4.58409,-0.57037 -2.35449,-0.04 -3.97942,0.13891 -5.98759,0.65935 -1.39179,0.36069 -2.54702,0.78122 -4.96639,1.80787 -3.13479,1.33023 -4.64872,1.80164 -6.57798,2.04823 -0.52583,0.0672 -1.856,0.16467 -2.07548,0.15207 -0.0614,-0.004 -0.33252,-0.0217 -0.60255,-0.0405 z m 17.78086,-87.866985 -0.38511,-0.01774 -0.0258,-0.165721 c -0.0819,-0.526429 -0.12851,-1.646765 -0.10442,-2.508992 0.0426,-1.522849 0.21605,-2.761478 0.60957,-4.351797 0.9026,-3.647645 2.81194,-7.352748 5.38224,-10.444313 0.61943,-0.745048 2.10759,-2.233292 2.85342,-2.85358 3.74804,-3.1171509 8.34907,-5.2656329 12.51979,-5.8461929 0.5212,-0.07255 1.48127,-0.156412 1.51215,-0.132086 0.0371,0.02923 0.0911,0.756222 0.12047,1.623497 0.19171,5.6538709 -2.10474,11.8826739 -6.18825,16.7847839 -0.56239,0.675131 -1.97441,2.09716 -2.67505,2.694029 -3.45797,2.945795 -7.54122,4.795769 -11.38162,5.156617 -0.57475,0.054 -1.71807,0.08543 -2.23741,0.0615 z"
     style="fill:rgb(128,0,128);stroke-width:0.04463382;fill-opacity:1" />
</svg>
