<?xml version="1.0" encoding="UTF-8" standalone="no"?>
<svg
   xmlns:dc="http://purl.org/dc/elements/1.1/"
   xmlns:cc="http://creativecommons.org/ns#"
   xmlns:rdf="http://www.w3.org/1999/02/22-rdf-syntax-ns#"
   xmlns:svg="http://www.w3.org/2000/svg"
   xmlns="http://www.w3.org/2000/svg"
   id="svg906"
   version="1.1"
   viewBox="0 0 178.53467 113.96182"
   height="113.96182mm"
   width="178.53467mm">
  <defs
     id="defs900" />
  <metadata
     id="metadata903">
    <rdf:RDF>
      <cc:Work
         rdf:about="">
        <dc:format>image/svg+xml</dc:format>
        <dc:type
           rdf:resource="http://purl.org/dc/dcmitype/StillImage" />
        <dc:title></dc:title>
      </cc:Work>
    </rdf:RDF>
  </metadata>
  <g
     transform="translate(40.886384,-182.56671)"
     id="layer1">
    <g
       id="g880"
       transform="matrix(0.26458333,0,0,0.26458333,-278.10358,75.380966)">
      <ellipse
         style="opacity:1;fill:#ffffff;fill-opacity:1;fill-rule:evenodd;stroke:none;stroke-width:2.51550627;stroke-linecap:round;stroke-linejoin:round;stroke-miterlimit:4;stroke-dasharray:none;stroke-dashoffset:0;stroke-opacity:1;paint-order:stroke fill markers"
         id="path869"
         cx="1226.9501"
         cy="563.47626"
         rx="175.95274"
         ry="140.77332" />
      <g
         id="g851"
         transform="translate(896.39171,-39.969809)">
        <path
           style="fill:#f3cfa0"
           d="m 299,875.33518 c -43.47026,-2.33045 -65.36888,-4.157 -112.5,-9.38356 C 104.42911,856.85045 77.364737,851.07004 46.5,836.05041 29.26559,827.66367 11.071398,813.66956 4.6395884,803.85338 -1.4317213,794.58739 -1.280848,774.82064 4.9277365,766.10148 8.5675291,760.98987 18.907232,752.14248 26.275342,747.83496 40.231278,739.67607 67.789678,729.57871 95.5,722.47114 l 17,-4.36043 -0.10725,-2.80535 c -0.059,-1.54295 -0.686,-13.83036 -1.39337,-27.30536 -1.982,-37.75614 -0.16977,-70.2971 5.37241,-96.46884 0.81166,-3.83287 1.30698,-7.24191 1.10071,-7.57565 -0.20626,-0.33374 -3.41571,-2.14776 -7.1321,-4.03116 -32.281704,-16.35971 -35.63551,-55.78267 -6.87656,-80.83178 7.51084,-6.54196 16.47739,-10.85029 26.82416,-12.88871 7.32042,-1.4422 8.91271,-1.44643 17.14724,-0.0456 5.62157,0.95635 11.49355,2.74302 15.42373,4.69298 3.49045,1.7318 6.6376,3.14792 6.99365,3.14693 0.35606,-9.8e-4 4.21451,-2.67431 8.57434,-5.94072 9.3735,-7.0227 23.13031,-14.80167 35.88359,-20.29087 5.0542,-2.1754 9.32024,-4.08111 9.48009,-4.23491 0.15984,-0.15381 -0.64674,-1.86837 -1.79241,-3.81014 C 217.11702,451.44853 217.20098,446 222.20968,446 c 2.97707,0 18.25624,5.94497 22.26283,8.66224 2.5273,1.71402 5.3788,1.68767 12.38315,-0.11445 8.63141,-2.22074 26.8749,-5.26106 45.08703,-7.51386 26.43992,-3.27057 61.67032,-2.39445 94.1434,2.34118 8.12744,1.18525 8.95245,1.12855 15.44478,-1.06149 3.77229,-1.27249 7.81761,-2.31362 8.9896,-2.31362 2.57944,0 6.29954,3.73837 6.76678,6.8 0.46215,3.02827 1.34185,3.67811 7.71275,5.69747 14.94783,4.73796 33.33473,14.05157 44.65293,22.61828 3.54914,2.68634 6.89199,4.88425 7.42854,4.88425 0.53656,0 3.57376,-1.31156 6.74933,-2.91459 9.04801,-4.56742 16.69143,-6.44733 26.1692,-6.43635 24.22521,0.0281 45.34479,17.83747 51.62085,43.53005 2.35048,9.62223 1.65577,11.3824 -4.85711,12.30624 L 561.5,533.232 l 5,1.6486 c 4.90631,1.61771 4.99575,1.71969 4.77311,5.4426 -0.61419,10.27059 -11.58032,24.18605 -24.77311,31.43584 -4.07218,2.23778 -6.93155,4.45197 -6.83633,5.29383 0.09,0.79592 1.51028,7.97213 3.15614,15.94713 5.47807,26.54385 8.31069,54.32012 9.75927,95.69813 l 0.6721,19.19813 2.62441,0.49834 c 1.44342,0.27409 4.64941,0.77418 7.12441,1.11131 18.91126,2.576 45.04539,10.00791 63.08707,17.94044 21.26083,9.34792 36.60836,22.31154 44.40231,37.50539 4.29256,8.36809 5.6818,24.44868 3.00209,34.74947 -6.33109,24.33668 -45.01548,45.43626 -105.93102,57.77784 C 528.3231,865.4286 468.52006,872.29543 415,874.99668 c -17.24523,0.87039 -101.49272,1.11624 -116,0.3385 z m 50.49724,-179.03525 c 2.17577,-1.03756 3.84522,-2.69378 4.28392,-4.25 0.77996,-2.76676 0.59508,-24.22253 -0.23837,-27.66232 -0.39106,-1.61401 -2.39471,-2.73469 -8.4924,-4.75 C 340.66107,658.18692 336.43535,657 335.65991,657 333.62678,657 333,661.52914 333,676.22071 c 0,14.13646 0.8262,16.96354 5.8728,20.09558 3.3827,2.09937 6.19678,2.09504 10.62444,-0.0164 z m -28.59675,-3.07571 3.32494,-2.77579 0.42731,-16.22421 C 324.88776,665.3009 324.78558,658 324.42568,658 c -1.64252,0 -21.07779,6.44281 -22.30862,7.39532 -1.0716,0.82929 -1.25577,3.03318 -0.81805,9.7894 0.64388,9.93846 3.46563,17.80612 6.39476,17.83002 0.99343,0.008 2.93123,0.63899 4.30623,1.40195 3.72596,2.06748 5.2383,1.86486 8.90049,-1.19247 z M 241.5,582.98306 c 20.56923,-2.38721 58.52359,-8.57867 59.57925,-9.7191 1.29476,-1.39871 2.92075,-11.279 2.92075,-17.74781 0,-16.27318 -5.59359,-30.29018 -16.40773,-41.11622 -15.24253,-15.2593 -37.05821,-20.68261 -62.26892,-15.47987 -13.02364,2.6877 -21.85831,7.53762 -31.93835,17.53306 C 181.02803,528.70637 177,538.29848 177,555.4714 c 0,10.45397 1.52015,18.39473 5.04831,26.37073 l 1.97611,4.4673 19.73779,-0.61866 C 214.61799,585.3505 231.6,584.13204 241.5,582.98306 Z M 200,580.40991 c -9.04872,-3.90856 -14.74933,-13.86061 -13.70965,-23.93414 0.62545,-6.06003 2.35763,-9.83893 6.3668,-13.88968 13.76713,-13.90992 35.63131,-3.83797 35.63131,16.41391 0,16.06386 -14.77565,27.2467 -28.28846,21.40991 z m 19,-16.54828 c 0,-3.62594 -2.70548,-4.9849 -4.64461,-2.33298 -1.72411,2.35787 -1.70181,2.98207 0.17355,4.85743 2.19437,2.19438 4.47106,0.90891 4.47106,-2.52445 z m 230.92577,13.13688 c 10.50958,-0.64675 15.68699,-1.35551 16.2454,-2.2239 5.11518,-7.9547 7.12242,-25.02157 4.44269,-37.77461 -7.40254,-35.22922 -39.75125,-54.00288 -76.8403,-44.59447 C 363.34479,500.12442 344,523.09803 344,551.51593 c 0,9.90801 3.05255,20.18062 6.36492,21.41954 2.94114,1.10007 13.63508,1.89363 13.63508,1.01181 0,-0.39449 -1.07291,-1.42026 -2.38424,-2.27948 -1.31134,-0.85922 -3.56134,-3.92433 -5,-6.81135 -4.86713,-9.76706 -3.02555,-21.4175 4.51213,-28.54512 4.15108,-3.92525 7.66612,-5.31133 13.46933,-5.31133 11.98527,0 20.34519,9.43861 20.37143,23 0.0104,5.38258 -0.49454,7.38419 -2.93731,11.64327 -1.64071,2.86066 -4.54462,6.12887 -6.54321,7.36407 -1.97633,1.22144 -3.31217,2.50196 -2.96853,2.8456 1.70963,1.70962 46.00706,2.46246 67.40617,1.14557 z M 385.5,558.4863 c 0,-2.31277 -0.44799,-2.9863 -1.9863,-2.9863 -2.07927,0 -3.10726,2.51082 -2.1013,5.13232 1.04496,2.72313 4.0876,1.12572 4.0876,-2.14602 z"
           id="path865" />
        <path
           style="fill:#68d5e3"
           d="M 316.5,874.99449 C 249.39129,873.02536 146.95809,862.44927 99,852.5379 54.522331,843.34582 13.058684,820.3055 3.2261457,799.31874 c -3.63516906,-7.75898 -3.86723031,-20.24083 -0.5125691,-27.5695 4.5602611,-9.96246 17.8239324,-20.96878 34.6215584,-28.7293 12.099892,-5.59017 41.585639,-15.53275 59.613243,-20.10155 8.496612,-2.15333 15.753912,-4.25338 16.127342,-4.66677 0.37343,-0.41339 0.30549,-5.47662 -0.15097,-11.25162 -1.68373,-21.30205 -2.18979,-58.33204 -1.02295,-74.85364 0.97777,-13.84455 4.61689,-39.33635 6.67652,-46.76857 0.50987,-1.8399 -0.45393,-2.63339 -7.24511,-5.96481 C 80.476744,564.2763 75.659176,528.6001 101,502.891 c 13.32329,-13.51692 30.37112,-19.10348 47.811,-15.66764 4.43319,0.87339 11.00833,3.03927 14.61143,4.81307 5.77526,2.84315 6.77745,3.06157 8.46242,1.84433 14.04486,-10.14615 19.33084,-13.5341 29.11515,-18.66079 6.325,-3.31411 14.7625,-7.27834 18.75,-8.8094 6.8502,-2.63022 9.15264,-4.41057 5.704,-4.41057 -1.58138,0 -6.42616,-9.11752 -6.44423,-12.12756 -0.0302,-5.03208 5.2069,-4.17228 20.84809,3.42276 l 8.35787,4.05841 9.64213,-2.12906 c 5.30318,-1.17098 15.26714,-3.05084 22.14214,-4.17746 40.86869,-6.69725 63.91299,-6.77973 120.11178,-0.42988 4.35063,0.49157 6.99212,0.15637 11.75398,-1.49157 3.37821,-1.1691 7.23275,-2.12564 8.56564,-2.12564 2.87295,0 6.5686,4.24935 6.5686,7.55274 0,1.96729 1.11933,2.65579 8.09386,4.97852 16.45314,5.4794 29.74779,12.16787 42.7205,21.49249 4.57289,3.28694 8.74822,5.97625 9.27851,5.97625 0.53029,0 3.69924,-1.38066 7.04212,-3.06814 7.06018,-3.56397 19.39014,-6.93835 25.27497,-6.91708 5.77389,0.0209 15.74972,2.53487 22.4138,5.6485 12.07576,5.64208 24.81924,21.79608 28.7009,36.38206 C 573.3414,529.62973 572.15964,532 564.06574,532 c -5.39597,0 -5.17524,1.69183 0.40402,3.0967 6.44532,1.62295 7.10977,2.82277 5.06551,9.14696 -3.68917,11.41292 -12.58746,21.23952 -24.80401,27.39168 -5.26226,2.65003 -6.71688,3.83938 -6.30444,5.15476 1.31792,4.20321 5.77959,27.40717 7.58813,39.46384 2.53523,16.90111 4.70357,44.54357 5.57094,71.01938 0.37431,11.42532 1.01835,20.98208 1.4312,21.23724 0.41286,0.25516 5.64041,1.18454 11.61678,2.06529 20.35814,3.00021 45.79707,10.48038 63.57239,18.69308 29.51317,13.63593 46.65122,34.98405 46.74729,58.23107 0.0473,11.45175 -4.13516,20.55096 -13.79337,30.00809 -25.17496,24.65084 -76.90751,40.07103 -169.16018,50.42246 -54.76933,6.14552 -118.87001,8.7256 -175.5,7.06394 z m -217,-33.53578 c 2.75,-1.34611 7.925,-4.01575 11.5,-5.93254 6.33875,-3.39861 6.51643,-3.60341 7.16239,-8.25562 1.19981,-8.64096 0.95498,-22.01271 -0.41239,-22.52373 -2.24214,-0.83794 -15.64423,1.24168 -21.059644,3.26784 -13.569878,5.07715 -24.090744,16.34547 -20.196959,21.63186 1.328589,1.80376 1.459527,1.8031 4.881171,-0.0245 6.631695,-3.54222 9.110681,0.38062 3.125432,4.94579 -4.214244,3.21436 -4.423357,5.56073 -0.752893,8.44791 3.348237,2.63373 8.163951,2.15775 15.752893,-1.557 z M 585,840 c 2.88265,-2.88265 2.47824,-5.11836 -1.50003,-8.29263 -5.83329,-4.65439 -3.56422,-8.67252 2.9242,-5.17827 3.59433,1.93567 6.57583,1.46524 6.57583,-1.03755 0,-2.95023 -3.93633,-9.29342 -7.72098,-12.44195 -5.23232,-4.35289 -14.60024,-8.65006 -21.9892,-10.0867 -9.45062,-1.83748 -9.48698,-1.795 -8.79344,10.27364 1.11039,19.32239 0.70658,18.21985 8.20996,22.41598 C 574.64525,842.32914 581.36119,843.63881 585,840 Z M 349.96713,697.01677 c 2.1381,-1.09078 4.25767,-3.00328 4.71016,-4.25 1.12468,-3.09876 0.54485,-27.48317 -0.70922,-29.82644 -1.11379,-2.08113 -16.97138,-7.53678 -19.30443,-6.6415 -1.81594,0.69684 -2.66364,7.5043 -2.66364,21.3904 0,12.88685 1.06552,16.16049 6.29855,19.35125 4.05457,2.47222 6.78703,2.46667 11.66858,-0.0237 z m -28.35092,-3.30387 3.58684,-3.28709 0.43229,-16.71291 c 0.34077,-13.17463 0.16049,-16.7055 -0.85153,-16.67793 -3.88874,0.10593 -23.1756,6.91374 -24.05898,8.49225 -1.699,3.03594 -0.13257,17.69842 2.47125,23.13214 1.89893,3.96274 2.8915,4.92372 5.64657,5.46691 1.83846,0.36246 3.84096,1.15734 4.45,1.76638 1.92146,1.92146 4.6193,1.21496 8.32356,-2.17975 z m 52.0719,-35.36919 c 3.93853,-1.86895 7.95455,-7.307 8.9047,-12.05775 1.38067,-6.90335 -7.89546,-18.50571 -19.25314,-24.08136 l -5.16034,-2.53328 -3.07407,2.58665 c -5.40732,4.54997 -13.51271,6.96377 -25.18204,7.49928 -12.49637,0.57347 -20.01872,-1.14618 -25.30078,-5.78389 C 302.75988,622.33801 300.48553,621 299.56833,621 c -4.30602,0 -11.75457,6.39676 -15.13754,13 -4.06581,7.93608 -1.29082,19.40372 5.6197,23.22342 4.44494,2.45689 9.72946,1.91986 22.6987,-2.3067 10.7028,-3.48795 22.57517,-4.7943 28.25686,-3.10918 1.92167,0.56994 7.99395,2.64186 13.49395,4.60427 11.24373,4.01178 14.18172,4.30759 19.18811,1.9319 z M 218,586.0041 c 26.70312,-1.96029 80.82875,-9.78716 83.60282,-12.08943 C 303.16605,572.6173 305,562.83338 305,555.79106 c 0,-33.35255 -23.94002,-57.9293 -58,-59.54259 -33.90667,-1.60604 -62.2137,16.61596 -69.51941,44.75153 -2.32901,8.96941 -1.61005,27.0413 1.41017,35.44651 3.84004,10.68676 3.64626,10.55385 15.38229,10.55106 5.62482,-10e-4 16.30195,-0.44839 23.72695,-0.99347 z m -18,-6.54299 c -14.44138,-6.48392 -17.57355,-26.72625 -5.74275,-37.11383 17.37882,-15.25881 41.5093,6.14263 30.67144,27.20265 -4.86027,9.44443 -16.05507,13.89527 -24.92869,9.91118 z m 20,-15.37385 c 0,-3.60225 -2.49779,-5.89055 -4.83382,-4.42841 -2.36995,1.48337 -2.75019,6.44094 -0.61383,8.00309 2.5449,1.86087 5.44765,-0.0439 5.44765,-3.57468 z m 237.80082,13.27448 c 4.10577,-0.34093 7.90347,-1.20889 8.6779,-1.98332 0.75739,-0.75739 2.40329,-3.96488 3.65756,-7.12775 3.04821,-7.68667 3.2852,-26.52969 0.44964,-35.75067 -6.7547,-21.96563 -21.98236,-36.67942 -43.58592,-42.11506 -4.95293,-1.2462 -9.11812,-1.50079 -17.5,-1.06965 -13.18482,0.67819 -20.1892,2.44163 -31.5,7.9305 -6.81641,3.30784 -10.2017,5.82125 -17.09142,12.68953 C 348.34919,522.45563 343,534.75269 343,551.10476 c 0,7.03688 2.85769,19.98309 4.88674,22.13843 0.77354,0.82169 18.36188,2.8146 19.03608,2.15695 0.23254,-0.22684 -1.47048,-2.03302 -3.7845,-4.01374 -7.68111,-6.57474 -10.29301,-14.88876 -7.59944,-24.19002 4.20439,-14.51829 19.84841,-20.0958 30.87415,-11.00746 C 391.7889,540.62017 394,545.6652 394,553.5 c 0,9.87738 -4.64644,17.33673 -13,20.87009 -2.74992,1.16315 -3.13781,1.62159 -1.80999,2.13913 5.17103,2.01551 57.73955,2.58561 78.61081,0.85252 z M 385.8,561.8 c 3.02569,-3.02569 -0.17225,-9.30914 -3.63382,-7.13988 -2.09736,1.31434 -2.6958,4.9968 -1.1205,6.89492 1.45996,1.75915 3.15291,1.84637 4.75432,0.24496 z"
           id="path863" />
        <path
           style="fill:#4d9ba6"
           d="M 316.5,874.99449 C 249.39129,873.02536 146.95809,862.44927 99,852.5379 54.522331,843.34582 13.058684,820.3055 3.2261457,799.31874 c -3.63516906,-7.75898 -3.86723031,-20.24083 -0.5125691,-27.5695 4.5602611,-9.96246 17.8239324,-20.96878 34.6215584,-28.7293 12.099892,-5.59017 41.585639,-15.53275 59.613243,-20.10155 8.496612,-2.15333 15.753912,-4.25338 16.127342,-4.66677 0.37343,-0.41339 0.30549,-5.47662 -0.15097,-11.25162 -1.68373,-21.30205 -2.18979,-58.33204 -1.02295,-74.85364 0.97777,-13.84455 4.61689,-39.33635 6.67652,-46.76857 0.50987,-1.8399 -0.45393,-2.63339 -7.24511,-5.96481 C 80.476744,564.2763 75.659176,528.6001 101,502.891 c 13.32329,-13.51692 30.37112,-19.10348 47.811,-15.66764 4.43319,0.87339 11.00833,3.03927 14.61143,4.81307 5.77526,2.84315 6.77745,3.06157 8.46242,1.84433 14.04486,-10.14615 19.33084,-13.5341 29.11515,-18.66079 6.325,-3.31411 14.7625,-7.27834 18.75,-8.8094 6.8502,-2.63022 9.15264,-4.41057 5.704,-4.41057 -1.58138,0 -6.42616,-9.11752 -6.44423,-12.12756 -0.0302,-5.03208 5.2069,-4.17228 20.84809,3.42276 l 8.35787,4.05841 9.64213,-2.12906 c 5.30318,-1.17098 15.26714,-3.05084 22.14214,-4.17746 40.86869,-6.69725 63.91299,-6.77973 120.11178,-0.42988 4.35063,0.49157 6.99212,0.15637 11.75398,-1.49157 3.37821,-1.1691 7.23275,-2.12564 8.56564,-2.12564 2.87295,0 6.5686,4.24935 6.5686,7.55274 0,1.96729 1.11933,2.65579 8.09386,4.97852 16.45314,5.4794 29.74779,12.16787 42.7205,21.49249 4.57289,3.28694 8.74822,5.97625 9.27851,5.97625 0.53029,0 3.69924,-1.38066 7.04212,-3.06814 7.06018,-3.56397 19.39014,-6.93835 25.27497,-6.91708 5.77389,0.0209 15.74972,2.53487 22.4138,5.6485 12.07576,5.64208 24.81924,21.79608 28.7009,36.38206 C 573.3414,529.62973 572.15964,532 564.06574,532 c -5.39597,0 -5.17524,1.69183 0.40402,3.0967 6.44532,1.62295 7.10977,2.82277 5.06551,9.14696 -3.68917,11.41292 -12.58746,21.23952 -24.80401,27.39168 -5.26226,2.65003 -6.71688,3.83938 -6.30444,5.15476 1.31792,4.20321 5.77959,27.40717 7.58813,39.46384 2.53523,16.90111 4.70357,44.54357 5.57094,71.01938 0.37431,11.42532 1.01835,20.98208 1.4312,21.23724 0.41286,0.25516 5.64041,1.18454 11.61678,2.06529 20.35814,3.00021 45.79707,10.48038 63.57239,18.69308 29.51317,13.63593 46.65122,34.98405 46.74729,58.23107 0.0473,11.45175 -4.13516,20.55096 -13.79337,30.00809 -25.17496,24.65084 -76.90751,40.07103 -169.16018,50.42246 -54.76933,6.14552 -118.87001,8.7256 -175.5,7.06394 z m 99,-18.00196 c 28.42609,-1.10053 58.20237,-3.19333 80,-5.62273 21.23317,-2.3665 52.59948,-7.06682 53.53282,-8.02203 C 549.48842,842.8815 549.21249,832.6 548.41965,820.5 547.6268,808.4 546.5496,769.475 546.02587,734 544.68664,643.28709 542.21422,616.56474 531.31775,575.03207 524.4372,548.80638 518.25429,534.26815 507.70068,519.5 489.25305,493.68536 465.12508,476.04763 433.82359,465.49528 l -11.6764,-3.93635 -7.3236,2.35066 c -9.57638,3.07375 -27.7579,12.50544 -45.82359,23.77106 -23.79729,14.83981 -28.10172,16.58078 -28.80745,11.65147 -0.5344,-3.7326 14.07204,-15.95096 41.61396,-34.81031 6.21857,-4.25817 11.02976,-8.01888 10.69151,-8.35712 -1.35817,-1.35817 -23.37117,-3.10221 -46.99802,-3.72354 -27.24615,-0.71651 -42.37751,0.55702 -72.5,6.10197 -14.94565,2.7512 -17.02616,3.27604 -16.94343,4.27427 0.0311,0.37543 5.51029,4.95761 12.17594,10.18261 23.80535,18.66028 35.15925,29.93907 33.24934,33.02937 -0.32994,0.53385 -1.85862,0.97063 -3.39706,0.97063 -3.08394,0 -3.95437,-0.61627 -27.69769,-19.61018 C 252.76123,473.28967 243.02442,467 238.82237,467 c -3.74339,0 -20.16699,6.06299 -31.63251,11.67756 -41.24683,20.19822 -66.76875,51.75112 -80.13945,99.07685 -10.02982,35.50065 -12.44899,83.92484 -7.03136,140.74559 3.00377,31.50379 5.18243,70.7549 5.32394,95.91672 0.0991,17.6172 0.52595,28.02244 1.15701,28.20326 1.85554,0.53167 47.83118,5.37452 70.11346,7.38541 40.11408,3.62014 81.84682,6.06657 124.88654,7.32102 24.89754,0.72567 70.84806,0.56246 94,-0.33388 z M 339.98256,704.39854 c -2.62617,-0.76936 -5.92865,-2.77945 -7.88825,-4.80123 l -3.37081,-3.4778 -4.5388,3.46563 c -6.23182,4.75835 -8.14746,5.05848 -12.67521,1.98586 C 309.42577,700.15695 306.63825,699 305.315,699 299.26877,699 294,686.88119 294,672.97412 v -7.81521 l -3.11239,-0.68359 C 286.37597,663.48439 280.57883,657.77301 278,651.77836 c -3.78323,-8.79435 -1.68687,-19.05488 5.68255,-27.81293 C 286.90548,620.13519 294.6049,615 297.12482,615 c 1.23064,0 2.17624,-1.52378 3.26084,-5.2547 1.89868,-6.53122 6.86618,-11.59929 15.11434,-15.42034 5.37413,-2.48963 7.09527,-2.77703 16.5,-2.75522 8.78043,0.0204 11.35842,0.40471 15.74164,2.34686 6.48426,2.87308 11.79939,8.59838 13.25393,14.27673 0.60674,2.36867 1.26689,4.80417 1.46698,5.41221 0.2001,0.60805 2.76538,2.46789 5.70063,4.13298 21.62452,12.26701 26.94281,29.8986 12.85696,42.62432 C 375.90682,664.98242 373.30171,666 366.58846,666 h -5.28134 l 0.0964,13.8338 c 0.10648,15.27433 -0.44128,17.28347 -5.69278,20.88052 -5.96604,4.08647 -10.6278,5.17846 -15.72822,3.68422 z m 9.98457,-7.38177 c 2.1381,-1.09078 4.25767,-3.00328 4.71016,-4.25 1.12468,-3.09876 0.54485,-27.48317 -0.70922,-29.82644 -1.11379,-2.08113 -16.97138,-7.53678 -19.30443,-6.6415 -1.81594,0.69684 -2.66364,7.5043 -2.66364,21.3904 0,12.88685 1.06552,16.16049 6.29855,19.35125 4.05457,2.47222 6.78703,2.46667 11.66858,-0.0237 z m -28.35092,-3.30387 3.58684,-3.28709 0.43229,-16.71291 c 0.34077,-13.17463 0.16049,-16.7055 -0.85153,-16.67793 -3.88874,0.10593 -23.1756,6.91374 -24.05898,8.49225 -1.699,3.03594 -0.13257,17.69842 2.47125,23.13214 1.89893,3.96274 2.8915,4.92372 5.64657,5.46691 1.83846,0.36246 3.84096,1.15734 4.45,1.76638 1.92146,1.92146 4.6193,1.21496 8.32356,-2.17975 z m 52.0719,-35.36919 c 3.93853,-1.86895 7.95455,-7.307 8.9047,-12.05775 1.38067,-6.90335 -7.89546,-18.50571 -19.25314,-24.08136 l -5.16034,-2.53328 -3.07407,2.58665 c -5.40732,4.54997 -13.51271,6.96377 -25.18204,7.49928 -12.49637,0.57347 -20.01872,-1.14618 -25.30078,-5.78389 C 302.75988,622.33801 300.48553,621 299.56833,621 c -4.30602,0 -11.75457,6.39676 -15.13754,13 -4.06581,7.93608 -1.29082,19.40372 5.6197,23.22342 4.44494,2.45689 9.72946,1.91986 22.6987,-2.3067 10.7028,-3.48795 22.57517,-4.7943 28.25686,-3.10918 1.92167,0.56994 7.99395,2.64186 13.49395,4.60427 11.24373,4.01178 14.18172,4.30759 19.18811,1.9319 z M 217.5,618.62062 c -20.92427,-5.83391 -36.23811,-19.82487 -43.75407,-39.97437 -2.54663,-6.82726 -3.11455,-10.01244 -3.50754,-19.67204 -0.81781,-20.10164 4.36629,-33.65474 18.16355,-47.48609 14.46283,-14.49855 30.71908,-20.77388 54.09806,-20.88325 15.21948,-0.0712 21.58692,1.3465 34.5,7.68138 17.36702,8.51987 29.16858,24.53608 32.49127,44.09474 1.90772,11.2296 1.89998,16.80914 -0.0363,26.18333 -1.98518,9.61088 -4.449,15.27197 -10.08268,23.16686 -9.17137,12.85253 -25.99868,23.5045 -43.10689,27.28738 -12.33212,2.72681 -28.13999,2.56454 -38.76539,-0.39794 z m 38.43347,-5.22037 c 10.50182,-2.63129 23.43698,-9.98519 31.60088,-17.96573 7.23698,-7.07444 9.40758,-10.46064 5.71565,-8.91662 -8.28605,3.46536 -48.75103,12.27129 -51.51505,11.21063 -2.61278,-1.00262 -1.04598,-3.32032 3.06731,-4.53733 2.03376,-0.60174 10.67274,-2.25459 19.19774,-3.673 8.525,-1.41842 19.01425,-3.4753 23.30945,-4.57085 4.29519,-1.09555 8.1817,-1.76183 8.63669,-1.48064 0.97692,0.60377 3.59049,-2.26341 2.79152,-3.06238 -0.30104,-0.30104 -6.77766,0.80142 -14.3925,2.44991 -25.01027,5.41433 -50.45645,8.59422 -77.56917,9.69346 -7.85179,0.31834 -15.35872,0.80154 -16.68205,1.07377 -2.20923,0.45448 -2.27469,0.62635 -0.80019,2.10085 1.1296,1.1296 1.99149,1.30673 2.90606,0.59723 0.72155,-0.55974 7.40832,-1.03152 15.02489,-1.06006 7.54858,-0.0283 16.77358,-0.33617 20.5,-0.68419 7.09159,-0.6623 9.95808,0.20301 8.99412,2.71506 -0.45628,1.18904 -3.74088,1.6407 -16.1664,2.22304 -8.57657,0.40196 -18.05947,0.52636 -21.0731,0.27644 C 196.4657,599.53993 194,599.60469 194,599.93375 c 0,0.97076 9.58783,6.96065 14.53842,9.08272 15.63513,6.702 32.07415,8.22252 47.39505,4.38378 z M 218,586.0041 c 26.70312,-1.96029 80.82875,-9.78716 83.60282,-12.08943 C 303.16605,572.6173 305,562.83338 305,555.79106 c 0,-33.35255 -23.94002,-57.9293 -58,-59.54259 -33.90667,-1.60604 -62.2137,16.61596 -69.51941,44.75153 -2.32901,8.96941 -1.61005,27.0413 1.41017,35.44651 3.84004,10.68676 3.64626,10.55385 15.38229,10.55106 5.62482,-10e-4 16.30195,-0.44839 23.72695,-0.99347 z m -18,-6.54299 c -14.44138,-6.48392 -17.57355,-26.72625 -5.74275,-37.11383 17.37882,-15.25881 41.5093,6.14263 30.67144,27.20265 -4.86027,9.44443 -16.05507,13.89527 -24.92869,9.91118 z m 20,-15.37385 c 0,-3.60225 -2.49779,-5.89055 -4.83382,-4.42841 -2.36995,1.48337 -2.75019,6.44094 -0.61383,8.00309 2.5449,1.86087 5.44765,-0.0439 5.44765,-3.57468 z m 171.5,49.23312 C 369.91003,608.48833 352.46798,595.76879 343.75152,578.5 c -11.87641,-23.52916 -7.80593,-51.05548 10.50486,-71.03848 10.46087,-11.4162 22.97994,-18.40312 40.4693,-22.586 12.30171,-2.94217 29.31747,-2.25863 40.54519,1.62874 20.62,7.13925 34.65337,22.2485 40.90479,44.04081 3.04212,10.60474 3.26518,29.16332 0.45019,37.45493 -9.77439,28.79063 -37.32557,46.26142 -72.3584,45.884 C 398.34535,613.8202 392.6,613.56657 391.5,613.32038 Z m 32,-7.45235 c 11.48922,-2.82313 24.79792,-9.57372 32,-16.2314 l 6,-5.54646 -3.13889,-0.0451 c -2.37052,-0.034 -3.10489,0.37575 -3,1.67405 0.20421,2.52761 -5.65534,4.13295 -19.73337,5.40633 C 421.49914,592.40342 409.5,591.42731 409.5,589 c 0,-1.26412 3.28122,-1.60476 20.86619,-2.16619 14.27944,-0.4559 21.22409,-1.04868 22,-1.87787 0.88626,-0.94714 -2.25033,-1.08243 -14.36619,-0.61966 -19.78062,0.75551 -51.05026,-0.6925 -71.28825,-3.30118 -18.6631,-2.40567 -17.42083,-2.34418 -15.86175,-0.7851 0.6875,0.6875 2.465,1.31441 3.95,1.39314 3.7049,0.19642 26.28745,5.11098 27.06696,5.89049 0.34644,0.34644 -0.2694,1.28817 -1.36853,2.09274 -2.42567,1.7756 -6.93035,1.19588 -17.26948,-2.22243 C 359.22987,586.08178 355.65104,585 355.276,585 c -1.60922,0 7.77456,8.51218 13.86311,12.57545 16.09453,10.7409 33.55643,13.40466 54.36089,8.29258 z m 34.30082,-28.50629 c 4.10577,-0.34093 7.90347,-1.20889 8.6779,-1.98332 0.75739,-0.75739 2.40329,-3.96488 3.65756,-7.12775 3.04821,-7.68667 3.2852,-26.52969 0.44964,-35.75067 -6.7547,-21.96563 -21.98236,-36.67942 -43.58592,-42.11506 -4.95293,-1.2462 -9.11812,-1.50079 -17.5,-1.06965 -13.18482,0.67819 -20.1892,2.44163 -31.5,7.9305 -6.81641,3.30784 -10.2017,5.82125 -17.09142,12.68953 C 348.34919,522.45563 343,534.75269 343,551.10476 c 0,7.03688 2.85769,19.98309 4.88674,22.13843 0.77354,0.82169 18.36188,2.8146 19.03608,2.15695 0.23254,-0.22684 -1.47048,-2.03302 -3.7845,-4.01374 -7.68111,-6.57474 -10.29301,-14.88876 -7.59944,-24.19002 4.20439,-14.51829 19.84841,-20.0958 30.87415,-11.00746 C 391.7889,540.62017 394,545.6652 394,553.5 c 0,9.87738 -4.64644,17.33673 -13,20.87009 -2.74992,1.16315 -3.13781,1.62159 -1.80999,2.13913 5.17103,2.01551 57.73955,2.58561 78.61081,0.85252 z M 385.8,561.8 c 3.02569,-3.02569 -0.17225,-9.30914 -3.63382,-7.13988 -2.09736,1.31434 -2.6958,4.9968 -1.1205,6.89492 1.45996,1.75915 3.15291,1.84637 4.75432,0.24496 z M 99.5,841.45871 c 2.75,-1.34611 7.925,-4.01575 11.5,-5.93254 6.33875,-3.39861 6.51643,-3.60341 7.16239,-8.25562 1.19981,-8.64096 0.95498,-22.01271 -0.41239,-22.52373 -2.24214,-0.83794 -15.64423,1.24168 -21.059644,3.26784 -13.569878,5.07715 -24.090744,16.34547 -20.196959,21.63186 1.328589,1.80376 1.459527,1.8031 4.881171,-0.0245 6.631695,-3.54222 9.110681,0.38062 3.125432,4.94579 -4.214244,3.21436 -4.423357,5.56073 -0.752893,8.44791 3.348237,2.63373 8.163951,2.15775 15.752893,-1.557 z M 585,840 c 2.88265,-2.88265 2.47824,-5.11836 -1.50003,-8.29263 -5.83329,-4.65439 -3.56422,-8.67252 2.9242,-5.17827 3.59433,1.93567 6.57583,1.46524 6.57583,-1.03755 0,-2.95023 -3.93633,-9.29342 -7.72098,-12.44195 -5.23232,-4.35289 -14.60024,-8.65006 -21.9892,-10.0867 -9.45062,-1.83748 -9.48698,-1.795 -8.79344,10.27364 1.11039,19.32239 0.70658,18.21985 8.20996,22.41598 C 574.64525,842.32914 581.36119,843.63881 585,840 Z M 121.69281,570.5 c 0.76992,-2.75 2.36247,-7.43939 3.53901,-10.42086 l 2.13916,-5.42086 -2.39417,-1.57914 c -10.44729,-6.8908 -13.44273,-15.05228 -9.06369,-24.69523 3.92407,-8.64107 13.11128,-12.24156 22.99079,-9.01013 2.73454,0.89442 5.37355,1.62622 5.86447,1.62622 0.49092,0 2.27027,-1.9125 3.95412,-4.25 1.68384,-2.3375 5.85464,-7.29258 9.26844,-11.01128 l 6.20691,-6.76128 -5.61126,-2.48156 c -24.55408,-10.85898 -52.39187,0.52283 -64.406405,26.33333 -2.319023,4.98189 -2.642158,6.94635 -2.659942,16.17079 -0.0182,9.44284 0.255508,11.06149 2.718584,16.07683 1.506355,3.06726 4.751789,7.56726 7.212073,10 4.80571,4.75191 15.15939,11.08737 17.44558,10.67504 0.76807,-0.13853 2.02642,-2.50187 2.79633,-5.25187 z m 421.50776,-5.10164 c 6.92284,-3.50807 15.17876,-11.51184 18.26697,-17.70906 1.39285,-2.79509 2.53246,-5.59171 2.53246,-6.21471 0,-0.62299 -2.24977,-2.18645 -4.99949,-3.47435 -5.55971,-2.60403 -8.53218,-5.33096 -7.54757,-6.92409 0.35687,-0.57743 3.21345,-1.76159 6.34796,-2.63148 3.1345,-0.86988 6.22048,-1.74589 6.85773,-1.94669 3.03636,-0.95677 -3.63253,-17.57229 -10.53943,-26.25898 -13.23958,-16.65118 -37.35868,-21.32006 -57.37796,-11.10699 l -3.81895,1.94828 7.69259,8.45052 7.69259,8.45052 5.09627,-0.57276 c 7.18244,-0.80723 13.09758,2.412 16.8229,9.15562 4.03786,7.30939 3.72982,12.22138 -1.26321,20.14318 -1.24891,1.98149 -0.8972,3.69554 3.43703,16.75 2.65558,7.99845 5.0168,14.54263 5.24717,14.54263 0.23037,0 2.72919,-1.17074 5.55294,-2.60164 z"
           id="path861" />
        <path
           style="fill:#866f49"
           d="M 306.5,874.33351 C 242.91641,871.83764 139.3856,860.81549 97,852.0296 81.466081,848.80965 60.646318,841.80366 47.202824,835.27251 28.2608,826.07005 8.41441,809.53321 2.9666479,798.41309 -0.36496752,791.61251 -0.46538895,779.67133 2.7500441,772.65659 7.7338737,761.78395 19.571899,751.79928 37.287556,743.52627 50.322447,737.43912 76.579113,728.56144 96.5,723.50585 l 17,-4.31432 -0.16067,-7.34577 c -0.0884,-4.04017 -0.67772,-17.67744 -1.30967,-30.30505 -1.64463,-32.86252 0.009,-61.06791 5.06339,-86.36624 1.13463,-5.67904 1.83535,-10.91868 1.55716,-11.64364 -0.2782,-0.72496 -2.9008,-2.43005 -5.82801,-3.7891 -12.35128,-5.73446 -21.430638,-15.34331 -25.507852,-26.99543 -7.717469,-22.05549 5.355914,-49.37341 29.037072,-60.67539 7.92836,-3.78385 14.35762,-5.23149 23.18026,-5.21934 8.83001,0.0122 15.1193,1.52286 23.74629,5.70389 l 6.77796,3.28491 4.7145,-3.59865 c 12.61838,-9.63183 31.31222,-20.10581 45.97957,-25.76191 7.4984,-2.89157 8.61749,-3.88894 5.32857,-4.74901 C 223.65986,461.09829 220,454.05925 220,450.03984 220,447.6261 220.42911,447 222.08341,447 c 2.61781,0 16.05004,5.32505 21.59263,8.56015 l 4.17605,2.43747 8.32395,-1.96874 c 11.41301,-2.69936 35.80312,-6.61858 53.56032,-8.60654 21.10906,-2.36322 55.9508,-1.07668 84.69959,3.12756 9.92936,1.45207 9.94144,1.45125 18.22486,-1.24636 l 8.28891,-2.6994 2.52514,2.37224 c 1.51041,1.41896 2.52514,3.47499 2.52514,5.1164 0,2.50316 0.5928,2.93802 6.75,4.95163 17.49484,5.7214 32.27002,13.13564 45.96221,23.06401 l 8.21222,5.95478 6.84751,-3.44835 c 11.09826,-5.589 17.14063,-6.94637 28.1632,-6.32666 10.576,0.5946 16.96238,2.63527 25.41748,8.12177 12.54118,8.13794 22.17639,23.92936 23.39338,38.34004 l 0.52782,6.25 -4.88691,0.0703 c -2.6878,0.0386 -5.77687,0.41798 -6.86461,0.84295 -1.97026,0.76977 -1.97026,0.77664 0,1.82715 1.08774,0.57996 3.8902,1.56798 6.2277,2.19559 3.82872,1.02799 4.25,1.44527 4.25,4.2096 0,5.00431 -5.51218,15.14921 -11.46651,21.10354 -3.00825,3.00824 -8.61706,7.12351 -12.46402,9.14504 -3.84697,2.02152 -7.25128,4.091 -7.56515,4.59886 -0.31387,0.50785 0.81566,7.57967 2.51006,15.71517 5.86235,28.1474 8.60045,53.75236 9.85291,92.13833 0.60394,18.50955 1.16565,25.55581 2.08244,26.12241 0.69049,0.42675 4.02177,1.06241 7.40285,1.41259 25.8859,2.68103 64.40146,15.61291 83.78711,28.13214 20.02759,12.93381 32.09574,33.50671 30.59829,52.16175 -2.5054,31.21202 -46.77415,55.67601 -124.42635,68.76103 -42.72885,7.20016 -91.96788,12.27244 -141.31163,14.55701 -18.96832,0.87821 -83.34884,1.0918 -102.5,0.34006 z m 111,-16.33257 c 29.984,-1.17407 47.44862,-2.37922 73.66131,-5.08304 24.31039,-2.50759 57.76433,-7.44354 59.03039,-8.7096 0.58954,-0.58954 0.355,-11.19074 -0.62665,-28.32523 C 548.70221,800.82238 547.54172,760.375 546.98619,726 545.97694,663.54995 545.39814,650.93303 542.42166,626.5 538.16723,591.57664 527.07005,549.48997 517.78025,533.0461 506.48169,513.04653 489.82131,494.69585 472.10228,482.73385 458.54589,473.58201 429.41059,461 421.77471,461 c -3.77715,0 -19.4034,6.08319 -28.77471,11.20179 -4.125,2.25308 -14.25,8.24389 -22.5,13.31291 -21.06484,12.94281 -26.30827,15.77285 -28.01216,15.11901 -2.54237,-0.9756 -1.65957,-3.2207 2.92987,-7.4511 5.33255,-4.91537 22.96534,-18.07705 38.33229,-28.61245 6.1875,-4.24208 11.25,-8.12219 11.25,-8.62247 0,-2.22881 -18.6389,-3.97357 -49.5,-4.63362 -28.22159,-0.6036 -39.62499,0.27718 -68.5,5.29079 -17.28993,3.00207 -23,4.35309 -23,5.44186 0,0.4451 6.60756,6.12313 14.68346,12.61784 C 294.35201,495.30742 304.38523,506 298.08659,506 c -2.01595,0 -11.44721,-6.802 -26.81211,-19.3374 -11.6792,-9.52844 -20.38347,-15.70631 -26.85936,-19.06348 l -5.08488,-2.63605 -6.84339,2.11371 c -8.98198,2.77425 -25.1689,9.75228 -34.1961,14.74162 -18.16521,10.03992 -33.36447,23.10443 -45.16628,38.82264 -18.57202,24.7351 -28.98792,52.77139 -34.68426,93.35896 -3.15994,22.51527 -2.89741,69.88383 0.59859,108 2.91987,31.83482 4.26743,56.10025 4.83146,87 l 0.62974,34.5 9.5,1.17975 c 30.89124,3.83619 90.59738,9.11375 128.5,11.35839 47.14162,2.79179 112.64481,3.62127 155,1.9628 z M 337.23425,701.88691 c -2.34617,-1.16132 -5.11093,-3.18597 -6.14392,-4.49921 -2.19251,-2.78732 -3.35758,-2.97554 -5.13816,-0.83006 -0.711,0.8567 -3.25552,2.7079 -5.65449,4.11379 l -4.36176,2.55617 -3.77171,-2.6138 C 310.08977,699.17621 307.50431,698 306.41876,698 c -6.10432,0 -10.39709,-9.31368 -11.17703,-24.24991 l -0.50912,-9.74992 -3.76425,-1.1278 c -7.72148,-2.31341 -13.33382,-10.64374 -13.39721,-19.88531 -0.071,-10.34795 8.78305,-22.9927 18.26314,-26.08224 4.08353,-1.33081 5.12788,-2.43774 5.1504,-5.45904 0.008,-1.12982 1.29028,-4.06463 2.84857,-6.5218 8.85195,-13.95808 37.79734,-16.8579 50.50602,-5.05982 3.64342,3.38237 5.66072,7.27789 5.66072,10.93119 0,3.21688 1.36342,4.64792 8.07403,8.47448 10.86319,6.19446 19.95779,17.6982 19.90401,25.17651 -0.0525,7.30328 -7.72096,16.99359 -15.4723,19.55177 -2.13631,0.70504 -5.63052,0.9825 -8.10387,0.64349 l -4.34819,-0.59598 0.15509,14.87506 c 0.18095,17.35627 -0.20924,18.4057 -8.35232,22.46356 -6.35504,3.16685 -9.05258,3.25959 -14.6222,0.50267 z m 12.95505,-4.50788 c 4.91067,-2.49726 5.81987,-4.94089 5.7118,-15.35154 C 355.8467,676.78737 355.50921,670.025 355.1511,667 L 354.5,661.5 347,658.81272 c -8.98619,-3.21979 -13.64973,-3.56475 -14.36669,-1.06272 -0.2758,0.9625 -0.80377,7.375 -1.17325,14.25001 -0.77017,14.33075 0.14159,19.28853 4.27399,23.24028 5.01438,4.79516 8.28113,5.27849 14.45525,2.13874 z m -30.26883,-1.82036 c 5.54949,-4.09428 5.76803,-4.8668 6.31102,-22.30867 0.49962,-16.04861 0.47963,-16.24986 -1.6128,-16.2386 -3.02545,0.0163 -21.61244,5.73852 -23.36536,7.19332 -1.16163,0.96407 -1.38236,3.21443 -1.05514,10.75719 0.46919,10.81508 3.28152,19.03809 6.51118,19.03809 1.00201,0 3.38981,0.87417 5.30623,1.94261 4.42235,2.46552 4.01589,2.48527 7.90487,-0.38394 z m 53.76764,-37.21496 c 3.93853,-1.86895 7.95455,-7.307 8.9047,-12.05775 1.38067,-6.90335 -7.89546,-18.50571 -19.25314,-24.08136 l -5.16034,-2.53328 -3.07407,2.58665 c -5.40732,4.54997 -13.51271,6.96377 -25.18204,7.49928 -12.49637,0.57347 -20.01872,-1.14618 -25.30078,-5.78389 C 302.75988,622.33801 300.48553,621 299.56833,621 c -4.30602,0 -11.75457,6.39676 -15.13754,13 -4.06581,7.93608 -1.29082,19.40372 5.6197,23.22342 4.44494,2.45689 9.72946,1.91986 22.6987,-2.3067 10.7028,-3.48795 22.57517,-4.7943 28.25686,-3.10918 1.92167,0.56994 7.99395,2.64186 13.49395,4.60427 11.24373,4.01178 14.18172,4.30759 19.18811,1.9319 z M 218.5,617.63765 c -11.05968,-3.06002 -19.75028,-7.96299 -27.99346,-15.79302 -8.03106,-7.62854 -12.53525,-14.55508 -16.26333,-25.00971 -2.32613,-6.52315 -2.61685,-8.82899 -2.62692,-20.83492 -0.0101,-12.09921 0.25538,-14.19952 2.55901,-20.24155 3.96302,-10.39432 8.62546,-17.31585 16.96649,-25.18723 13.52114,-12.75982 30.07565,-18.77197 51.85821,-18.83349 20.49192,-0.0579 35.76923,5.9307 49.02724,19.21825 12.08198,12.10891 17.19228,25.30566 17.24918,44.54402 0.0541,18.29692 -4.77673,30.0057 -17.76224,43.05122 -6.64666,6.67739 -9.6868,8.86816 -17.81633,12.83873 -17.49757,8.54606 -38.35749,10.90714 -55.19785,6.2477 z m 38,-3.11993 c 9.49158,-2.40751 21.7159,-9.06428 29.14301,-15.86988 C 294.77694,590.27826 303.56207,578 300.41661,578 c -0.32086,0 -4.03336,0.87874 -8.25,1.95275 -24.31988,6.19447 -71.28685,12.02885 -96.94799,12.04318 -5.65341,0.003 -7.41445,0.35082 -7.87652,1.55495 -1.26658,3.30065 10.36878,12.06062 23.00855,17.32257 14.42729,6.0061 31.51728,7.35564 46.14935,3.64427 z M 196.08333,597.6368 c 0.22917,-0.19977 8.96667,-0.65432 19.41667,-1.01012 12.72536,-0.43328 18.50463,-0.31839 17.5,0.34789 -1.35153,0.89634 -37.93816,1.55265 -36.91667,0.66223 z m 47.50736,-1.49006 c -0.90621,-1.46628 4.1298,-2.94303 15.68958,-4.60078 C 265.20942,590.69568 270.57192,590 271.19694,590 c 2.77738,0 -0.58398,1.16547 -9.77445,3.38905 -13.49192,3.26429 -17.1674,3.8327 -17.8318,2.75769 z m -15.0013,-10.6339 c 18.75366,-1.7529 47.44166,-5.78396 62.91061,-8.83982 l 11,-2.17302 1.16952,-4.5 c 1.6724,-6.43492 1.56007,-22.40055 -0.21044,-29.9118 -4.92524,-20.8949 -21.18052,-37.01294 -42.95908,-42.59637 -14.74528,-3.7803 -39.06468,-0.93559 -52.78314,6.17418 -9.75846,5.05744 -22.20798,17.39956 -26.56316,26.33399 -7.7495,15.89773 -7.81149,36.68111 -0.15657,52.49407 L 183.17841,587 h 14.75018 c 8.1126,0 21.90996,-0.66922 30.6608,-1.48716 z m -27.03157,-6.00496 c -5.80019,-2.06623 -8.74667,-4.63393 -11.53496,-10.0521 -10.52099,-20.44426 12.88133,-41.89295 29.64725,-27.17228 9.81304,8.61597 9.81992,24.81099 0.0142,33.42053 -3.36329,2.95301 -9.12783,5.33735 -12.68431,5.2465 -0.825,-0.0211 -3.27398,-0.67027 -5.44218,-1.44265 z m 17.96958,-12.53816 c 2.47206,-2.73159 1.01035,-7.3163 -2.4915,-7.81469 -4.28443,-0.60977 -6.66433,5.07368 -3.46447,8.27354 2.10581,2.10581 3.74959,1.97917 5.95597,-0.45885 z M 392.5,612.32038 C 369.85767,607.2528 353.01604,594.71559 344.38137,576.5 c -6.66255,-14.05522 -7.97341,-25.95525 -4.39876,-39.93199 3.30256,-12.9129 7.38415,-19.95729 17.49912,-30.20162 7.84882,-7.94921 10.25019,-9.71583 18.51827,-13.62338 13.61245,-6.43334 21.84301,-8.25472 37,-8.18792 10.01873,0.0442 13.86301,0.49148 19.36648,2.25345 21.62335,6.92285 36.50912,22.33337 42.51787,44.01669 10.67077,38.50674 -10.76992,71.79618 -51.60085,80.117 -9.35305,1.90603 -25.24583,2.61753 -30.7835,1.37815 z m 33.22451,-5.91348 c 4.69437,-1.36038 11.84948,-4.08951 15.90024,-6.06475 6.94552,-3.38678 20.28487,-13.49235 21.09695,-15.98253 0.27246,-0.83549 -10.40207,-1.27764 -39.92491,-1.65375 -29.58858,-0.37694 -43.35273,-0.94818 -51.79679,-2.14966 -18.63319,-2.65125 -22,-2.9284 -22,-1.81099 0,2.05659 9.43524,12.41243 15.38161,16.88239 18.37159,13.81018 38.61112,17.3667 61.3429,10.77929 z M 418.25,590.32704 c -2.3375,-0.24312 -4.25,-0.86616 -4.25,-1.38454 0,-0.54231 5.4137,-0.92959 12.75,-0.91209 8.55285,0.0204 12.2139,0.34357 11.12143,0.98173 -1.95765,1.14356 -13.70187,1.93058 -19.62143,1.3149 z M 369,587.83153 c -1.925,-0.54345 -3.95,-1.45345 -4.5,-2.02221 -0.6817,-0.70495 -0.3634,-0.85731 1,-0.47868 1.1,0.30549 4.14303,0.858 6.7623,1.22779 2.61926,0.36979 5.00832,1.07042 5.30901,1.55696 0.70596,1.14226 -4.08133,0.98372 -8.57131,-0.28386 z m 94.48337,-10.60752 c 11.32093,-3.25965 12.8887,-36.67705 2.67037,-56.91945 -11.18865,-22.1646 -35.6829,-34.53182 -61.93252,-31.26992 -29.70612,3.69142 -54.32142,23.36219 -60.02217,47.96536 -2.9488,12.72637 -2.06337,25.36636 2.39071,34.12882 1.74114,3.42531 2.25156,3.57724 14.50438,4.31728 l 10.40586,0.62849 -4,-2.15629 c -5.86875,-3.16368 -7.52384,-4.86555 -10.13197,-10.4183 -3.21821,-6.85165 -3.13415,-13.5699 0.25488,-20.3708 3.70838,-7.44175 8.76943,-10.6292 16.87709,-10.6292 8.10766,0 13.16871,3.18745 16.87709,10.6292 4.11839,8.26453 3.35643,17.31704 -2.07313,24.63003 C 386.87731,571.02765 380.42341,575 377.53984,575 376.69293,575 376,575.41161 376,575.91468 c 0,0.83725 5.2514,1.49119 20,2.49054 9.76678,0.66179 64.404,-0.29457 67.48337,-1.18121 z m -75.9957,-17.18518 c 1.53494,-4.83616 -5.10404,-8.49268 -7.45249,-4.10457 -1.47319,2.75268 -1.30374,3.79718 0.98774,6.08866 2.32878,2.32878 5.39454,1.38787 6.46475,-1.98409 z M 99.5,841.45871 c 2.75,-1.34611 7.925,-4.01575 11.5,-5.93254 6.33875,-3.39861 6.51643,-3.60341 7.16239,-8.25562 1.19981,-8.64096 0.95498,-22.01271 -0.41239,-22.52373 -2.24214,-0.83794 -15.64423,1.24168 -21.059644,3.26784 -13.569878,5.07715 -24.090744,16.34547 -20.196959,21.63186 1.328589,1.80376 1.459527,1.8031 4.881171,-0.0245 6.631695,-3.54222 9.110681,0.38062 3.125432,4.94579 -4.214244,3.21436 -4.423357,5.56073 -0.752893,8.44791 3.348237,2.63373 8.163951,2.15775 15.752893,-1.557 z M 585,840 c 2.88265,-2.88265 2.47824,-5.11836 -1.50003,-8.29263 -5.83329,-4.65439 -3.56422,-8.67252 2.9242,-5.17827 3.59433,1.93567 6.57583,1.46524 6.57583,-1.03755 0,-2.95023 -3.93633,-9.29342 -7.72098,-12.44195 -5.23232,-4.35289 -14.60024,-8.65006 -21.9892,-10.0867 -9.45062,-1.83748 -9.48698,-1.795 -8.79344,10.27364 1.11039,19.32239 0.70658,18.21985 8.20996,22.41598 C 574.64525,842.32914 581.36119,843.63881 585,840 Z M 124.06821,567.44352 c 4.55578,-13.33599 4.57809,-13.64936 1.1168,-15.68384 -4.53769,-2.66718 -9.0116,-8.31839 -9.76507,-12.33476 -1.40272,-7.47711 4.1331,-17.13222 11.15078,-19.44826 3.7382,-1.23372 9.67233,-0.60871 14.8801,1.56724 1.73499,0.72492 3.60494,1.01161 4.15544,0.63707 0.5505,-0.37453 3.51387,-3.83097 6.58526,-7.68097 3.07139,-3.85 7.20978,-8.55078 9.19641,-10.44617 C 163.37457,502.15844 165,499.99618 165,499.2488 165,496.2923 148.63962,491 139.5,491 c -22.81886,0 -44.685502,18.27116 -49.466943,41.33319 -2.515904,12.1348 2.173714,25.99694 11.761253,34.76531 5.87804,5.37583 17.03202,11.47517 18.42942,10.07777 0.43408,-0.43408 2.16409,-4.81382 3.84448,-9.73275 z m 420.13236,-1.04516 c 6.92284,-3.50807 15.17876,-11.51184 18.26697,-17.70906 3.68672,-7.39829 3.40627,-9.08387 -1.84508,-11.08938 -2.40764,-0.91949 -5.20225,-2.5831 -6.21023,-3.69691 -2.28304,-2.52273 -1.26434,-3.32328 6.4389,-5.06006 2.94313,-0.66356 5.56955,-1.77564 5.83649,-2.47129 0.63181,-1.64647 -2.30602,-11.70333 -4.90965,-16.80688 -1.12107,-2.19747 -3.8361,-6.37657 -6.03341,-9.28688 C 545.37058,486.53766 526.28164,479.4983 509.86315,483.35837 502.52369,485.08392 492,489.69798 492,491.19039 c 0,0.52593 3.45795,4.73455 7.68433,9.35248 l 7.68433,8.39624 6.06567,-0.15538 c 7.52315,-0.19272 11.58269,1.77377 15.31994,7.42113 3.82653,5.78228 3.83245,12.898 0.0153,18.40612 l -2.73041,3.93999 5.11349,15.22451 C 534.49426,563.72455 536.75131,569 537.6663,569 c 0.77009,0 3.7105,-1.17074 6.53425,-2.60164 z"
           id="path859" />
        <path
           style="fill:#000000"
           d="m 315.5,874.00367 c -41.99235,-1.32263 -77.8219,-4.1296 -135,-10.57622 C 103.99685,854.802 77.096119,848.76293 45.493902,833.11934 24.491918,822.72302 9.7940877,810.26535 2.8795197,797 -0.53457691,790.45018 -0.38764128,779.45314 3.2068736,772.5 11.653799,756.16048 30.28317,744.86699 70.5,731.70559 c 9.35,-3.05989 22.936333,-7.0027 30.19185,-8.76179 7.25552,-1.75909 13.37845,-3.70357 13.60652,-4.32107 0.22806,-0.6175 -0.0315,-6.74773 -0.57688,-13.62273 -0.54535,-6.875 -1.03338,-26.9 -1.08451,-44.5 -0.0973,-33.48696 0.78772,-44.41188 5.45582,-67.34914 1.04648,-5.14202 1.66032,-9.74131 1.36408,-10.22064 -0.29624,-0.47932 -4.18009,-2.766 -8.63077,-5.0815 -4.45068,-2.3155 -10.24753,-6.36537 -12.88188,-8.99973 -27.496034,-27.49603 -5.300321,-76.65258 36.75297,-81.39631 8.17695,-0.92239 17.88898,0.92516 27.19363,5.17311 4.06496,1.85581 7.84361,3.37421 8.39701,3.37421 0.5534,0 2.85252,-1.49634 5.10917,-3.32521 11.09695,-8.99336 30.66983,-19.92744 46.29925,-25.86433 8.13665,-3.09073 9.94435,-4.97345 5.41348,-5.63813 -3.71255,-0.54462 -8.70401,-10.97806 -6.36907,-13.313 1.20731,-1.20731 8.27889,1.15653 18.71126,6.25468 8.94466,4.37112 9.5516,4.45583 17.40373,2.42915 6.87317,-1.77401 19.0528,-3.94324 37.64434,-6.70458 22.12181,-3.28568 54.53335,-3.61457 80.5,-0.81685 32.06074,3.4543 30.85932,3.4193 36.78702,1.07193 2.90786,-1.15151 6.39536,-2.09366 7.75,-2.09366 3.0942,0 6.80316,3.59114 6.178,5.98176 -0.73893,2.82566 0.18256,3.44289 10.28498,6.88911 13.8146,4.71255 30.17069,12.95923 40.70137,20.52148 5.06075,3.63421 9.72299,6.60765 10.36053,6.60765 0.63753,0 4.3778,-1.59074 8.31171,-3.53498 10.25835,-5.06996 21.8197,-7.18193 30.84396,-5.63444 8.75523,1.50135 20.17013,6.71885 25.78013,11.78352 5.73798,5.18021 11.40913,12.98761 14.48342,19.93913 2.77713,6.27957 5.28838,18.00998 4.10854,19.19155 -0.41476,0.41537 -3.49427,0.98022 -6.84335,1.25522 -8.21707,0.67472 -8.42321,2.42837 -0.56134,4.77537 6.18921,1.84765 6.30971,1.95031 6.04796,5.15273 -0.78781,9.63862 -11.52009,22.73498 -24.25789,29.60137 -5.6195,3.02923 -7.44065,4.51861 -7.3365,6 0.0762,1.08379 1.3393,7.59553 2.8069,14.47053 5.61855,26.32035 8.40241,53.59491 10.35991,101.5 l 0.69465,17 5.5,0.82834 c 33.32953,5.01966 62.54163,14.24881 83.05358,26.23958 21.2757,12.43725 36.14161,35.08382 34.69886,52.85986 -1.8395,22.66434 -25.87407,42.54422 -67.75244,56.04053 -61.26371,19.7437 -185.25783,31.88167 -291.5,28.53536 z m 102,-16.00273 c 29.984,-1.17407 47.44862,-2.37922 73.66131,-5.08304 24.31039,-2.50759 57.76433,-7.44354 59.03039,-8.7096 0.58954,-0.58954 0.355,-11.19074 -0.62665,-28.32523 C 548.70221,800.82238 547.54172,760.375 546.98619,726 545.97694,663.54995 545.39814,650.93303 542.42166,626.5 538.16723,591.57664 527.07005,549.48997 517.78025,533.0461 506.48169,513.04653 489.82131,494.69585 472.10228,482.73385 458.54589,473.58201 429.41059,461 421.77471,461 c -3.77715,0 -19.4034,6.08319 -28.77471,11.20179 -4.125,2.25308 -14.25,8.24389 -22.5,13.31291 -21.06484,12.94281 -26.30827,15.77285 -28.01216,15.11901 -2.54237,-0.9756 -1.65957,-3.2207 2.92987,-7.4511 5.33255,-4.91537 22.96534,-18.07705 38.33229,-28.61245 6.1875,-4.24208 11.25,-8.12219 11.25,-8.62247 0,-2.22881 -18.6389,-3.97357 -49.5,-4.63362 -28.22159,-0.6036 -39.62499,0.27718 -68.5,5.29079 -17.28993,3.00207 -23,4.35309 -23,5.44186 0,0.4451 6.60756,6.12313 14.68346,12.61784 C 294.35201,495.30742 304.38523,506 298.08659,506 c -2.01595,0 -11.44721,-6.802 -26.81211,-19.3374 -11.6792,-9.52844 -20.38347,-15.70631 -26.85936,-19.06348 l -5.08488,-2.63605 -6.84339,2.11371 c -8.98198,2.77425 -25.1689,9.75228 -34.1961,14.74162 -18.16521,10.03992 -33.36447,23.10443 -45.16628,38.82264 -18.57202,24.7351 -28.98792,52.77139 -34.68426,93.35896 -3.15994,22.51527 -2.89741,69.88383 0.59859,108 2.91987,31.83482 4.26743,56.10025 4.83146,87 l 0.62974,34.5 9.5,1.17975 c 30.89124,3.83619 90.59738,9.11375 128.5,11.35839 47.14162,2.79179 112.64481,3.62127 155,1.9628 z M 337.23425,701.88691 c -2.34617,-1.16132 -5.11093,-3.18597 -6.14392,-4.49921 -2.19251,-2.78732 -3.35758,-2.97554 -5.13816,-0.83006 -0.711,0.8567 -3.25552,2.7079 -5.65449,4.11379 l -4.36176,2.55617 -3.77171,-2.6138 C 310.08977,699.17621 307.50431,698 306.41876,698 c -6.10432,0 -10.39709,-9.31368 -11.17703,-24.24991 l -0.50912,-9.74992 -3.76425,-1.1278 c -7.72148,-2.31341 -13.33382,-10.64374 -13.39721,-19.88531 -0.071,-10.34795 8.78305,-22.9927 18.26314,-26.08224 4.08353,-1.33081 5.12788,-2.43774 5.1504,-5.45904 0.008,-1.12982 1.29028,-4.06463 2.84857,-6.5218 8.85195,-13.95808 37.79734,-16.8579 50.50602,-5.05982 3.64342,3.38237 5.66072,7.27789 5.66072,10.93119 0,3.21688 1.36342,4.64792 8.07403,8.47448 10.86319,6.19446 19.95779,17.6982 19.90401,25.17651 -0.0525,7.30328 -7.72096,16.99359 -15.4723,19.55177 -2.13631,0.70504 -5.63052,0.9825 -8.10387,0.64349 l -4.34819,-0.59598 0.15509,14.87506 c 0.18095,17.35627 -0.20924,18.4057 -8.35232,22.46356 -6.35504,3.16685 -9.05258,3.25959 -14.6222,0.50267 z m 12.62249,-3.81382 c 6.52116,-3.32685 6.66851,-3.78033 6.41748,-19.75023 -0.12418,-7.90011 -0.67142,-15.19651 -1.21608,-16.21422 -1.16449,-2.17588 -16.49094,-7.46572 -20.13765,-6.95041 -2.1439,0.30296 -2.50794,1.02316 -3.20558,6.34177 -0.43286,3.3 -0.6583,11.4667 -0.50097,18.14821 0.31215,13.256 0.79516,14.48184 7.28606,18.49123 3.82207,2.36087 6.63115,2.34446 11.35674,-0.0664 z m -27.43779,-3.99008 3.82484,-3.917 0.43197,-17.083 c 0.51106,-20.21097 1.97113,-18.91462 -15.24892,-13.53901 -11.34206,3.54067 -11.35335,3.54736 -12.02268,7.11517 -1.0233,5.45469 0.38296,16.97521 2.74127,22.45725 1.59104,3.69848 2.75911,5.04541 4.73343,5.45824 1.44163,0.30145 3.74614,1.18349 5.12114,1.9601 4.01446,2.2674 6.34673,1.71857 10.41895,-2.45175 z m 52.31479,-34.76095 C 379.51747,657.05203 384,649.88189 384,644.5 c 0,-6.98925 -5.99852,-14.73287 -16.9772,-21.91625 -6.48985,-4.24633 -8.50882,-4.41406 -13.02511,-1.08204 -7.00362,5.16711 -13.4691,6.85832 -26.49769,6.93118 -11.02404,0.0616 -12.46865,-0.15251 -17.76232,-2.63321 -3.16928,-1.48517 -6.01657,-3.36288 -6.32732,-4.17268 -0.90888,-2.36852 -3.26091,-2.71609 -7.21626,-1.06638 -8.17046,3.40775 -15.16525,13.71438 -15.18433,22.37366 -0.0131,5.9225 3.2857,12.46718 7.64045,15.15856 4.64679,2.87187 12.43484,2.25341 25.34978,-2.01306 5.225,-1.72609 12.425,-3.3938 16,-3.70601 6.65373,-0.58109 10.84694,0.42678 27,6.4897 6.72401,2.5238 13.03757,2.68707 17.73374,0.45859 z M 218.5,617.63765 c -11.05968,-3.06002 -19.75028,-7.96299 -27.99346,-15.79302 -8.03106,-7.62854 -12.53525,-14.55508 -16.26333,-25.00971 -2.32613,-6.52315 -2.61685,-8.82899 -2.62692,-20.83492 -0.0101,-12.09921 0.25538,-14.19952 2.55901,-20.24155 3.96302,-10.39432 8.62546,-17.31585 16.96649,-25.18723 13.52114,-12.75982 30.07565,-18.77197 51.85821,-18.83349 20.49192,-0.0579 35.76923,5.9307 49.02724,19.21825 12.08198,12.10891 17.19228,25.30566 17.24918,44.54402 0.0541,18.29692 -4.77673,30.0057 -17.76224,43.05122 -6.64666,6.67739 -9.6868,8.86816 -17.81633,12.83873 -17.49757,8.54606 -38.35749,10.90714 -55.19785,6.2477 z m 38,-3.11993 c 9.49158,-2.40751 21.7159,-9.06428 29.14301,-15.86988 C 294.77694,590.27826 303.56207,578 300.41661,578 c -0.32086,0 -4.03336,0.87874 -8.25,1.95275 -24.31988,6.19447 -71.28685,12.02885 -96.94799,12.04318 -5.65341,0.003 -7.41445,0.35082 -7.87652,1.55495 -1.26658,3.30065 10.36878,12.06062 23.00855,17.32257 14.42729,6.0061 31.51728,7.35564 46.14935,3.64427 z M 196.08333,597.6368 c 0.22917,-0.19977 8.96667,-0.65432 19.41667,-1.01012 12.72536,-0.43328 18.50463,-0.31839 17.5,0.34789 -1.35153,0.89634 -37.93816,1.55265 -36.91667,0.66223 z m 47.50736,-1.49006 c -0.90621,-1.46628 4.1298,-2.94303 15.68958,-4.60078 C 265.20942,590.69568 270.57192,590 271.19694,590 c 2.77738,0 -0.58398,1.16547 -9.77445,3.38905 -13.49192,3.26429 -17.1674,3.8327 -17.8318,2.75769 z M 217,586.967 c 25.75363,-1.7996 81.20118,-9.6192 85.04255,-11.9933 1.70451,-1.05344 3.92386,-11.5458 3.94183,-18.63573 0.0876,-34.53456 -23.91242,-59.39054 -58.98438,-61.08818 -23.40456,-1.1329 -42.66586,6.08613 -56.93358,21.33836 -6.58129,7.03543 -10.91476,14.64246 -13.59661,23.86771 -2.56985,8.83998 -1.66204,27.64545 1.77894,36.8511 3.85649,10.31727 4.39217,10.69485 15.15624,10.68315 5.00225,-0.005 15.62001,-0.46584 23.59501,-1.02311 z m -17.5,-8.84773 c -4.9483,-2.27227 -6.82655,-4.3426 -9.57347,-10.55246 -4.01674,-9.08051 -1.10686,-20.34022 6.67835,-25.84168 7.67691,-5.42493 16.09708,-4.88458 22.99731,1.47583 16.89768,15.57573 0.35443,44.31202 -20.10219,34.91831 z m 21.304,-13.85732 C 221.11354,561.19604 218.97791,558 216.6197,558 c -4.76095,0 -6.54825,7.01994 -2.60106,10.21617 1.98643,1.60852 2.53065,1.66412 4.375,0.44695 1.19272,-0.78714 2.23822,-2.69615 2.41036,-4.40117 z M 392.5,612.32038 C 369.85767,607.2528 353.01604,594.71559 344.38137,576.5 c -6.66255,-14.05522 -7.97341,-25.95525 -4.39876,-39.93199 3.30256,-12.9129 7.38415,-19.95729 17.49912,-30.20162 7.84882,-7.94921 10.25019,-9.71583 18.51827,-13.62338 13.61245,-6.43334 21.84301,-8.25472 37,-8.18792 10.01873,0.0442 13.86301,0.49148 19.36648,2.25345 21.62335,6.92285 36.50912,22.33337 42.51787,44.01669 10.67077,38.50674 -10.76992,71.79618 -51.60085,80.117 -9.35305,1.90603 -25.24583,2.61753 -30.7835,1.37815 z m 33.22451,-5.91348 c 4.69437,-1.36038 11.84948,-4.08951 15.90024,-6.06475 6.94552,-3.38678 20.28487,-13.49235 21.09695,-15.98253 0.27246,-0.83549 -10.40207,-1.27764 -39.92491,-1.65375 -29.58858,-0.37694 -43.35273,-0.94818 -51.79679,-2.14966 -18.63319,-2.65125 -22,-2.9284 -22,-1.81099 0,2.05659 9.43524,12.41243 15.38161,16.88239 18.37159,13.81018 38.61112,17.3667 61.3429,10.77929 z M 418.25,590.32704 c -2.3375,-0.24312 -4.25,-0.86616 -4.25,-1.38454 0,-0.54231 5.4137,-0.92959 12.75,-0.91209 8.55285,0.0204 12.2139,0.34357 11.12143,0.98173 -1.95765,1.14356 -13.70187,1.93058 -19.62143,1.3149 z M 369,587.83153 c -1.925,-0.54345 -3.95,-1.45345 -4.5,-2.02221 -0.6817,-0.70495 -0.3634,-0.85731 1,-0.47868 1.1,0.30549 4.14303,0.858 6.7623,1.22779 2.61926,0.36979 5.00832,1.07042 5.30901,1.55696 0.70596,1.14226 -4.08133,0.98372 -8.57131,-0.28386 z m 97.85257,-11.19773 c 1.13394,-1.02641 3.09349,-4.85141 4.35457,-8.5 C 473.08013,562.71478 473.5,559.39413 473.5,550 c 0,-10.01308 -0.37844,-12.65471 -2.92687,-20.43067 -10.53333,-32.14 -41.79919,-48.04237 -76.9336,-39.1298 C 362.4416,498.35353 342,522.31198 342,550.96328 c 0,7.43522 2.74965,19.82522 5.002,22.53913 2.56842,3.09476 38.2985,5.3712 81.14344,5.16982 34.22896,-0.16087 36.78138,-0.29529 38.70713,-2.03843 z M 368.5,573.52098 C 359.66423,570.34565 353.62205,558.60702 355.96176,549.16197 358.4644,539.05917 365.41444,533 374.5,533 c 17.03624,0 25.25855,22.45548 13.12504,35.84501 -4.58522,5.05987 -12.60242,7.02003 -19.12504,4.67597 z M 386.8,562.8 c 0.66,-0.66 1.2,-2.595 1.2,-4.3 0,-3.6119 -1.54481,-5.5 -4.5,-5.5 -2.95519,0 -4.5,1.8881 -4.5,5.5 0,3.6119 1.54481,5.5 4.5,5.5 1.155,0 2.64,-0.54 3.3,-1.2 z M 99,843.18249 c 7.31684,-3.49069 17.38645,-9.20624 19,-10.78448 1.14715,-1.12204 1.58164,-4.62451 1.84707,-14.88918 l 0.34707,-13.422 -2.46676,-0.61912 c -4.12169,-1.03448 -19.558365,2.1731 -26.136577,5.4309 -8.260693,4.09103 -12.6629,7.95328 -15.468727,13.57141 -1.927185,3.85881 -2.157073,5.15775 -1.260921,7.12459 1.276978,2.80266 4.134643,3.10947 7.630052,0.81919 2.579288,-1.69001 4.741465,-1.18371 3.933758,0.92114 -0.268228,0.69899 -1.823575,2.06002 -3.456326,3.02451 -3.75924,2.22064 -3.910361,5.78974 -0.394033,9.30607 2.215424,2.21542 3.226868,2.51107 7.25,2.11921 C 92.396073,845.53426 96.525,844.36325 99,843.18249 Z m 485.4552,-0.80367 c 1.62938,-0.62526 4.5448,-5.34842 4.5448,-7.36289 0,-0.59586 -1.575,-2.01265 -3.5,-3.14843 -2.04861,-1.20871 -3.5,-2.85346 -3.5,-3.96628 0,-2.36028 0.1129,-2.35717 4.30917,0.11869 10.07517,5.94449 9.74984,-7.81603 -0.3772,-15.95434 -7.81311,-6.27879 -22.01836,-11.57081 -29.19871,-10.87768 L 553.5,801.5 553.76145,815 c 0.14379,7.425 0.46779,14.42452 0.71998,15.55449 0.46946,2.10344 12.67405,9.77099 18.1821,11.42291 3.45763,1.03699 9.59127,1.24579 11.79167,0.40142 z M 21.032042,792.11172 c -0.492547,-1.71741 -1.210747,-6.73603 -1.595999,-11.15248 -0.671949,-7.70308 -0.775022,-7.96244 -2.532313,-6.37212 -1.007519,0.9118 -2.582144,3.62242 -3.499167,6.02361 -2.205681,5.77549 -1.430326,12.24085 2.109451,17.58981 l 2.755562,4.16394 1.829003,-3.5651 c 1.395,-2.71913 1.616501,-4.30604 0.933463,-6.68766 z m 637.464798,0.58695 c 2.00728,-6.75923 1.89449,-11.23096 -0.4753,-18.84333 C 653.10281,758.05507 635.21457,742.1703 612,732.98817 c -7.00282,-2.76984 -35.1724,-9.99966 -36.28428,-9.31248 -0.4615,0.28523 -1.26264,1.63262 -1.78032,2.99421 -1.29105,3.39573 -4.13101,2.63043 -5.2946,-1.42677 C 567.93061,722.76684 567.15376,722 565.35534,722 c -1.98784,0 -2.35747,0.50709 -2.36899,3.25 -0.0237,5.63139 -1.02595,7.88664 -3.35649,7.55247 -1.16018,-0.16636 -2.19793,-0.97747 -2.30609,-1.80247 -0.10817,-0.825 -0.47784,-3.6375 -0.82149,-6.25 -0.41779,-3.17612 -1.10154,-4.75 -2.06355,-4.75 -1.19522,0 -1.43873,2.87733 -1.43873,17 0,9.35 0.27975,17 0.62166,17 2.5322,0 23.40018,3.50074 29.87834,5.01228 11.07348,2.58377 27.73828,8.49117 35.46728,12.57258 3.557,1.87833 6.76977,3.41514 7.13949,3.41514 0.36972,0 0.97906,-5.5125 1.35409,-12.25 0.83351,-14.97444 1.07817,-15.95673 3.87503,-15.5583 2.11094,0.30073 2.17083,0.73214 2.43772,17.5583 0.16446,10.36838 0.66313,17.25 1.25,17.25 0.53702,0 0.97639,-0.19244 0.97639,-0.42764 0,-2.76241 2.39935,-16.45004 3.11944,-17.79554 1.29185,-2.41384 3.59864,-2.24043 4.41507,0.3319 0.3681,1.15979 0.53077,7.34729 0.36149,13.75 -0.45739,17.30005 1.54363,21.21042 4.67525,9.13631 2.21746,-8.5495 2.74926,-9.46975 4.97818,-8.61443 1.57453,0.6042 1.68586,1.74127 1.10306,11.26639 -0.57104,9.33289 -0.47025,10.44665 0.84649,9.35386 0.82209,-0.68228 2.17113,-3.51825 2.99786,-6.30218 z M 33.191259,773.74625 c 0.169808,-6.73544 0.223619,-12.40637 0.11958,-12.60208 -0.104038,-0.1957 -2.246516,1.12166 -4.761062,2.92747 -3.171805,2.27781 -4.409567,3.79476 -4.041809,4.95347 0.291552,0.91859 1.197468,5.15822 2.013148,9.4214 1.785953,9.33433 2.05617,9.85009 4.480832,8.55245 1.655291,-0.88589 1.917555,-2.47347 2.189311,-13.25271 z m 11.215952,6.11407 c 2.172709,-0.98995 2.540169,-1.87672 2.797053,-6.75 0.249417,-4.73161 0.591913,-5.61032 2.18675,-5.61032 1.985018,0 2.992839,1.2541 4.552505,5.66497 l 0.94232,2.66496 7.307081,-1.91053 c 9.49321,-2.48213 31.685957,-6.50896 44.07583,-7.99746 5.37282,-0.64548 9.92696,-1.45448 10.12033,-1.79777 0.68836,-1.22209 -2.09601,-30.23062 -2.98441,-31.09257 -0.49757,-0.48276 -2.14699,-0.63398 -3.66539,-0.33605 -1.95894,0.38438 -2.92708,1.30592 -3.33352,3.17308 -0.31504,1.44725 -0.7461,3.19387 -0.9579,3.88137 -0.65557,2.12796 -3.43229,1.37828 -4.62981,-1.25 -0.6265,-1.375 -1.946434,-2.5 -2.9332,-2.5 -3.371123,0 -35.671925,11.01403 -47.038921,16.03948 -11.827276,5.22894 -17.831191,8.89679 -14.631113,8.93828 C 38.831672,761.0117 40,764.21394 40,771.35247 40,777.19275 40.615606,781 41.559936,781 c 0.190277,0 1.471551,-0.51285 2.847275,-1.13968 z m 79.660999,-212.4168 c 4.55578,-13.33599 4.57809,-13.64936 1.1168,-15.68384 -4.53769,-2.66718 -9.0116,-8.31839 -9.76507,-12.33476 -1.40272,-7.47711 4.1331,-17.13222 11.15078,-19.44826 3.7382,-1.23372 9.67233,-0.60871 14.8801,1.56724 1.73499,0.72492 3.60494,1.01161 4.15544,0.63707 0.5505,-0.37453 3.51387,-3.83097 6.58526,-7.68097 3.07139,-3.85 7.20978,-8.55078 9.19641,-10.44617 C 163.37457,502.15844 165,499.99618 165,499.2488 165,496.2923 148.63962,491 139.5,491 c -22.81886,0 -44.685502,18.27116 -49.466943,41.33319 -2.515904,12.1348 2.173714,25.99694 11.761253,34.76531 5.87804,5.37583 17.03202,11.47517 18.42942,10.07777 0.43408,-0.43408 2.16409,-4.81382 3.84448,-9.73275 z m 420.13236,-1.04516 c 6.92284,-3.50807 15.17876,-11.51184 18.26697,-17.70906 3.68672,-7.39829 3.40627,-9.08387 -1.84508,-11.08938 -2.40764,-0.91949 -5.20225,-2.5831 -6.21023,-3.69691 -2.28304,-2.52273 -1.26434,-3.32328 6.4389,-5.06006 2.94313,-0.66356 5.56955,-1.77564 5.83649,-2.47129 0.63181,-1.64647 -2.30602,-11.70333 -4.90965,-16.80688 -1.12107,-2.19747 -3.8361,-6.37657 -6.03341,-9.28688 C 545.37058,486.53766 526.28164,479.4983 509.86315,483.35837 502.52369,485.08392 492,489.69798 492,491.19039 c 0,0.52593 3.45795,4.73455 7.68433,9.35248 l 7.68433,8.39624 6.06567,-0.15538 c 7.52315,-0.19272 11.58269,1.77377 15.31994,7.42113 3.82653,5.78228 3.83245,12.898 0.0153,18.40612 l -2.73041,3.93999 5.11349,15.22451 C 534.49426,563.72455 536.75131,569 537.6663,569 c 0.77009,0 3.7105,-1.17074 6.53425,-2.60164 z"
           id="path857" />
        <path
           style="fill:#57492e"
           d="m 299,873.39427 c -3.025,-0.1894 -13.375,-0.8226 -23,-1.4071 -58.6625,-3.56243 -145.09531,-13.62846 -179.5,-20.90471 -41.913762,-8.86435 -81.953753,-31.71647 -93.1020972,-53.1364 -4.09241423,-7.86299 -4.08742048,-17.39774 0.013109,-25.02873 4.2782855,-7.9618 7.9299192,-12.2518 14.8807422,-17.48216 13.703848,-10.31189 48.769836,-24.158 80.694157,-31.86281 7.859899,-1.89695 14.669599,-3.82787 15.132669,-4.29094 0.46306,-0.46306 0.40843,-6.90331 -0.1214,-14.31167 C 111.00789,663.17179 111.86443,629.67969 116.61779,602.5 120.36998,581.04495 120.8391,583.2686 111.5,578.24148 101.41301,572.81178 93.839489,565.43417 89.694465,557 c -3.03888,-6.18342 -3.192997,-7.0601 -3.164315,-18 0.02817,-10.74278 0.234771,-11.93726 3.137749,-18.14075 10.880411,-23.25078 33.828181,-36.53414 56.780491,-32.86749 6.70166,1.07059 19.09093,5.45383 20.11954,7.11815 1.25072,2.0237 5.06893,0.59066 11.79974,-4.42865 12.30114,-9.17323 28.75766,-18.14127 44.40945,-24.20108 7.0218,-2.71858 8.64862,-4.59005 4.64001,-5.33779 -2.9442,-0.54919 -4.16501,-1.91535 -5.99614,-6.71009 -1.33855,-3.50495 -1.43394,-4.71177 -0.46476,-5.87957 1.06279,-1.28057 2.01136,-1.17093 7.38164,0.85327 3.38917,1.27746 9.22463,3.81746 12.96768,5.64443 6.51257,3.17877 7.02916,3.27216 12,2.16937 8.30587,-1.84267 32.68695,-6.08848 44.9301,-7.82429 19.42248,-2.75368 50.88638,-2.92009 75.26435,-0.39805 33.16778,3.43138 32.2863,3.40693 38.90655,1.07927 3.2486,-1.1422 6.66636,-2.07673 7.59501,-2.07673 2.41823,0 5.49844,3.78522 5.49844,6.75695 0,2.2887 0.87468,2.84596 9,5.73394 18.96977,6.7424 27.039,10.72495 40.36872,19.9239 13.59085,9.37915 11.34049,8.78984 18.94151,4.96027 17.68599,-8.91061 33.61802,-9.12438 49.51429,-0.66437 12.01453,6.39414 23.53395,22.43862 26.63903,37.10336 1.15588,5.45901 1.13749,6.51348 -0.13577,7.78674 -0.83534,0.83534 -2.21143,1.18922 -3.17963,0.81769 -1.59889,-0.61355 -1.59576,-0.7363 0.0494,-1.93924 1.5706,-1.14845 1.63229,-1.87532 0.58353,-6.87531 -4.74995,-22.64554 -25.89473,-40.63473 -47.71253,-40.59206 -11.29284,0.0221 -28.6132,6.35088 -28.52244,10.422 0.0261,1.1721 3.51832,5.72952 8.07059,10.53237 l 8.02452,8.46623 6.82361,-0.27858 c 6.39443,-0.26106 7.04633,-0.083 10.36451,2.83037 4.23428,3.71775 7.20123,10.73004 6.22914,14.72237 -0.37409,1.53635 -1.83748,4.56144 -3.25197,6.72241 l -2.5718,3.92904 5.29394,15.91423 c 2.91167,8.75283 5.85274,16.12866 6.53572,16.39075 1.65325,0.63441 8.7316,-2.98947 15.04797,-7.70405 5.83732,-4.35702 11.26706,-11.40989 13.81026,-17.93859 l 1.74497,-4.47957 -2.78269,-2.39357 -2.78269,-2.39358 3.44893,0.7285 c 4.74482,1.00223 5.06546,1.51042 3.81586,6.04791 -2.99286,10.86759 -10.74411,20.30127 -21.74915,26.46989 -11.28564,6.3259 -10.61076,4.45557 -7.21671,20 5.91822,27.10481 9.27675,58.77015 10.60635,100 0.34587,10.725 0.94175,19.82107 1.3242,20.21349 0.38245,0.39242 5.41429,1.41745 11.18187,2.27785 39.58559,5.90532 76.57457,21.02474 94.0663,38.45006 6.57069,6.54574 10.09415,11.87729 14.21557,21.51038 2.52828,5.90942 3.02754,8.42159 3.09,15.54822 0.067,7.63873 -0.25406,9.17114 -3.16804,15.12354 -6.42853,13.13155 -17.27983,22.45179 -37.71732,32.3956 -26.45596,12.87209 -56.36377,20.62657 -107.5,27.87255 -60.27125,8.54041 -92.81732,10.73826 -164,11.07496 -31.625,0.14959 -59.975,0.11702 -63,-0.0724 z m 144.5,-15.33273 c 39.52589,-2.23866 104.94577,-10.10731 107.80518,-12.96672 0.67854,-0.67854 0.62495,-6.99889 -0.16365,-19.30186 C 550.49662,815.73183 549.533,781.175 549.00015,749 c -1.7304,-104.48665 -3.8287,-129.21281 -14.5542,-171.50525 -9.74433,-38.42346 -19.16808,-56.31501 -41.38615,-78.57399 -12.26301,-12.2856 -24.6346,-20.97543 -40.53167,-28.46953 -9.7861,-4.61331 -23.34911,-9.617 -29.02813,-10.7091 -4.93583,-0.94918 -26.83339,8.52703 -44,19.0411 -33.40323,20.45853 -35.97736,21.87144 -36.95743,20.28565 -1.25225,-2.02618 16.83241,-16.55672 41.70743,-33.51081 7.0125,-4.77951 12.75,-9.31495 12.75,-10.07874 0,-2.87713 -16.71235,-4.56756 -51,-5.15859 -33.08525,-0.5703 -44.02313,0.32804 -76,6.24196 -13.91816,2.57408 -18,3.76624 -18,5.25716 0,0.4745 7.3125,6.71983 16.25,13.87851 C 292.4711,495.09878 302.40347,505 297.6438,505 c -1.58604,0 -5.79148,-3.14139 -26.1651,-19.54482 -14.11584,-11.36512 -26.13689,-19.42493 -31.19495,-20.91544 -2.98639,-0.88004 -17.85682,4.2338 -32.28375,11.10214 -36.30357,17.28333 -61.4855,43.76151 -76.44488,80.37992 -6.89829,16.88602 -13.45492,46.03533 -15.51545,68.9782 -1.96528,21.88221 -1.07757,66.83215 1.95512,99 2.99397,31.75705 5.10557,73.05518 4.87056,95.25694 -0.1475,13.93477 0.13843,24.12987 0.69159,24.65893 0.51868,0.4961 11.51806,2.07035 24.44306,3.49833 53.07061,5.86337 101.52603,9.5437 152.28129,11.56622 26.33811,1.04953 118.95603,0.4553 143.21871,-0.91888 z M 339,701.40991 c -1.925,-0.8315 -5.15891,-3.12729 -7.18647,-5.10177 l -3.68647,-3.58996 -4.70432,4.14091 c -2.58737,2.2775 -5.42846,4.13903 -6.31353,4.13672 -0.88507,-0.002 -3.82298,-1.1273 -6.52869,-2.5 C 307.87481,697.12312 304.91335,696 303.9995,696 c -3.56204,0 -7.20706,-11.04275 -7.44076,-22.54214 -0.10108,-4.97317 -0.48817,-9.53466 -0.86021,-10.13663 -0.37204,-0.60198 -2.20161,-1.38063 -4.0657,-1.73033 -6.88211,-1.2911 -12.57081,-9.92711 -12.61087,-19.14456 -0.0424,-9.74965 9.04994,-22.04225 18.10774,-24.48126 3.00814,-0.81001 3.97399,-1.63034 4.41629,-3.75092 2.90543,-13.93008 14.25968,-20.85694 32.84849,-20.03983 14.91609,0.65568 22.9565,6.09034 24.43773,16.51791 0.6256,4.40404 1.09135,5.05968 5.54654,7.80776 8.38365,5.17127 15.00097,10.89911 18.37125,15.90184 6.0506,8.9813 3.73851,19.33704 -5.73835,25.70177 -4.42949,2.97488 -4.99451,3.11273 -13.49233,3.29157 l -4.98069,0.10482 0.32902,14.77546 c 0.38204,17.15694 7e-5,18.23767 -7.85239,22.21681 -5.69218,2.88444 -7.19601,2.99929 -12.01526,0.91764 z m 12.86424,-4.14635 c 4.84565,-3.59661 5.31409,-5.59479 4.70521,-20.07021 -0.30784,-7.31866 -0.99238,-14.11508 -1.52118,-15.10316 -0.55596,-1.03882 -4.33912,-2.91284 -8.96996,-4.44335 -8.48209,-2.80337 -12.56037,-3.29391 -13.58614,-1.63417 -1.04831,1.6962 -2.15557,24.4603 -1.48576,30.5456 0.55878,5.07652 1.10344,6.15412 4.90096,9.69641 3.96687,3.70025 4.59579,3.94871 8.79671,3.47521 2.48842,-0.28048 5.71049,-1.39033 7.16016,-2.46633 z m -31.71543,-0.86669 c 6.40577,-4.4392 6.70684,-5.42799 6.85479,-22.51277 0.0733,-8.46126 0.10244,-15.9466 0.0648,-16.6341 -0.10888,-1.98953 -3.5114,-1.49269 -15.5813,2.27519 -6.79874,2.12237 -11.53016,4.14462 -11.88979,5.08179 -1.12558,2.93321 -0.5975,13.97211 0.95354,19.93292 1.94057,7.45777 3.86762,10.45824 6.72219,10.46669 1.22482,0.004 3.57695,0.90066 5.22695,1.99341 1.65,1.09275 3.20081,1.98979 3.44625,1.99341 0.24544,0.004 2.13659,-1.16482 4.20256,-2.59654 z m 54.58493,-37.07481 C 379.51747,657.05203 384,649.88189 384,644.5 c 0,-6.98925 -5.99852,-14.73287 -16.9772,-21.91625 -6.48985,-4.24633 -8.50882,-4.41406 -13.02511,-1.08204 -7.00362,5.16711 -13.4691,6.85832 -26.49769,6.93118 -11.02404,0.0616 -12.46865,-0.15251 -17.76232,-2.63321 -3.16928,-1.48517 -6.01657,-3.36288 -6.32732,-4.17268 -0.90888,-2.36852 -3.26091,-2.71609 -7.21626,-1.06638 -8.17046,3.40775 -15.16525,13.71438 -15.18433,22.37366 -0.0131,5.9225 3.2857,12.46718 7.64045,15.15856 4.64679,2.87187 12.43484,2.25341 25.34978,-2.01306 5.225,-1.72609 12.425,-3.3938 16,-3.70601 6.65373,-0.58109 10.84694,0.42678 27,6.4897 6.72401,2.5238 13.03757,2.68707 17.73374,0.45859 z M 225.26903,617.30701 c 0.97297,-0.25354 2.32297,-0.23687 3,0.0371 0.67703,0.27393 -0.11903,0.48137 -1.76903,0.46099 -1.65,-0.0204 -2.20394,-0.2445 -1.23097,-0.49804 z m -9.8234,-1.78575 C 210.88485,614.08025 203,610.23035 203,609.44449 c 0,-0.28317 1.0125,0.0376 2.25,0.71278 1.2375,0.6752 5.85,2.46908 10.25,3.9864 7.8822,2.71814 7.8367,3.87083 -0.0544,1.37759 z M 276.5,607.24622 c 8.64192,-5.69831 14.75036,-11.42033 20.62431,-19.3196 2.83288,-3.80964 5.3426,-6.92662 5.57717,-6.92662 0.23457,0 -0.6148,1.89545 -1.8875,4.21212 -3.33412,6.06907 -14.74033,17.75813 -20.96935,21.48934 -7.8982,4.73107 -10.2824,5.11939 -3.34463,0.54476 z M 428,607.1478 c 10.89744,-3.55865 20.83762,-8.80254 29.01483,-15.30664 l 6.48517,-5.15826 -4,4.25082 c -7.56586,8.04026 -19.69009,14.95489 -30.82695,17.58106 -9.67411,2.28124 -9.97478,1.67057 -0.67305,-1.36698 z m -57.27582,-4.40972 c -6.80801,-3.81675 -14.65967,-10.40679 -17.84768,-14.97987 -1.39344,-1.99885 0.64877,-0.50935 5.28359,3.85359 4.15523,3.91149 10.43157,8.74205 13.94743,10.73458 3.51587,1.99253 5.94248,3.62435 5.39248,3.62628 -0.55,0.002 -3.59912,-1.45364 -6.77582,-3.23458 z M 180.2302,587.25 c -5.43183,-10.24556 -7.68001,-19.45091 -7.63205,-31.25 0.0875,-21.52827 9.41289,-39.1743 26.87435,-50.85324 11.56715,-7.73658 23.51352,-11.28203 40.0275,-11.87939 15.85936,-0.57367 22.99655,0.85776 36.18523,7.25728 21.07937,10.2283 32.24689,29.16894 32.29741,54.77794 0.0168,8.53516 -2.30354,22.15967 -3.94698,23.17537 -0.44497,0.27501 -1.35472,-0.15748 -2.02166,-0.96109 -0.96246,-1.1597 -0.90043,-1.7733 0.30071,-2.97443 3.94949,-3.9495 4.8629,-22.6181 1.70985,-34.94643 -5.82657,-22.78166 -22.87697,-38.627 -46.82378,-43.51446 -11.39456,-2.32559 -31.538,-0.65256 -42.70078,3.54654 -7.39133,2.78039 -17.22433,9.41491 -23.22015,15.66707 -12.08818,12.60502 -16.46616,23.14306 -16.49517,39.70484 -0.0203,11.59311 1.77025,20.21479 5.88436,28.33359 l 2.52173,4.97639 19.15461,-0.64688 c 22.36088,-0.75516 40.76884,-2.58412 67.15462,-6.67229 10.45,-1.6191 20.8,-3.18856 23,-3.48769 l 4,-0.54386 -4.5,1.51031 c -14.50678,4.86885 -50.5807,9.96364 -82.14305,11.60124 -11.74632,0.60945 -22.13834,1.51784 -23.09338,2.01864 -2.872,1.50602 -3.36143,1.14348 -6.53337,-4.83945 z m 283.978,-4.4418 c -0.77811,-0.77811 -10.80891,-1.05488 -33.41008,-0.92186 -32.69482,0.19244 -53.46519,-1.06277 -70.79812,-4.2785 -9.97832,-1.85126 -6.20088,-1.8945 16.00995,-0.18329 29.52605,2.27482 49.09765,2.72504 69.91634,1.60835 22.11435,-1.18618 21.72966,-1.03517 25.26747,-9.91892 1.90253,-4.77742 2.24094,-7.55115 2.27096,-18.61398 0.0389,-14.33919 -1.50928,-20.85774 -7.83765,-32.99985 -6.56132,-12.58907 -21.60077,-23.71948 -37.84131,-28.00563 -8.51046,-2.24605 -26.93603,-1.58027 -36.78576,1.3292 -23.94673,7.07353 -41.89263,24.41605 -47.41482,45.82062 -3.13995,12.17079 -0.92567,33.33841 3.90698,37.34916 1.63437,1.3564 1.132,3.0065 -0.91532,3.0065 -1.47022,0 -3.66923,-5.37737 -6.13406,-15 -4.46336,-17.4249 3.18367,-41.08177 17.8457,-55.20743 14.70914,-14.17106 32.5193,-21.18869 53.71152,-21.16366 13.88741,0.0164 21.20948,1.74919 32.30917,7.64604 17.95645,9.53959 28.43932,25.97735 31.68526,49.68439 1.62669,11.88066 -0.30339,22.76677 -6.05747,34.16553 -3.2373,6.41307 -4.12167,7.29042 -5.72876,5.68333 z m -265.30092,-5.13584 c -5.8769,-3.1038 -10.09448,-9.88462 -10.70159,-17.20551 -1.16178,-14.00958 11.85602,-25.57186 24.20312,-21.49694 13.47434,4.44693 18.54224,22.35475 9.44851,33.38702 -6.21893,7.54464 -14.91538,9.55881 -22.95004,5.31543 z m 20.26398,-9.32735 c 2.79982,-2.5338 2.4433,-8.10788 -0.60749,-9.49791 -1.33993,-0.61051 -3.14668,-0.83739 -4.01501,-0.50419 -2.42923,0.93219 -3.7663,5.37529 -2.3992,7.97256 2.0953,3.98075 4.19503,4.58765 7.0217,2.02954 z m 146.94902,3.99991 c -7.35199,-3.74237 -11.97713,-14.54189 -10.0117,-23.3769 3.06073,-13.75865 16.84651,-20.18745 28.05153,-13.08144 11.42433,7.2451 12.04231,26.51808 1.11748,34.85086 -4.53375,3.45806 -13.96682,4.24958 -19.15731,1.60748 z M 386.8,562.8 c 0.66,-0.66 1.2,-2.595 1.2,-4.3 0,-3.6119 -1.54481,-5.5 -4.5,-5.5 -2.95519,0 -4.5,1.8881 -4.5,5.5 0,3.6119 1.54481,5.5 4.5,5.5 1.155,0 2.64,-0.54 3.3,-1.2 z M 99,843.18249 c 7.31684,-3.49069 17.38645,-9.20624 19,-10.78448 1.14715,-1.12204 1.58164,-4.62451 1.84707,-14.88918 l 0.34707,-13.422 -2.46676,-0.61912 c -4.12169,-1.03448 -19.558365,2.1731 -26.136577,5.4309 -8.260693,4.09103 -12.6629,7.95328 -15.468727,13.57141 -1.927185,3.85881 -2.157073,5.15775 -1.260921,7.12459 1.276978,2.80266 4.134643,3.10947 7.630052,0.81919 2.579288,-1.69001 4.741465,-1.18371 3.933758,0.92114 -0.268228,0.69899 -1.823575,2.06002 -3.456326,3.02451 -3.75924,2.22064 -3.910361,5.78974 -0.394033,9.30607 2.215424,2.21542 3.226868,2.51107 7.25,2.11921 C 92.396073,845.53426 96.525,844.36325 99,843.18249 Z m 485.4552,-0.80367 c 1.62938,-0.62526 4.5448,-5.34842 4.5448,-7.36289 0,-0.59586 -1.575,-2.01265 -3.5,-3.14843 -2.04861,-1.20871 -3.5,-2.85346 -3.5,-3.96628 0,-2.36028 0.1129,-2.35717 4.30917,0.11869 10.07517,5.94449 9.74984,-7.81603 -0.3772,-15.95434 -7.81311,-6.27879 -22.01836,-11.57081 -29.19871,-10.87768 L 553.5,801.5 553.76145,815 c 0.14379,7.425 0.46779,14.42452 0.71998,15.55449 0.46946,2.10344 12.67405,9.77099 18.1821,11.42291 3.45763,1.03699 9.59127,1.24579 11.79167,0.40142 z M 21.032042,792.11172 c -0.492547,-1.71741 -1.210747,-6.73603 -1.595999,-11.15248 -0.671949,-7.70308 -0.775022,-7.96244 -2.532313,-6.37212 -1.007519,0.9118 -2.582144,3.62242 -3.499167,6.02361 -2.205681,5.77549 -1.430326,12.24085 2.109451,17.58981 l 2.755562,4.16394 1.829003,-3.5651 c 1.395,-2.71913 1.616501,-4.30604 0.933463,-6.68766 z m 637.464798,0.58695 c 2.00728,-6.75923 1.89449,-11.23096 -0.4753,-18.84333 C 653.10281,758.05507 635.21457,742.1703 612,732.98817 c -7.00282,-2.76984 -35.1724,-9.99966 -36.28428,-9.31248 -0.4615,0.28523 -1.26264,1.63262 -1.78032,2.99421 -1.29105,3.39573 -4.13101,2.63043 -5.2946,-1.42677 C 567.93061,722.76684 567.15376,722 565.35534,722 c -1.98784,0 -2.35747,0.50709 -2.36899,3.25 -0.0237,5.63139 -1.02595,7.88664 -3.35649,7.55247 -1.16018,-0.16636 -2.19793,-0.97747 -2.30609,-1.80247 -0.10817,-0.825 -0.47784,-3.6375 -0.82149,-6.25 -0.41779,-3.17612 -1.10154,-4.75 -2.06355,-4.75 -1.19522,0 -1.43873,2.87733 -1.43873,17 0,9.35 0.27975,17 0.62166,17 2.5322,0 23.40018,3.50074 29.87834,5.01228 11.07348,2.58377 27.73828,8.49117 35.46728,12.57258 3.557,1.87833 6.76977,3.41514 7.13949,3.41514 0.36972,0 0.97906,-5.5125 1.35409,-12.25 0.83351,-14.97444 1.07817,-15.95673 3.87503,-15.5583 2.11094,0.30073 2.17083,0.73214 2.43772,17.5583 0.16446,10.36838 0.66313,17.25 1.25,17.25 0.53702,0 0.97639,-0.19244 0.97639,-0.42764 0,-2.76241 2.39935,-16.45004 3.11944,-17.79554 1.29185,-2.41384 3.59864,-2.24043 4.41507,0.3319 0.3681,1.15979 0.53077,7.34729 0.36149,13.75 -0.45739,17.30005 1.54363,21.21042 4.67525,9.13631 2.21746,-8.5495 2.74926,-9.46975 4.97818,-8.61443 1.57453,0.6042 1.68586,1.74127 1.10306,11.26639 -0.57104,9.33289 -0.47025,10.44665 0.84649,9.35386 0.82209,-0.68228 2.17113,-3.51825 2.99786,-6.30218 z M 33.191259,773.74625 c 0.169808,-6.73544 0.223619,-12.40637 0.11958,-12.60208 -0.104038,-0.1957 -2.246516,1.12166 -4.761062,2.92747 -3.171805,2.27781 -4.409567,3.79476 -4.041809,4.95347 0.291552,0.91859 1.197468,5.15822 2.013148,9.4214 1.785953,9.33433 2.05617,9.85009 4.480832,8.55245 1.655291,-0.88589 1.917555,-2.47347 2.189311,-13.25271 z m 11.215952,6.11407 c 2.172709,-0.98995 2.540169,-1.87672 2.797053,-6.75 0.249417,-4.73161 0.591913,-5.61032 2.18675,-5.61032 1.985018,0 2.992839,1.2541 4.552505,5.66497 l 0.94232,2.66496 7.307081,-1.91053 c 9.49321,-2.48213 31.685957,-6.50896 44.07583,-7.99746 5.37282,-0.64548 9.92696,-1.45448 10.12033,-1.79777 0.68836,-1.22209 -2.09601,-30.23062 -2.98441,-31.09257 -0.49757,-0.48276 -2.14699,-0.63398 -3.66539,-0.33605 -1.95894,0.38438 -2.92708,1.30592 -3.33352,3.17308 -0.31504,1.44725 -0.7461,3.19387 -0.9579,3.88137 -0.65557,2.12796 -3.43229,1.37828 -4.62981,-1.25 -0.6265,-1.375 -1.946434,-2.5 -2.9332,-2.5 -3.371123,0 -35.671925,11.01403 -47.038921,16.03948 -11.827276,5.22894 -17.831191,8.89679 -14.631113,8.93828 C 38.831672,761.0117 40,764.21394 40,771.35247 40,777.19275 40.615606,781 41.559936,781 c 0.190277,0 1.471551,-0.51285 2.847275,-1.13968 z m 80.823479,-212.3689 c 2.05188,-6.04528 3.7337,-11.66642 3.73738,-12.49142 0.004,-0.825 -2.42651,-3.63381 -5.40043,-6.24179 -6.63663,-5.82003 -8.38021,-10.09938 -6.57462,-16.13644 1.81934,-6.08298 4.50357,-9.2641 9.39253,-11.13121 4.45863,-1.70277 6.37163,-1.48152 17.20795,1.99015 1.69001,0.54143 2.93256,-0.35573 6.44702,-4.655 2.39444,-2.92914 7.22858,-8.35956 10.74254,-12.0676 3.51396,-3.70804 6.21514,-7.30804 6.00263,-8 -0.21251,-0.69196 -2.61372,-2.34466 -5.33603,-3.67267 -19.28588,-9.40813 -42.2629,-5.4757 -57.48676,9.83862 -7.819612,7.86608 -13.317562,17.84297 -15.068086,27.3434 -2.409017,13.07421 2.611578,27.62865 12.538776,36.34927 5.48979,4.82254 16.07502,10.62142 18.53762,10.15542 0.96631,-0.18286 2.9014,-4.33332 5.25948,-11.28073 z"
           id="path855" />
        <path
           style="fill:#000000"
           d="M 306.05329,872.90543 C 268.48689,871.53233 232.09508,868.50487 174,861.9198 133.19142,857.29415 114.46145,854.339 86.5,848.11435 79.002881,846.44537 57.527862,838.05451 45.5,832.09455 25.149591,822.01067 11.150116,810.43414 4.2759283,798.0053 1.1499744,792.35343 0.67375549,790.60506 0.64594393,784.67832 c -0.0176061,-3.75193 0.39235397,-7.12693 0.91102247,-7.5 0.5186685,-0.37308 1.769454,-2.4627 2.7795234,-4.64362 C 9.9929361,760.32146 24.537608,749.66737 48.5,740.18456 c 14.398545,-5.69804 35.876894,-12.42507 51.8042,-16.22511 9.0369,-2.15608 14.08705,-3.84018 14.62321,-4.87647 0.45045,-0.87064 0.36493,-6.75798 -0.19005,-13.08298 -0.55497,-6.325 -1.03921,-26.575 -1.07608,-45 -0.0698,-34.87811 0.70006,-44.86311 5.24098,-67.97578 1.02393,-5.21167 1.67712,-9.95677 1.45152,-10.54466 -0.22559,-0.58789 -3.82081,-2.75652 -7.98937,-4.81918 -14.555517,-7.20226 -23.162817,-18.47596 -25.399495,-33.26783 -3.540861,-23.41685 16.539435,-49.94934 41.834305,-55.27652 11.39141,-2.39906 23.12804,-0.70553 34.3423,4.95541 3.1908,1.61071 6.40828,2.92856 7.14996,2.92856 0.74169,0 3.11702,-1.49645 5.27852,-3.32543 10.22745,-8.65413 29.71989,-19.53189 46.99422,-26.22515 5.23731,-2.02929 9.36323,-4.16707 9.16871,-4.75063 -0.19452,-0.58355 -1.9015,-1.57689 -3.7933,-2.20742 -2.31886,-0.77287 -3.9942,-2.26159 -5.1416,-4.56889 C 220.85225,452.00972 220.48856,448 222.07944,448 c 1.83003,0 14.11517,5.07904 20.06953,8.29733 l 5.64897,3.05324 12.35103,-2.69091 c 6.79307,-1.48 20.22603,-3.89685 29.85103,-5.37077 15.85042,-2.42725 20.23358,-2.68499 46.5,-2.73437 24.5461,-0.0462 32.02043,0.30947 48.66647,2.31549 l 19.66648,2.37001 6.2777,-2.12001 c 7.07157,-2.38811 11.41198,-2.70142 12.52287,-0.90398 0.41335,0.66882 1.00241,2.74364 1.30901,4.61071 0.54488,3.31802 0.80583,3.48137 11.55747,7.23495 14.65559,5.1165 31.19282,13.55629 41,20.92437 4.4,3.3057 8.74157,6.01117 9.64793,6.01215 0.90636,9.9e-4 3.60636,-1.11787 6,-2.48634 12.89015,-7.36946 30.31402,-9.24078 42.35207,-4.54859 16.81495,6.55412 29.68517,21.59674 33.53966,39.20089 1.4442,6.59596 0.88666,8.83583 -2.1994,8.83583 -2.15195,0 -2.16162,-0.0445 -0.3045,-1.40249 1.7573,-1.28497 1.81975,-1.87097 0.74527,-6.99358 -4.74995,-22.64554 -25.89473,-40.63473 -47.71253,-40.59206 -11.29284,0.0221 -28.6132,6.35088 -28.52244,10.422 0.0261,1.1721 3.51832,5.72952 8.07059,10.53237 l 8.02452,8.46623 6.82361,-0.27858 c 6.39443,-0.26106 7.04633,-0.083 10.36451,2.83037 4.23428,3.71775 7.20123,10.73004 6.22914,14.72237 -0.37409,1.53635 -1.83748,4.56144 -3.25197,6.72241 l -2.5718,3.92904 5.29394,15.91423 c 2.91167,8.75283 5.85274,16.12866 6.53572,16.39075 1.65325,0.63441 8.7316,-2.98947 15.04797,-7.70405 5.80649,-4.33401 11.26584,-11.40541 13.7684,-17.83397 1.60178,-4.11464 1.60215,-4.48652 0.006,-6.25 -1.32937,-1.46893 -1.39259,-1.87172 -0.2919,-1.85973 3.73219,0.0407 4.2744,1.55912 2.49706,6.99301 -3.56018,10.88462 -11.28329,19.4947 -22.95196,25.58788 -7.55319,3.94415 -8.9029,5.12975 -8.15673,7.16491 0.25431,0.6936 1.85541,8.1186 3.558,16.5 5.01066,24.66606 7.73227,49.99329 9.05354,84.25188 0.65729,17.04285 1.5874,31.49224 2.06691,32.10975 0.4795,0.6175 3.67675,1.42843 7.105,1.80205 19.51785,2.12712 51.34019,11.07731 69.2861,19.48704 12.33063,5.77833 24.37295,14.08703 30.95466,21.35744 5.00343,5.52698 7.46148,9.76373 14.8711,25.63212 0.61672,1.32076 1.08622,5.59576 1.04334,9.5 -0.0666,6.06091 -0.59848,8.12884 -3.63859,14.14612 -4.65054,9.20478 -12.06411,17.19031 -22.14141,23.84961 C 623.15979,842.23635 588.02536,852.73025 528,861.4303 456.54471,871.78701 381.54417,875.6647 306.05329,872.90543 Z M 443.5,858.06154 c 39.52589,-2.23866 104.94577,-10.10731 107.80518,-12.96672 0.67854,-0.67854 0.62495,-6.99889 -0.16365,-19.30186 C 550.49662,815.73183 549.533,781.175 549.00015,749 c -1.7304,-104.48665 -3.8287,-129.21281 -14.5542,-171.50525 -9.74433,-38.42346 -19.16808,-56.31501 -41.38615,-78.57399 -12.26301,-12.2856 -24.6346,-20.97543 -40.53167,-28.46953 -9.7861,-4.61331 -23.34911,-9.617 -29.02813,-10.7091 -4.93583,-0.94918 -26.83339,8.52703 -44,19.0411 -33.40323,20.45853 -35.97736,21.87144 -36.95743,20.28565 -1.25225,-2.02618 16.83241,-16.55672 41.70743,-33.51081 7.0125,-4.77951 12.75,-9.31495 12.75,-10.07874 0,-2.87713 -16.71235,-4.56756 -51,-5.15859 -33.08525,-0.5703 -44.02313,0.32804 -76,6.24196 -13.91816,2.57408 -18,3.76624 -18,5.25716 0,0.4745 7.3125,6.71983 16.25,13.87851 C 292.4711,495.09878 302.40347,505 297.6438,505 c -1.58604,0 -5.79148,-3.14139 -26.1651,-19.54482 -14.11584,-11.36512 -26.13689,-19.42493 -31.19495,-20.91544 -2.98639,-0.88004 -17.85682,4.2338 -32.28375,11.10214 -36.30357,17.28333 -61.4855,43.76151 -76.44488,80.37992 -6.89829,16.88602 -13.45492,46.03533 -15.51545,68.9782 -1.96528,21.88221 -1.07757,66.83215 1.95512,99 2.99397,31.75705 5.10557,73.05518 4.87056,95.25694 -0.1475,13.93477 0.13843,24.12987 0.69159,24.65893 0.51868,0.4961 11.51806,2.07035 24.44306,3.49833 52.96203,5.85137 102.12278,9.59795 151.5,11.54592 27.044,1.06691 119.48161,0.49008 144,-0.89858 z M 339,701.40991 c -1.925,-0.8315 -5.15891,-3.12729 -7.18647,-5.10177 l -3.68647,-3.58996 -4.70432,4.14091 c -2.58737,2.2775 -5.42846,4.13903 -6.31353,4.13672 -0.88507,-0.002 -3.82298,-1.1273 -6.52869,-2.5 C 307.87481,697.12312 304.91335,696 303.9995,696 c -3.80277,0 -7.19983,-11.03447 -7.46556,-24.25 -0.1989,-9.89143 -0.0676,-10.75 1.644,-10.75 1.54904,0 1.73154,0.45995 1.09111,2.75 -1.50625,5.38609 -0.60313,18.45416 1.69344,24.50409 2.18502,5.75607 4.20142,7.74591 7.84932,7.74591 1.06882,0 2.5035,0.675 3.18819,1.5 2.27765,2.7444 6.46845,1.78181 10.87942,-2.49889 2.26632,-2.19939 4.13275,-4.56189 4.14763,-5.25 0.0149,-0.68811 0.12737,-9.01598 0.25,-18.50638 0.20302,-15.71259 0.38614,-17.30766 2.04831,-17.84131 1.00395,-0.32232 1.95493,-0.43244 2.1133,-0.24473 0.15837,0.18772 -0.12328,3.94131 -0.62589,8.34131 -0.50261,4.4 -0.77859,13.03422 -0.6133,19.18715 0.29234,10.88239 0.38226,11.27303 3.30053,14.33928 5.85349,6.1503 10.13319,7.22221 16.28984,4.07998 7.32352,-3.73777 7.51492,-4.28879 7.35815,-21.18346 -0.0771,-8.30567 -0.39345,-15.5111 -0.70308,-16.01208 -0.30962,-0.50098 0.36361,-0.91087 1.49607,-0.91087 2.08414,0 2.66774,1.05794 1.32457,2.40112 -0.40395,0.40395 -0.5847,7.2404 -0.40167,15.19212 0.38678,16.80359 -0.0171,17.9305 -7.84862,21.89903 -5.69218,2.88444 -7.19601,2.99929 -12.01526,0.91764 z M 313.44401,626.2489 c -2.7808,-0.99562 -6.8747,-3.3371 -9.09755,-5.20331 -4.46952,-3.75238 -4.47584,-4.10681 -0.24562,-13.77138 C 307.71931,599.00726 318.25188,594 332.02257,594 c 16.88212,0 25.68451,6.0735 27.26816,18.81458 0.42684,3.43412 0.19682,4.43816 -1.12723,4.92019 -0.91492,0.33309 -2.89398,1.61907 -4.3979,2.85774 -5.21696,4.29682 -13.45261,6.6489 -24.7656,7.07298 -8.34174,0.31271 -11.53925,0.0215 -15.55599,-1.41659 z m -88.17498,-8.94189 c 0.97297,-0.25354 2.32297,-0.23687 3,0.0371 0.67703,0.27393 -0.11903,0.48137 -1.76903,0.46099 -1.65,-0.0204 -2.20394,-0.2445 -1.23097,-0.49804 z m -9.8234,-1.78575 C 210.88485,614.08025 203,610.23035 203,609.44449 c 0,-0.28317 1.0125,0.0376 2.25,0.71278 1.2375,0.6752 5.85,2.46908 10.25,3.9864 7.8822,2.71814 7.8367,3.87083 -0.0544,1.37759 z M 276.5,607.26032 c 8.51646,-5.59556 15.86743,-12.51546 21.13131,-19.89212 2.49933,-3.50251 4.75854,-6.3682 5.02045,-6.3682 0.26192,0 -0.56508,1.89545 -1.83778,4.21212 -3.33412,6.06907 -14.74033,17.75813 -20.96935,21.48934 -7.884,4.72256 -10.29491,5.12541 -3.34463,0.55886 z M 428,607.1478 c 10.89744,-3.55865 20.83762,-8.80254 29.01483,-15.30664 l 6.48517,-5.15826 -4,4.25082 c -7.56586,8.04026 -19.69009,14.95489 -30.82695,17.58106 -9.67411,2.28124 -9.97478,1.67057 -0.67305,-1.36698 z m -57.27582,-4.40972 c -6.80801,-3.81675 -14.65967,-10.40679 -17.84768,-14.97987 -1.39344,-1.99885 0.64877,-0.50935 5.28359,3.85359 4.15523,3.91149 10.43157,8.74205 13.94743,10.73458 3.51587,1.99253 5.94248,3.62435 5.39248,3.62628 -0.55,0.002 -3.59912,-1.45364 -6.77582,-3.23458 z M 180.2302,587.25 c -5.43183,-10.24556 -7.68001,-19.45091 -7.63205,-31.25 0.0875,-21.52827 9.41289,-39.1743 26.87435,-50.85324 11.56715,-7.73658 23.51352,-11.28203 40.0275,-11.87939 15.85936,-0.57367 22.99655,0.85776 36.18523,7.25728 21.07937,10.2283 32.24689,29.16894 32.29741,54.77794 0.017,8.63843 -2.30943,22.16331 -3.99119,23.20269 -1.65591,1.02342 -2.05573,-1.47781 -0.59576,-3.72703 3.93241,-6.05825 4.42622,-23.92358 1.02579,-37.11201 C 298.03132,512.88223 275.19344,495.61448 247,494.24979 223.47303,493.11097 204.47128,500.2768 189.81233,515.81606 178.11238,528.21862 174,538.51215 174,555.39524 c 0,15.96397 5.07954,31.83367 10.6356,33.22815 3.51365,0.88187 40.68514,-1.14963 57.8644,-3.16242 7.15,-0.83772 20.12746,-2.63414 28.83881,-3.99205 8.71134,-1.3579 16.32384,-2.46892 16.91666,-2.46892 6.55597,0 -22.2756,5.55821 -41.39852,7.9809 -8.60368,1.09 -25.25368,2.48046 -37,3.08991 -11.74632,0.60945 -22.13834,1.51784 -23.09338,2.01864 -2.872,1.50602 -3.36143,1.14348 -6.53337,-4.83945 z m 283.97607,-4.44373 c -0.78101,-0.78101 -10.6161,-1.05017 -32.91008,-0.90065 -23.12973,0.15513 -36.42431,-0.22906 -48.7762,-1.40953 -9.33901,-0.89253 -17.21401,-1.86671 -17.5,-2.16483 -0.286,-0.29813 6.23001,-0.15713 14.48001,0.31334 8.25,0.47047 30.61987,0.84393 49.71081,0.82991 40.79106,-0.03 38.68606,0.51499 42.68182,-11.04968 4.59902,-13.31066 3.71321,-29.44797 -2.45547,-44.73251 -8.80309,-21.81198 -31.75925,-36.73331 -56.41706,-36.67068 -21.69474,0.0551 -42.7469,9.02161 -56.27192,23.96724 -13.67294,15.10909 -19.10226,36.85154 -13.64812,54.65578 1.15503,3.77044 2.73003,7.56577 3.5,8.43408 1.76626,1.99185 1.77765,2.92126 0.0358,2.92126 -1.5249,0 -3.70077,-5.27009 -6.19308,-15 -4.46336,-17.4249 3.18367,-41.08177 17.8457,-55.20743 14.70914,-14.17106 32.5193,-21.18869 53.71152,-21.16366 13.88741,0.0164 21.20948,1.74919 32.30917,7.64604 17.95645,9.53959 28.43932,25.97735 31.68526,49.68439 1.62669,11.88066 -0.30339,22.76677 -6.05747,34.16553 -3.23813,6.4147 -4.12156,7.29053 -5.73069,5.6814 z m -265.45872,-5.87561 c -2.06385,-1.08953 -4.98885,-3.84928 -6.5,-6.13278 C 189.85238,567.17854 189.5,565.66543 189.5,559 c 0,-6.66784 0.35197,-8.17792 2.75112,-11.80327 6.69263,-10.11326 20.43106,-11.01742 28.45995,-1.87302 6.91369,7.87426 6.91369,19.47832 0,27.35258 -5.6577,6.44376 -14.55251,8.1667 -21.96352,4.25437 z m 21.42371,-8.58565 c 3.48568,-3.15449 1.82442,-9.4029 -2.87011,-10.79519 -4.78601,-1.41942 -8.49558,7.11289 -4.72972,10.87875 2.03797,2.03797 5.29513,2.00216 7.59983,-0.0836 z m 140.09777,8.962 c 0.97297,-0.25354 2.32297,-0.23687 3,0.0371 0.67703,0.27393 -0.11903,0.48137 -1.76903,0.46099 -1.65,-0.0204 -2.20394,-0.2445 -1.23097,-0.49804 z m 6.70093,-5.55701 c -10.35241,-5.22988 -13.73907,-18.64173 -7.42715,-29.41297 6.86485,-11.71481 23.04953,-11.71481 29.91438,0 4.53836,7.74468 4.28329,16.24354 -0.71314,23.76193 C 386.13434,570.02593 378.96986,574 374.5,574 c -1.69192,0 -5.08044,-1.0125 -7.53004,-2.25 z M 387,563 c 3.87844,-3.87844 1.35757,-11 -3.89377,-11 -4.45704,0 -6.77398,7.49967 -3.45124,11.17126 2.15639,2.38279 4.85386,2.31989 7.34501,-0.17126 z M 101,843.12955 c 15.43819,-8.20651 18.01495,-9.74761 18.60888,-11.12955 0.35457,-0.825 0.86975,-7.41609 1.14485,-14.64687 0.60571,-15.92077 0.83044,-15.644 -11.57573,-14.256 -16.893799,1.89006 -31.489675,10.89269 -35.277693,21.759 -2.159191,6.19386 3.472496,10.37276 8.877187,6.58717 C 83.999872,830.58711 85,830.33147 85,830.8752 c 0,0.54374 -1.35,1.9499 -3,3.1248 -3.942164,2.80707 -3.923466,6.23038 0.05576,10.20961 2.844572,2.84457 3.414749,3.01387 8.25,2.44967 2.856834,-0.33334 7.66924,-1.92172 10.69424,-3.52973 z m 484.63968,-0.58972 c 1.14658,-0.8031 2.68028,-2.89808 3.40824,-4.65551 1.29,-3.11435 1.2238,-3.27973 -2.61218,-6.52495 -4.2637,-3.60707 -4.04682,-4.24385 0.62295,-1.82902 3.66083,1.89309 6.61118,0.63316 7.58283,-3.2382 0.84762,-3.37718 -2.65813,-10.22153 -7.34206,-14.33408 -7.2088,-6.32941 -23.32708,-12.41511 -31.15295,-11.76227 L 552.5,800.5 l 0.22896,13 c 0.33979,19.29359 0.14509,18.74177 8.32808,23.60319 11.494,6.82847 19.93143,8.69447 24.58264,5.43664 z m -467.09856,-1.60636 c 1.01373,-1.64026 -0.18164,-2.24051 -3.03545,-1.52425 -1.42311,0.35718 -2.3175,1.08622 -1.98755,1.6201 0.80459,1.30185 4.19921,1.23707 5.023,-0.0958 z M 559.75047,840.75 C 559.12044,838.85781 556,838.5888 556,840.42668 c 0,0.92763 0.855,1.57332 2.08333,1.57332 1.22198,0 1.91126,-0.51682 1.66714,-1.25 z m 48.78302,-10.19217 c 10.34952,-3.46317 21.34375,-8.51052 29.21472,-13.41223 4.92388,-3.06638 5.1977,-4.56828 2.25303,-12.35809 -5.74777,-15.20508 -23.10854,-27.25915 -50.69601,-35.19966 -15.33634,-4.41426 -35.09952,-7.53874 -36.21973,-5.72619 -1.1992,1.94034 -0.0137,31.51004 1.29791,32.37303 0.61412,0.40408 2.69159,0.74692 4.61659,0.76187 8.31784,0.0646 21.61067,5.36428 29.23412,11.65527 8.12438,6.70438 12.01908,16.98692 8.29768,21.90704 -3.39739,4.49176 -1.42434,4.49158 12.00169,-10e-4 z M 70.009384,827.75 c 0.01395,-4.83188 5.158749,-12.96902 10.833656,-17.13478 9.340349,-6.85645 23.12547,-11.55456 34.03021,-11.59786 L 119.24651,799 118.81973,787.0298 c -0.23473,-6.5836 -0.74559,-12.28899 -1.13523,-12.67864 -1.65219,-1.65218 -42.017769,4.64837 -56.1845,8.76969 -11.818641,3.43822 -22.826367,9.31745 -29.987494,16.01633 C 27.362427,803.01938 25,806.01766 25,807.40256 c 0,3.51521 14.954679,12.55187 33.5,20.24306 10.290768,4.26782 11.497331,4.27876 11.509384,0.10438 z M 22.000593,798.99857 c 0.927263,-2.23861 0.952794,-4.44522 0.107587,-9.29876 C 21.498681,786.19981 21,780.58709 21,777.2271 c 0,-3.35998 -0.422769,-6.37035 -0.939486,-6.6897 -1.219697,-0.75381 -5.579942,3.97214 -7.797993,8.45203 -3.351026,6.76822 -1.617511,16.58495 4.017035,22.74808 2.356084,2.57712 3.806722,1.88262 5.721037,-2.73894 z m 635.388647,0.0276 c 7.44358,-13.67631 4.09966,-29.56411 -9.30026,-44.18776 -13.75885,-15.01536 -32.23763,-24.13117 -63.40103,-31.2765 C 575.4475,721.4432 574.12174,721.54961 573,724.5 c -1.20481,3.1689 -3,3.24217 -3,0.12244 0,-2.98943 -2.20015,-4.87375 -5.19496,-4.4492 -1.93198,0.27387 -2.44919,1.17646 -3.19568,5.57676 -0.48986,2.8875 -1.22487,5.25 -1.63337,5.25 -0.99207,0 -1.94549,-3.7483 -1.96234,-7.71482 -0.0163,-3.82704 -3.17642,-6.22491 -5.57757,-4.23213 -1.13822,0.94464 -1.43608,4.49867 -1.43608,17.13514 0,8.76881 0.43374,16.75374 0.96387,17.7443 0.69648,1.30138 2.70771,1.99557 7.25,2.50237 20.03175,2.235 40.36765,7.86949 57.02806,15.80083 5.90806,2.81258 11.03382,4.82189 11.39058,4.46513 0.35676,-0.35676 1.00717,-6.55717 1.44537,-13.7787 0.43819,-7.22152 1.04993,-13.38326 1.35941,-13.69275 1.57891,-1.5789 2.06271,2.36373 2.06271,16.80944 0,16.07566 0.60441,18.90257 3.78085,17.68366 0.93882,-0.36026 1.63517,-2.90903 2.06845,-7.57093 0.35924,-3.8653 1.2122,-8.29316 1.89547,-9.83968 1.083,-2.45127 1.30726,-0.93324 1.74877,11.83741 0.4321,12.49841 0.78302,14.95424 2.39011,16.72642 1.036,1.14243 2.20193,1.88044 2.59094,1.64001 0.38902,-0.24042 1.51407,-3.49231 2.50012,-7.22642 2.91149,-11.0256 3.84899,-10.15533 3.18947,2.96072 -0.68223,13.56763 0.27867,14.94565 4.72506,6.77617 z M 32.465877,787.84818 c 2.608123,-2.05155 2.722199,-2.50587 2.448123,-9.75 C 34.476078,766.5234 34.813691,763 36.360709,763 c 1.421308,0 2.613944,6.66046 2.630599,14.69098 0.0048,2.30504 0.437555,4.45604 0.96172,4.77999 0.524166,0.32395 2.661666,-0.21324 4.75,-1.19376 3.609341,-1.69467 3.811908,-2.04207 4.099232,-7.02999 C 49.162255,767.99771 50.511336,767.47153 52,773 c 1.239864,4.6045 2.47658,4.89543 10.484632,2.46639 6.405185,-1.94284 28.792871,-6.01455 43.372818,-7.88833 6.2466,-0.8028 11.60753,-1.70971 11.91317,-2.01535 0.70012,-0.70012 -1.39154,-30.44695 -2.30724,-32.81271 -0.44948,-1.16126 -1.75454,-1.75 -3.87924,-1.75 -3.95099,0 -6.34199,1.73991 -6.7634,4.92167 -0.4226,3.19076 -2.57653,3.82816 -2.99385,0.88596 -0.27741,-1.9558 -0.8609,-2.2769 -3.827102,-2.10606 C 89.640059,735.18305 57.773743,746.51609 42,754.61751 c -13.670331,7.02111 -20.407822,11.94173 -19.444252,14.20082 0.394507,0.92492 1.467566,5.51929 2.384577,10.20972 2.337093,11.95401 2.82078,12.5209 7.525552,8.82013 z M 125.23069,567.49142 c 2.05188,-6.04528 3.7337,-11.66642 3.73738,-12.49142 0.004,-0.825 -2.42651,-3.63381 -5.40043,-6.24179 -6.63663,-5.82003 -8.38021,-10.09938 -6.57462,-16.13644 1.81934,-6.08298 4.50357,-9.2641 9.39253,-11.13121 4.45863,-1.70277 6.37163,-1.48152 17.20795,1.99015 1.69001,0.54143 2.93256,-0.35573 6.44702,-4.655 2.39444,-2.92914 7.22858,-8.35956 10.74254,-12.0676 3.51396,-3.70804 6.21514,-7.30804 6.00263,-8 -0.21251,-0.69196 -2.61372,-2.34466 -5.33603,-3.67267 -19.28588,-9.40813 -42.2629,-5.4757 -57.48676,9.83862 -7.819612,7.86608 -13.317562,17.84297 -15.068086,27.3434 -2.409017,13.07421 2.611578,27.62865 12.538776,36.34927 5.48979,4.82254 16.07502,10.62142 18.53762,10.15542 0.96631,-0.18286 2.9014,-4.33332 5.25948,-11.28073 z"
           id="path853" />
      </g>
    </g>
  </g>
</svg>
