<?xml version="1.0" encoding="UTF-8" standalone="no"?>
<svg
   xmlns:dc="http://purl.org/dc/elements/1.1/"
   xmlns:cc="http://creativecommons.org/ns#"
   xmlns:rdf="http://www.w3.org/1999/02/22-rdf-syntax-ns#"
   xmlns:svg="http://www.w3.org/2000/svg"
   xmlns="http://www.w3.org/2000/svg"
   width="178.53467mm"
   height="178.53467mm"
   viewBox="0 0 178.53467 178.53466"
   version="1.1"
   id="svg906">
  <defs
     id="defs900" />
  <metadata
     id="metadata903">
    <rdf:RDF>
      <cc:Work
         rdf:about="">
        <dc:format>image/svg+xml</dc:format>
        <dc:type
           rdf:resource="http://purl.org/dc/dcmitype/StillImage" />
        <dc:title></dc:title>
      </cc:Work>
    </rdf:RDF>
  </metadata>
  <g
     id="layer1"
     transform="translate(40.886381,-150.28029)">
    <g
       transform="matrix(0.26458333,0,0,0.26458333,-278.10358,75.380966)"
       id="g880">
      <ellipse
         ry="140.77332"
         rx="175.95274"
         cy="563.47626"
         cx="1226.9501"
         id="path869"
         style="opacity:1;fill:#ffffff;fill-opacity:1;fill-rule:evenodd;stroke:none;stroke-width:2.51550627;stroke-linecap:round;stroke-linejoin:round;stroke-miterlimit:4;stroke-dasharray:none;stroke-dashoffset:0;stroke-opacity:1;paint-order:stroke fill markers" />
      <g
         transform="translate(896.39171,-39.969809)"
         id="g851">
        <path
           id="path865"
           d="m 597.32159,770.48454 16.91962,70.92154 -270.66572,26.46285 -258.388522,-21.18469 -61.839048,-63.10371 226.41141,-43.33731 12.08144,-152.8413 144.90333,2.14457 12.80797,79.21983 c -86.85247,-7.63531 -74.68824,-24.75004 -124.81946,-4.76615 l -0.10144,51.91298 136.912,27.02047 z"
           style="fill:#f3cfa0" />
        <path
           id="path863"
           d="M 316.5,872.99449 C 249.39129,871.02536 146.95809,860.06874 98.999999,850.15737 54.522327,840.96529 15.058685,820.3055 5.2261458,799.31874 c -3.6351711,-7.75898 -3.8672311,-18.24083 -0.51257,-25.5695 4.56026,-9.96246 15.8239302,-20.96878 32.6215602,-28.7293 12.099891,-5.59017 41.585642,-15.53275 59.613243,-20.10155 8.496611,-2.15333 17.753911,-4.25338 18.127341,-4.66677 0.37343,-0.41339 0.30549,-7.47662 -0.15097,-13.25162 -1.68373,-21.30205 -2.18979,-58.33204 -1.02295,-74.85364 0.97777,-13.84455 4.61689,-39.33635 6.67652,-46.76857 0.50987,-1.8399 -0.45393,-4.63339 -7.24511,-7.96481 C 82.476749,562.2763 77.659178,530.6001 103,504.891 c 13.32329,-13.51692 28.37112,-19.10348 45.811,-15.66764 4.43319,0.87339 11.00833,3.03927 14.61143,4.81307 5.77526,2.84315 6.77745,3.06157 8.46242,1.84433 14.04486,-10.14615 19.33084,-13.5341 29.11515,-18.66079 6.325,-3.31411 14.7625,-7.27834 18.75,-8.8094 C 226.6002,465.78035 234.90264,462 231.454,462 c -1.58138,0 -10.42616,-9.11752 -10.44423,-12.12756 -0.0302,-5.03208 1.9649,1.2647 18.84809,5.42276 l 8.35787,4.05841 9.64213,-2.12906 c 5.30318,-1.17098 15.26714,-3.05084 22.14214,-4.17746 40.86869,-6.69725 63.91299,-6.77973 120.11178,-0.42988 4.35063,0.49157 6.99212,0.15637 11.75398,-1.49157 3.37821,-1.1691 7.23275,-2.12564 8.56564,-2.12564 2.87295,0 4.5686,2.24935 4.5686,5.55274 0,1.96729 3.11933,4.65579 10.09386,6.97852 16.45314,5.4794 27.74779,12.16787 40.7205,21.49249 4.57289,3.28694 10.74822,5.97625 11.27851,5.97625 0.53029,0 3.69924,-1.38066 7.04212,-3.06814 7.06018,-3.56397 19.39014,-6.93835 25.27497,-6.91708 5.77389,0.0209 13.74972,2.53487 20.4138,5.6485 12.07576,5.64208 24.81924,19.79608 28.7009,34.38206 C 571.3414,529.62973 568.15964,530 560.06574,530 c -5.39597,0 -3.17524,5.69183 2.40402,7.0967 6.44532,1.62295 7.10977,-1.17723 5.06551,5.14696 -3.68917,11.41292 -10.58746,21.23952 -22.80401,27.39168 -5.26226,2.65003 -8.71688,3.83938 -8.30444,5.15476 1.31792,4.20321 5.77959,29.40717 7.58813,41.46384 2.53523,16.90111 4.70357,44.54357 5.57094,71.01938 0.37431,11.42532 1.01835,22.98208 1.4312,23.23724 0.41286,0.25516 7.64041,1.18454 13.61678,2.0653 20.35814,3.00021 43.79707,10.48038 61.57239,18.69308 29.51317,13.63593 46.65122,32.98405 46.74729,56.23107 0.0473,11.45175 -4.13516,18.55096 -13.79337,28.00809 -25.17496,24.65084 -74.90751,40.07103 -167.16018,50.42246 -54.76933,6.14552 -175.5,7.06393 -175.5,7.06394 z M 99.499999,843.45871 c 0,0 7.925001,-4.01575 11.500001,-5.93254 6.33875,-3.39861 8.51643,-5.60341 9.16239,-10.25562 1.19981,-8.64096 0.95498,-24.01271 -0.41239,-24.52373 -2.24214,-0.83794 -19.64423,1.24168 -25.059641,3.26784 -13.56988,5.07715 -24.090751,20.34547 -20.196961,25.63186 1.32859,1.80376 3.45953,1.8031 6.881171,-0.0245 6.63169,-3.54222 7.11068,-1.61938 1.12543,2.94579 -4.21424,3.21436 -2.42336,7.56073 1.24711,10.44791 3.34824,2.63373 8.16395,2.15775 15.75289,-1.557 z M 589,842 c 2.88265,-2.88265 0.47824,-9.11836 -3.50003,-12.29263 -4.20653,-2.41759 -3.63244,-3.96081 0.9242,-1.17827 3.48415,2.12762 8.57583,1.46524 8.57583,-1.03755 0,-2.95023 -3.93633,-13.29342 -7.72098,-16.44195 -5.23232,-4.35289 -16.60024,-8.65006 -23.9892,-10.0867 -9.45062,-1.83748 -11.48698,-1.795 -10.79344,10.27364 1.11039,19.32239 0.70658,22.21985 8.20996,26.41598 C 572.64525,844.32914 585.36119,845.63881 589,842 Z M 349.96713,699.01677 c 2.1381,-1.09078 6.25767,-3.00328 6.71016,-4.25 1.12468,-3.09876 0.54485,-31.48317 -0.70922,-33.82644 -1.11379,-2.08113 -20.97138,-7.53678 -23.30443,-6.6415 -1.81594,0.69684 -2.66364,9.5043 -2.66364,23.3904 0,12.88685 1.06552,18.16049 6.29855,21.35125 4.05457,2.47222 8.78703,2.46667 13.66858,-0.0237 z m -26.35092,-3.30387 3.58684,-3.28709 0.43229,-18.71291 c 0.34077,-13.17463 0.16049,-18.7055 -0.85153,-18.67793 -3.88874,0.10593 -27.1756,6.91374 -28.05898,8.49225 -1.699,3.03594 -0.13257,19.69842 2.47125,25.13214 1.89893,3.96274 4.8915,6.92372 7.64657,7.46691 1.83846,0.36246 3.84096,1.15734 4.45,1.76638 1.92146,1.92146 6.6193,1.21496 10.32356,-2.17975 z m 50.0719,-35.36919 c 3.93853,-1.86895 9.95455,-9.307 10.9047,-14.05775 1.38067,-6.90335 -9.89546,-20.50571 -21.25314,-26.08136 l -5.16034,-2.53328 -7.07407,4.58665 c -5.92961,3.84461 -9.51271,4.96377 -21.18204,5.49928 -12.49637,0.57347 -18.01872,-1.14618 -23.30078,-5.78389 C 304.75988,620.33801 300.48553,619 299.56833,619 c -4.30602,0 -13.75457,8.39676 -17.13754,15 -4.06581,7.93608 0.70918,21.40372 7.6197,25.22342 4.44494,2.45689 9.72946,1.91986 22.6987,-2.3067 10.7028,-3.48795 22.57517,-4.7943 28.25686,-3.10918 1.92167,0.56994 7.99395,2.64186 13.49395,4.60427 11.24373,4.01178 14.18172,4.30759 19.18811,1.9319 z M 218,588.0041 c 26.70312,-1.96029 82.82875,-9.78716 85.60282,-12.08943 C 305.16605,574.6173 307,562.83338 307,555.79106 c 0,-33.35255 -25.94002,-59.9293 -60,-61.54259 -33.90667,-1.60604 -64.2137,16.61596 -71.51941,44.75153 -2.32901,8.96941 -1.61005,29.0413 1.41017,37.44651 3.84004,10.68676 5.64626,12.55385 17.38229,12.55106 5.62482,-10e-4 16.30195,-0.44839 23.72695,-0.99347 z m 239.80082,-8.64236 c 4.10577,-0.34093 9.90347,-1.20889 10.6779,-1.98332 0.75739,-0.75739 2.40329,-3.96488 3.65756,-7.12775 3.04821,-7.68667 3.2852,-28.52969 0.44964,-37.75067 -6.7547,-21.96563 -21.98236,-38.67942 -43.58592,-44.11506 -4.95293,-1.2462 -11.11812,-1.50079 -19.5,-1.06965 -13.18482,0.67819 -20.1892,2.44163 -31.5,7.9305 -6.81641,3.30784 -12.2017,5.82125 -19.09142,12.68953 C 346.34919,520.45563 341,534.75269 341,551.10476 c 0,7.03688 2.85769,21.98309 4.88674,24.13843 0.77354,0.82169 20.36188,2.8146 21.03608,2.15695 l 12.26719,1.10908 c 5.17103,2.01551 57.73955,2.58561 78.61081,0.85252 z"
           style="fill:#68d5e3" />
        <path
           id="path1032"
           d="M 3.6213989,785.58435 C 31.587336,752.60421 -10.392032,761.80467 116.84811,726.60312 c 2.47031,15.41373 1.73142,40.69918 1.73142,40.69918 C 63.395822,778.02706 23.999828,791.64242 19.311199,809.46872 16.620198,819.69998 5.7405914,798.27429 3.6213989,785.58435 Z"
           style="opacity:1;fill:#866f49;fill-opacity:1;fill-rule:evenodd;stroke:none;stroke-width:1.18043125;stroke-linecap:round;stroke-linejoin:round;stroke-miterlimit:4;stroke-dasharray:none;stroke-dashoffset:0;stroke-opacity:0.98529412;paint-order:markers fill stroke" />
        <path
           id="path857"
           d="m 315.5,874.00367 c -41.99235,-1.32263 -77.8219,-4.1296 -135,-10.57622 C 103.99685,854.802 77.096119,848.76293 45.493902,833.11934 24.491918,822.72302 9.7940877,810.26535 2.8795197,797 -0.53457691,790.45018 -0.38764128,779.45314 3.2068736,772.5 11.653799,756.16048 30.28317,744.86699 70.5,731.70559 c 9.35,-3.05989 22.936333,-7.0027 30.19185,-8.76179 7.25552,-1.75909 12.80118,-3.70357 13.02925,-4.32107 0.22806,-0.6175 -0.32013,-6.74773 -0.86551,-13.62273 -0.54535,-6.875 -1.32202,-26.9 -1.37315,-44.5 -0.0973,-33.48696 1.36499,-44.41188 6.03309,-67.34914 1.04648,-5.14202 2.23759,-9.74131 1.94135,-10.22064 -0.29624,-0.47932 -4.75736,-1.9001 -9.20804,-4.2156 -4.45068,-2.3155 -10.824799,-6.654 -13.459149,-9.28836 -27.496034,-27.49603 -4.145782,-78.38439 37.907509,-83.12812 8.17695,-0.92239 18.46625,1.2138 27.7709,5.46175 4.06496,1.85581 7.26634,3.42373 7.81974,3.42373 0.5534,0 2.85252,-1.78497 5.10917,-3.61384 11.09695,-8.99336 30.3812,-19.11106 46.01062,-25.04795 8.13665,-3.09073 10.23298,-4.68482 5.70211,-5.3495 -3.71255,-0.54462 -8.70401,-10.97806 -6.36907,-13.313 1.20731,-1.20731 8.27889,1.15653 18.71126,6.25468 8.94466,4.37112 9.5516,3.63945 17.40373,1.61277 6.87317,-1.77401 19.0528,-3.70413 37.64434,-6.46547 22.12181,-3.28568 54.53335,-3.9032 80.5,-1.10548 32.06074,3.4543 30.85932,4.2852 36.78702,1.93783 2.90786,-1.15151 8.39536,-4.09366 9.75,-4.09366 3.0942,0 6.80316,3.59114 6.178,5.98176 -0.73893,2.82566 -1.81744,4.86562 8.28498,8.31184 13.8146,4.71255 30.17069,12.95923 40.70137,20.52148 5.06075,3.63421 9.72299,7.18492 10.36053,7.18492 0.63753,0 4.3778,-1.59074 8.31171,-3.53498 10.25835,-5.06996 21.8197,-6.60466 30.84396,-5.05717 8.75523,1.50135 20.17013,6.14158 25.78013,11.20625 5.73798,5.18021 11.40913,12.98761 14.48342,19.93913 2.77713,6.27957 5.28838,18.00998 4.10854,19.19155 -0.41476,0.41537 -3.49281,1.86456 -6.84335,2.12112 -5.04209,0.38609 -6.98004,1.27384 -0.56134,3.90947 6.18921,1.84765 6.30971,1.95031 6.04796,5.15273 -0.78781,9.63862 -11.23146,24.17815 -23.96926,31.04454 -5.6195,3.02923 -7.03246,3.77226 -6.92831,5.25365 0.0762,1.08379 3.31022,7.3069 4.77782,14.1819 5.61855,26.32035 10.06821,57.98302 9.69217,101.09181 l -0.15081,17.28863 4.34546,0.53971 c 33.44842,4.15429 62.54163,14.24881 83.05358,26.23958 21.2757,12.43725 36.14161,35.08382 34.69886,52.85986 -1.8395,22.66434 -25.87407,42.54422 -67.75244,56.04053 -61.26371,19.7437 -185.25783,31.88167 -291.5,28.53536 z m 102,-16.00273 c 29.984,-1.17407 47.44862,-2.37922 73.66131,-5.08304 24.31039,-2.50759 57.76433,-7.44354 59.03039,-8.7096 0.58954,-0.58954 0.355,-11.19074 -0.62665,-28.32523 C 548.70221,800.82238 547.54172,760.375 546.98619,726 545.97694,663.54995 545.39814,650.93303 542.42166,626.5 538.16723,591.57664 527.07005,549.48997 517.78025,533.0461 506.48169,513.04653 489.82131,494.69585 472.10228,482.73385 458.54589,473.58201 429.41059,461 421.77471,461 c -3.77715,0 -19.4034,6.08319 -28.77471,11.20179 -4.125,2.25308 -14.25,8.24389 -22.5,13.31291 -21.06484,12.94281 -26.30827,15.77285 -28.01216,15.11901 -2.54237,-0.9756 -1.65957,-3.2207 2.92987,-7.4511 5.33255,-4.91537 22.96534,-18.07705 38.33229,-28.61245 6.1875,-4.24208 11.25,-8.12219 11.25,-8.62247 0,-2.22881 -18.6389,-3.97357 -49.5,-4.63362 -28.22159,-0.6036 -39.62499,0.27718 -68.5,5.29079 -17.28993,3.00207 -23,4.35309 -23,5.44186 0,0.4451 6.60756,6.12313 14.68346,12.61784 C 294.35201,495.30742 304.38523,506 298.08659,506 c -2.01595,0 -11.44721,-6.802 -26.81211,-19.3374 -11.6792,-9.52844 -20.38347,-15.70631 -26.85936,-19.06348 l -5.08488,-2.63605 -6.84339,2.11371 c -8.98198,2.77425 -25.1689,9.75228 -34.1961,14.74162 -18.16521,10.03992 -33.36447,23.10443 -45.16628,38.82264 -18.57202,24.7351 -28.98792,52.77139 -34.68426,93.35896 -3.15994,22.51527 -2.89741,69.88383 0.59859,108 2.91987,31.83482 4.26743,56.10025 4.83146,87 l 0.62974,34.5 9.5,1.17975 c 30.89124,3.83619 90.59738,9.11375 128.5,11.35839 47.14162,2.79179 112.64481,3.62127 155,1.9628 z M 337.23425,701.88691 c -2.34617,-1.16132 -5.11093,-3.18597 -6.14392,-4.49921 -2.19251,-2.78732 -3.35758,-2.97554 -5.13816,-0.83006 -0.711,0.8567 -3.25552,2.7079 -5.65449,4.11379 l -4.36176,2.55617 -3.77171,-2.6138 C 310.08977,699.17621 307.50431,698 306.41876,698 c -6.10432,0 -10.39709,-9.31368 -11.17703,-24.24991 l -0.50912,-9.74992 -3.76425,-1.1278 c -7.72148,-2.31341 -13.33382,-10.64374 -13.39721,-19.88531 -0.071,-10.34795 8.78305,-22.9927 18.26314,-26.08224 4.08353,-1.33081 5.12788,-2.43774 5.1504,-5.45904 0.008,-1.12982 1.29028,-4.06463 2.84857,-6.5218 8.85195,-13.95808 37.79734,-16.8579 50.50602,-5.05982 3.64342,3.38237 5.66072,7.27789 5.66072,10.93119 0,3.21688 1.36342,4.64792 8.07403,8.47448 10.86319,6.19446 19.95779,17.6982 19.90401,25.17651 -0.0525,7.30328 -7.72096,16.99359 -15.4723,19.55177 -2.13631,0.70504 -5.63052,0.9825 -8.10387,0.64349 l -4.34819,-0.59598 0.15509,14.87506 c 0.18095,17.35627 -0.20924,18.4057 -8.35232,22.46356 -6.35504,3.16685 -9.05258,3.25959 -14.6222,0.50267 z m 12.62249,-3.81382 c 6.52116,-3.32685 6.66851,-3.78033 6.41748,-19.75023 -0.12418,-7.90011 -0.67142,-15.19651 -1.21608,-16.21422 -1.16449,-2.17588 -16.49094,-7.46572 -20.13765,-6.95041 -2.1439,0.30296 -2.50794,1.02316 -3.20558,6.34177 -0.43286,3.3 -0.6583,11.4667 -0.50097,18.14821 0.31215,13.256 0.79516,14.48184 7.28606,18.49123 3.82207,2.36087 6.63115,2.34446 11.35674,-0.0664 z m -27.43779,-3.99008 3.82484,-3.917 0.43197,-17.083 c 0.51106,-20.21097 1.97113,-18.91462 -15.24892,-13.53901 -11.34206,3.54067 -11.35335,3.54736 -12.02268,7.11517 -1.0233,5.45469 0.38296,16.97521 2.74127,22.45725 1.59104,3.69848 2.75911,5.04541 4.73343,5.45824 1.44163,0.30145 3.74614,1.18349 5.12114,1.9601 4.01446,2.2674 6.34673,1.71857 10.41895,-2.45175 z m 52.31479,-34.76095 C 379.51747,657.05203 384,649.88189 384,644.5 c 0,-6.98925 -5.99852,-14.73287 -16.9772,-21.91625 -6.48985,-4.24633 -8.50882,-4.41406 -13.02511,-1.08204 -7.00362,5.16711 -13.4691,6.85832 -26.49769,6.93118 -11.02404,0.0616 -12.46865,-0.15251 -17.76232,-2.63321 -3.16928,-1.48517 -6.01657,-3.36288 -6.32732,-4.17268 -0.90888,-2.36852 -3.26091,-2.71609 -7.21626,-1.06638 -8.17046,3.40775 -15.16525,13.71438 -15.18433,22.37366 -0.0131,5.9225 3.2857,12.46718 7.64045,15.15856 4.64679,2.87187 12.43484,2.25341 25.34978,-2.01306 5.225,-1.72609 12.425,-3.3938 16,-3.70601 6.65373,-0.58109 10.84694,0.42678 27,6.4897 6.72401,2.5238 13.03757,2.68707 17.73374,0.45859 z M 218.5,617.63765 c -11.05968,-3.06002 -19.75028,-7.96299 -27.99346,-15.79302 -8.03106,-7.62854 -12.53525,-14.55508 -16.26333,-25.00971 -2.32613,-6.52315 -2.61685,-8.82899 -2.62692,-20.83492 -0.0101,-12.09921 0.25538,-14.19952 2.55901,-20.24155 3.96302,-10.39432 8.62546,-17.31585 16.96649,-25.18723 13.52114,-12.75982 30.07565,-18.77197 51.85821,-18.83349 20.49192,-0.0579 35.76923,5.9307 49.02724,19.21825 12.08198,12.10891 17.19228,25.30566 17.24918,44.54402 0.0541,18.29692 -4.77673,30.0057 -17.76224,43.05122 -6.64666,6.67739 -9.6868,8.86816 -17.81633,12.83873 -17.49757,8.54606 -38.35749,10.90714 -55.19785,6.2477 z m 38,-3.11993 c 9.49158,-2.40751 21.7159,-9.06428 29.14301,-15.86988 C 294.77694,590.27826 303.56207,578 300.41661,578 c -0.32086,0 -4.03336,0.87874 -8.25,1.95275 -24.31988,6.19447 -71.28685,12.02885 -96.94799,12.04318 -5.65341,0.003 -7.41445,0.35082 -7.87652,1.55495 -1.26658,3.30065 10.36878,12.06062 23.00855,17.32257 14.42729,6.0061 31.51728,7.35564 46.14935,3.64427 z M 196.08333,597.6368 c 0.22917,-0.19977 8.96667,-0.65432 19.41667,-1.01012 12.72536,-0.43328 18.50463,-0.31839 17.5,0.34789 -1.35153,0.89634 -37.93816,1.55265 -36.91667,0.66223 z m 47.50736,-1.49006 c -0.90621,-1.46628 4.1298,-2.94303 15.68958,-4.60078 C 265.20942,590.69568 270.57192,590 271.19694,590 c 2.77738,0 -0.58398,1.16547 -9.77445,3.38905 -13.49192,3.26429 -17.1674,3.8327 -17.8318,2.75769 z M 217,586.967 c 25.75363,-1.7996 81.20118,-9.6192 85.04255,-11.9933 1.70451,-1.05344 3.92386,-11.5458 3.94183,-18.63573 0.0876,-34.53456 -23.91242,-59.39054 -58.98438,-61.08818 -23.40456,-1.1329 -42.66586,6.08613 -56.93358,21.33836 -6.58129,7.03543 -10.91476,14.64246 -13.59661,23.86771 -2.56985,8.83998 -1.66204,27.64545 1.77894,36.8511 3.85649,10.31727 4.39217,10.69485 15.15624,10.68315 5.00225,-0.005 15.62001,-0.46584 23.59501,-1.02311 z m -17.5,-8.84773 c -4.9483,-2.27227 -6.82655,-4.3426 -9.57347,-10.55246 -4.01674,-9.08051 -1.10686,-20.34022 6.67835,-25.84168 7.67691,-5.42493 16.09708,-4.88458 22.99731,1.47583 16.89768,15.57573 0.35443,44.31202 -20.10219,34.91831 z m 21.304,-13.85732 C 221.11354,561.19604 218.97791,558 216.6197,558 c -4.76095,0 -6.54825,7.01994 -2.60106,10.21617 1.98643,1.60852 2.53065,1.66412 4.375,0.44695 1.19272,-0.78714 2.23822,-2.69615 2.41036,-4.40117 z M 392.5,612.32038 C 369.85767,607.2528 353.01604,594.71559 344.38137,576.5 c -6.66255,-14.05522 -7.97341,-25.95525 -4.39876,-39.93199 3.30256,-12.9129 7.38415,-19.95729 17.49912,-30.20162 7.84882,-7.94921 10.25019,-9.71583 18.51827,-13.62338 13.61245,-6.43334 21.84301,-8.25472 37,-8.18792 10.01873,0.0442 13.86301,0.49148 19.36648,2.25345 21.62335,6.92285 36.50912,22.33337 42.51787,44.01669 10.67077,38.50674 -10.76992,71.79618 -51.60085,80.117 -9.35305,1.90603 -25.24583,2.61753 -30.7835,1.37815 z m 33.22451,-5.91348 c 4.69437,-1.36038 11.84948,-4.08951 15.90024,-6.06475 6.94552,-3.38678 20.28487,-13.49235 21.09695,-15.98253 0.27246,-0.83549 -10.40207,-1.27764 -39.92491,-1.65375 -29.58858,-0.37694 -43.35273,-0.94818 -51.79679,-2.14966 -18.63319,-2.65125 -22,-2.9284 -22,-1.81099 0,2.05659 9.43524,12.41243 15.38161,16.88239 18.37159,13.81018 38.61112,17.3667 61.3429,10.77929 z M 418.25,590.32704 c -2.3375,-0.24312 -4.25,-0.86616 -4.25,-1.38454 0,-0.54231 5.4137,-0.92959 12.75,-0.91209 8.55285,0.0204 12.2139,0.34357 11.12143,0.98173 -1.95765,1.14356 -13.70187,1.93058 -19.62143,1.3149 z M 369,587.83153 c -1.925,-0.54345 -3.95,-1.45345 -4.5,-2.02221 -0.6817,-0.70495 -0.3634,-0.85731 1,-0.47868 1.1,0.30549 4.14303,0.858 6.7623,1.22779 2.61926,0.36979 5.00832,1.07042 5.30901,1.55696 0.70596,1.14226 -4.08133,0.98372 -8.57131,-0.28386 z m 97.85257,-11.19773 c 1.13394,-1.02641 3.09349,-4.85141 4.35457,-8.5 C 473.08013,562.71478 473.5,559.39413 473.5,550 c 0,-10.01308 -0.37844,-12.65471 -2.92687,-20.43067 -10.53333,-32.14 -41.79919,-48.04237 -76.9336,-39.1298 C 362.4416,498.35353 342,522.31198 342,550.96328 c 0,7.43522 2.74965,19.82522 5.002,22.53913 2.56842,3.09476 38.2985,5.3712 81.14344,5.16982 34.22896,-0.16087 36.78138,-0.29529 38.70713,-2.03843 z M 368.5,573.52098 C 359.66423,570.34565 353.62205,558.60702 355.96176,549.16197 358.4644,539.05917 365.41444,533 374.5,533 c 17.03624,0 25.25855,22.45548 13.12504,35.84501 -4.58522,5.05987 -12.60242,7.02003 -19.12504,4.67597 z M 386.8,562.8 c 0.66,-0.66 1.2,-2.595 1.2,-4.3 0,-3.6119 -1.54481,-5.5 -4.5,-5.5 -2.95519,0 -4.5,1.8881 -4.5,5.5 0,3.6119 1.54481,5.5 4.5,5.5 1.155,0 2.64,-0.54 3.3,-1.2 z M 99,843.18249 c 7.31684,-3.49069 17.38645,-9.20624 19,-10.78448 0.73236,-7.50894 2.26022,-27.22671 -0.27262,-28.9303 -4.12169,-1.03448 -19.558365,2.1731 -26.136577,5.4309 -8.260693,4.09103 -12.6629,7.95328 -15.468727,13.57141 -1.927185,3.85881 -2.157073,5.15775 -1.260921,7.12459 1.276978,2.80266 4.134643,3.10947 7.630052,0.81919 2.579288,-1.69001 4.741465,-1.18371 3.933758,0.92114 -0.268228,0.69899 -1.823575,2.06002 -3.456326,3.02451 -3.75924,2.22064 -3.910361,5.78974 -0.394033,9.30607 2.215424,2.21542 3.226868,2.51107 7.25,2.11921 C 92.396073,845.53426 96.525,844.36325 99,843.18249 Z m 485.4552,-0.80367 c 1.62938,-0.62526 4.5448,-5.34842 4.5448,-7.36289 0,-0.59586 -1.575,-2.01265 -3.5,-3.14843 -2.04861,-1.20871 -3.5,-2.85346 -3.5,-3.96628 0,-2.36028 0.1129,-2.35717 4.30917,0.11869 10.07517,5.94449 9.74984,-7.81603 -0.3772,-15.95434 -7.81311,-6.27879 -22.01836,-11.57081 -29.19871,-10.87768 L 553.5,801.5 553.76145,815 c 0.14379,7.425 0.46779,14.42452 0.71998,15.55449 0.46946,2.10344 12.67405,9.77099 18.1821,11.42291 3.45763,1.03699 9.59127,1.24579 11.79167,0.40142 z M 21.032042,792.11172 c -0.492547,-1.71741 -1.210747,-6.73603 -1.595999,-11.15248 -0.671949,-7.70308 -0.775022,-7.96244 -2.532313,-6.37212 -1.007519,0.9118 -2.582144,3.62242 -3.499167,6.02361 -2.205681,5.77549 -1.430326,12.24085 2.109451,17.58981 l 2.755562,4.16394 1.829003,-3.5651 c 1.395,-2.71913 1.616501,-4.30604 0.933463,-6.68766 z m 637.464798,0.58695 c 2.00728,-6.75923 1.89449,-11.23096 -0.4753,-18.84333 C 653.10281,758.05507 635.21457,742.1703 612,732.98817 c -7.00282,-2.76984 -35.1724,-9.99966 -36.28428,-9.31248 -0.4615,0.28523 -1.26264,1.63262 -1.78032,2.99421 -1.29105,3.39573 -4.13101,2.63043 -5.2946,-1.42677 C 567.93061,722.76684 567.15376,722 565.35534,722 c -1.98784,0 -2.35747,0.50709 -2.36899,3.25 -0.0237,5.63139 -1.02595,7.88664 -3.35649,7.55247 -1.16018,-0.16636 -2.19793,-0.97747 -2.30609,-1.80247 -0.10817,-0.825 -0.47784,-3.6375 -0.82149,-6.25 -0.41779,-3.17612 -1.10154,-4.75 -2.06355,-4.75 -1.19522,0 -1.43873,2.87733 -1.43873,17 0,9.35 0.27975,17 0.62166,17 2.5322,0 23.40018,3.50074 29.87834,5.01228 11.07348,2.58377 27.73828,8.49117 35.46728,12.57258 3.557,1.87833 6.76977,3.41514 7.13949,3.41514 0.36972,0 0.97906,-5.5125 1.35409,-12.25 0.83351,-14.97444 1.07817,-15.95673 3.87503,-15.5583 2.11094,0.30073 2.17083,0.73214 2.43772,17.5583 0.16446,10.36838 0.66313,17.25 1.25,17.25 0.53702,0 0.97639,-0.19244 0.97639,-0.42764 0,-2.76241 2.39935,-16.45004 3.11944,-17.79554 1.29185,-2.41384 3.59864,-2.24043 4.41507,0.3319 0.3681,1.15979 0.53077,7.34729 0.36149,13.75 -0.45739,17.30005 1.54363,21.21042 4.67525,9.13631 2.21746,-8.5495 2.74926,-9.46975 4.97818,-8.61443 1.57453,0.6042 1.68586,1.74127 1.10306,11.26639 -0.57104,9.33289 -0.47025,10.44665 0.84649,9.35386 0.82209,-0.68228 2.17113,-3.51825 2.99786,-6.30218 z M 33.191259,773.74625 c 0.169808,-6.73544 0.223619,-12.40637 0.11958,-12.60208 -0.104038,-0.1957 -2.246516,1.12166 -4.761062,2.92747 -3.171805,2.27781 -4.409567,3.79476 -4.041809,4.95347 0.291552,0.91859 1.197468,5.15822 2.013148,9.4214 1.785953,9.33433 2.05617,9.85009 4.480832,8.55245 1.655291,-0.88589 1.917555,-2.47347 2.189311,-13.25271 z m 11.215952,6.11407 c 2.172709,-0.98995 2.540169,-1.87672 2.797053,-6.75 0.249417,-4.73161 0.591913,-5.61032 2.18675,-5.61032 1.985018,0 2.992839,1.2541 4.552505,5.66497 l 0.94232,2.66496 7.307081,-1.91053 c 9.49321,-2.48213 31.685957,-6.50896 44.07583,-7.99746 5.37282,-0.64548 9.92696,-1.45448 10.12033,-1.79777 0.68836,-1.22209 -2.09601,-30.23062 -2.98441,-31.09257 -0.49757,-0.48276 -2.14699,-0.63398 -3.66539,-0.33605 -1.95894,0.38438 -2.92708,1.30592 -3.33352,3.17308 -0.31504,1.44725 -0.7461,3.19387 -0.9579,3.88137 -0.65557,2.12796 -3.43229,1.37828 -4.62981,-1.25 -0.6265,-1.375 -1.946434,-2.5 -2.9332,-2.5 -3.371123,0 -35.671925,11.01403 -47.038921,16.03948 -11.827276,5.22894 -17.831191,8.89679 -14.631113,8.93828 C 38.831672,761.0117 40,764.21394 40,771.35247 40,777.19275 40.615606,781 41.559936,781 c 0.190277,0 1.471551,-0.51285 2.847275,-1.13968 z m 79.660999,-212.4168 c 4.55578,-13.33599 4.57809,-13.64936 1.1168,-15.68384 -4.53769,-2.66718 -9.0116,-8.31839 -9.76507,-12.33476 -1.40272,-7.47711 4.1331,-17.13222 11.15078,-19.44826 3.7382,-1.23372 9.67233,-0.60871 14.8801,1.56724 1.73499,0.72492 3.60494,1.01161 4.15544,0.63707 0.5505,-0.37453 3.51387,-3.83097 6.58526,-7.68097 3.07139,-3.85 7.20978,-8.55078 9.19641,-10.44617 C 163.37457,502.15844 165,499.99618 165,499.2488 165,496.2923 148.63962,491 139.5,491 c -22.81886,0 -44.685502,18.27116 -49.466943,41.33319 -2.515904,12.1348 2.173714,25.99694 11.761253,34.76531 5.87804,5.37583 17.03202,11.47517 18.42942,10.07777 0.43408,-0.43408 2.16409,-4.81382 3.84448,-9.73275 z m 420.13236,-1.04516 c 6.92284,-3.50807 15.17876,-11.51184 18.26697,-17.70906 3.68672,-7.39829 3.40627,-9.08387 -1.84508,-11.08938 -2.40764,-0.91949 -5.20225,-2.5831 -6.21023,-3.69691 -2.28304,-2.52273 -1.26434,-3.32328 6.4389,-5.06006 2.94313,-0.66356 5.56955,-1.77564 5.83649,-2.47129 0.63181,-1.64647 -2.30602,-11.70333 -4.90965,-16.80688 -1.12107,-2.19747 -3.8361,-6.37657 -6.03341,-9.28688 C 545.37058,486.53766 526.28164,479.4983 509.86315,483.35837 502.52369,485.08392 492,489.69798 492,491.19039 c 0,0.52593 3.45795,4.73455 7.68433,9.35248 l 7.68433,8.39624 6.06567,-0.15538 c 7.52315,-0.19272 11.58269,1.77377 15.31994,7.42113 3.82653,5.78228 3.83245,12.898 0.0153,18.40612 l -2.73041,3.93999 5.11349,15.22451 C 534.49426,563.72455 536.75131,569 537.6663,569 c 0.77009,0 3.7105,-1.17074 6.53425,-2.60164 z"
           style="fill:#000000" />
        <path
           id="path834"
           d="m 120.68968,800.44317 c -22.27787,-1.41781 -51.811672,10.41414 -50.15503,39.0588 L 20.586777,808.42993 c 27.511555,-36.62703 65.469707,-29.1462 99.162883,-39.67306 z"
           style="opacity:1;fill:#2a2316;fill-opacity:1;fill-rule:evenodd;stroke:none;stroke-width:0.75590551;stroke-linecap:round;stroke-linejoin:round;stroke-miterlimit:4;stroke-dasharray:none;stroke-dashoffset:0;stroke-opacity:0.98529412;paint-order:markers fill stroke" />
        <path
           style="opacity:1;fill:#866f49;fill-opacity:1;fill-rule:evenodd;stroke:none;stroke-width:1.18043125;stroke-linecap:round;stroke-linejoin:round;stroke-miterlimit:4;stroke-dasharray:none;stroke-dashoffset:0;stroke-opacity:0.98529412;paint-order:markers fill stroke"
           d="m 666.34648,773.58435 c -27.96593,-32.98014 15.74524,-24.06831 -111.4949,-59.26986 -4.69549,7.18411 -5.34154,42.96905 -3.83439,43.27017 35.6088,7.11436 96.01486,42.72538 94.97045,51.33119 -1.64319,13.53958 20.60542,-17.58251 20.35884,-35.3315 z"
           id="path1035" />
        <path
           style="opacity:1;fill:#2a2316;fill-opacity:1;fill-rule:evenodd;stroke:none;stroke-width:0.75590551;stroke-linecap:round;stroke-linejoin:round;stroke-miterlimit:4;stroke-dasharray:none;stroke-dashoffset:0;stroke-opacity:0.98529412;paint-order:markers fill stroke"
           d="m 551.26835,797.55682 c 22.27787,-1.41781 54.4094,13.30049 40.91872,39.63607 21.15239,-5.05959 50.57695,-12.93432 58.89556,-33.09248 -24.98182,-33.03622 -71.94762,-45.64969 -100.02879,-42.84804 z"
           id="path837" />
        <path
           id="path853"
           d="M 306.05329,872.90543 C 268.48689,871.53233 232.09508,868.50487 174,861.9198 133.19142,857.29415 114.46145,854.339 86.5,848.11435 79.002881,846.44537 57.527862,838.05451 45.5,832.09455 25.149591,822.01067 11.150116,810.43414 4.2759283,798.0053 1.1499744,792.35343 0.67375549,790.60506 0.64594393,784.67832 c -0.0176061,-3.75193 0.39235397,-7.12693 0.91102247,-7.5 0.5186685,-0.37308 1.769454,-2.4627 2.7795234,-4.64362 C 9.9929361,760.32146 24.537608,749.66737 48.5,740.18456 c 14.398545,-5.69804 35.876894,-12.42507 51.8042,-16.22511 9.0369,-2.15608 14.08705,-3.84018 14.62321,-4.87647 0.45045,-0.87064 0.36493,-6.75798 -0.19005,-13.08298 -0.55497,-6.325 -1.03921,-26.575 -1.07608,-45 -0.0698,-34.87811 0.70006,-44.86311 5.24098,-67.97578 1.02393,-5.21167 1.67712,-9.95677 1.45152,-10.54466 -0.22559,-0.58789 -3.82081,-2.75652 -7.98937,-4.81918 -14.555517,-7.20226 -23.162817,-18.47596 -25.399495,-33.26783 -3.540861,-23.41685 16.539435,-49.94934 41.834305,-55.27652 11.39141,-2.39906 23.12804,-0.70553 34.3423,4.95541 3.1908,1.61071 6.40828,2.92856 7.14996,2.92856 0.74169,0 3.11702,-1.49645 5.27852,-3.32543 10.22745,-8.65413 29.71989,-19.53189 46.99422,-26.22515 5.23731,-2.02929 9.36323,-4.16707 9.16871,-4.75063 -0.19452,-0.58355 -1.9015,-1.57689 -3.7933,-2.20742 -2.31886,-0.77287 -3.9942,-2.26159 -5.1416,-4.56889 C 220.85225,452.00972 220.48856,448 222.07944,448 c 1.83003,0 14.11517,5.07904 20.06953,8.29733 l 5.64897,3.05324 12.35103,-2.69091 c 6.79307,-1.48 20.22603,-3.89685 29.85103,-5.37077 15.85042,-2.42725 20.23358,-2.68499 46.5,-2.73437 24.5461,-0.0462 32.02043,0.30947 48.66647,2.31549 l 19.66648,2.37001 6.2777,-2.12001 c 7.07157,-2.38811 11.41198,-2.70142 12.52287,-0.90398 0.41335,0.66882 1.00241,2.74364 1.30901,4.61071 0.54488,3.31802 0.80583,3.48137 11.55747,7.23495 14.65559,5.1165 31.19282,13.55629 41,20.92437 4.4,3.3057 8.74157,6.01117 9.64793,6.01215 0.90636,9.9e-4 3.60636,-3.11787 6,-4.48634 12.89015,-7.36946 30.38731,-9.42463 42.35207,-4.54859 23.16491,9.44047 31.68517,23.59674 35.53966,41.20089 1.4442,10.05958 -1.11334,8.83583 -4.1994,8.83583 -2.15195,0 -2.16162,-0.0445 -0.3045,-1.40249 1.7573,-1.28497 1.81975,-1.87097 0.74527,-6.99358 -4.74995,-22.64554 -25.89473,-40.63473 -47.71253,-40.59206 -11.29284,0.0221 -28.6132,6.35088 -28.52244,10.422 0.0261,1.1721 3.51832,5.72952 8.07059,10.53237 l 8.02452,8.46623 6.82361,-0.27858 c 6.39443,-0.26106 7.04633,-0.083 10.36451,2.83037 4.23428,3.71775 7.20123,10.73004 6.22914,14.72237 -0.37409,1.53635 -1.83748,4.56144 -3.25197,6.72241 l -2.5718,3.92904 5.29394,15.91423 c 2.91167,8.75283 5.85274,16.12866 6.53572,16.39075 1.65325,0.63441 8.7316,-2.98947 15.04797,-7.70405 5.80649,-4.33401 12.70901,-10.82814 15.21157,-17.2567 1.60178,-4.11464 0.15898,-5.06379 -1.43717,-6.82727 -1.32937,-1.46893 -1.39259,-1.87172 -0.2919,-1.85973 3.73219,0.0407 5.71757,4.13639 3.94023,9.57028 -3.56018,10.88462 -12.72646,18.91743 -24.39513,25.01061 -7.55319,3.94415 -8.9029,3.12975 -8.15673,5.16491 0.25431,0.6936 1.85541,6.1186 3.558,14.5 5.01066,24.66606 7.73227,51.99329 9.05354,86.25188 0.65729,17.04285 1.5874,31.49224 2.06691,32.10975 0.4795,0.6175 3.67675,1.42843 7.105,1.80205 19.51785,2.12712 51.34019,11.07731 69.2861,19.48704 12.33063,5.77833 24.37295,14.08703 30.95466,21.35744 5.00343,5.52698 7.46148,9.76373 14.8711,25.63212 0.61672,1.32076 1.08622,5.59576 1.04334,9.5 -0.0666,6.06091 -0.59848,8.12884 -3.63859,14.14612 -4.65054,9.20478 -12.06411,17.19031 -22.14141,23.84961 C 623.15979,842.23635 588.02536,852.73025 528,861.4303 456.54471,871.78701 381.54417,875.6647 306.05329,872.90543 Z M 443.5,858.06154 c 39.52589,-2.23866 104.94577,-10.10731 107.80518,-12.96672 0.67854,-0.67854 0.62495,-6.99889 -0.16365,-19.30186 C 550.49662,815.73183 549.533,781.175 549.00015,749 c -1.7304,-104.48665 -3.8287,-129.21281 -14.5542,-171.50525 -9.74433,-38.42346 -19.16808,-56.31501 -41.38615,-78.57399 -12.26301,-12.2856 -24.6346,-20.97543 -40.53167,-28.46953 -9.7861,-4.61331 -23.34911,-9.617 -29.02813,-10.7091 -4.93583,-0.94918 -26.83339,8.52703 -44,19.0411 -33.40323,20.45853 -35.97736,21.87144 -36.95743,20.28565 -1.25225,-2.02618 16.83241,-16.55672 41.70743,-33.51081 7.0125,-4.77951 12.75,-9.31495 12.75,-10.07874 0,-2.87713 -16.71235,-4.56756 -51,-5.15859 -33.08525,-0.5703 -44.02313,0.32804 -76,6.24196 -13.91816,2.57408 -18,3.76624 -18,5.25716 0,0.4745 7.3125,6.71983 16.25,13.87851 C 292.4711,495.09878 302.40347,505 297.6438,505 c -1.58604,0 -5.79148,-3.14139 -26.1651,-19.54482 -14.11584,-11.36512 -26.13689,-19.42493 -31.19495,-20.91544 -2.98639,-0.88004 -17.85682,4.2338 -32.28375,11.10214 -36.30357,17.28333 -61.4855,43.76151 -76.44488,80.37992 -6.89829,16.88602 -13.45492,46.03533 -15.51545,68.9782 -1.96528,21.88221 -1.07757,66.83215 1.95512,99 2.99397,31.75705 5.10557,73.05518 4.87056,95.25694 -0.1475,13.93477 0.13843,24.12987 0.69159,24.65893 0.51868,0.4961 11.51806,2.07035 24.44306,3.49833 52.96203,5.85137 102.12278,9.59795 151.5,11.54592 27.044,1.06691 119.48161,0.49008 144,-0.89858 z M 339,701.40991 c -1.925,-0.8315 -5.15891,-3.12729 -7.18647,-5.10177 l -3.68647,-3.58996 -4.70432,4.14091 c -2.58737,2.2775 -5.42846,4.13903 -6.31353,4.13672 -0.88507,-0.002 -3.82298,-1.1273 -6.52869,-2.5 C 307.87481,697.12312 304.91335,696 303.9995,696 c -3.80277,0 -7.19983,-11.03447 -7.46556,-24.25 -0.1989,-9.89143 -0.0676,-10.75 1.644,-10.75 1.54904,0 1.73154,0.45995 1.09111,2.75 -1.50625,5.38609 -0.60313,18.45416 1.69344,24.50409 2.18502,5.75607 4.20142,7.74591 7.84932,7.74591 1.06882,0 2.5035,0.675 3.18819,1.5 2.27765,2.7444 6.46845,1.78181 10.87942,-2.49889 2.26632,-2.19939 4.13275,-4.56189 4.14763,-5.25 0.0149,-0.68811 0.12737,-9.01598 0.25,-18.50638 0.20302,-15.71259 0.38614,-17.30766 2.04831,-17.84131 1.00395,-0.32232 1.95493,-0.43244 2.1133,-0.24473 0.15837,0.18772 -0.12328,3.94131 -0.62589,8.34131 -0.50261,4.4 -0.77859,13.03422 -0.6133,19.18715 0.29234,10.88239 0.38226,11.27303 3.30053,14.33928 5.85349,6.1503 10.13319,7.22221 16.28984,4.07998 7.32352,-3.73777 7.51492,-4.28879 7.35815,-21.18346 -0.0771,-8.30567 -0.39345,-15.5111 -0.70308,-16.01208 -0.30962,-0.50098 0.36361,-0.91087 1.49607,-0.91087 2.08414,0 2.66774,1.05794 1.32457,2.40112 -0.40395,0.40395 -0.5847,7.2404 -0.40167,15.19212 0.38678,16.80359 -0.0171,17.9305 -7.84862,21.89903 -5.69218,2.88444 -7.19601,2.99929 -12.01526,0.91764 z M 313.44401,626.2489 c -2.7808,-0.99562 -6.8747,-3.3371 -9.09755,-5.20331 -4.46952,-3.75238 -4.47584,-4.10681 -0.24562,-13.77138 C 307.71931,599.00726 318.25188,594 332.02257,594 c 16.88212,0 25.68451,6.0735 27.26816,18.81458 0.42684,3.43412 0.19682,4.43816 -1.12723,4.92019 -0.91492,0.33309 -2.89398,1.61907 -4.3979,2.85774 -5.21696,4.29682 -13.45261,6.6489 -24.7656,7.07298 -8.34174,0.31271 -11.53925,0.0215 -15.55599,-1.41659 z m -88.17498,-8.94189 c 0.97297,-0.25354 2.32297,-0.23687 3,0.0371 0.67703,0.27393 -0.11903,0.48137 -1.76903,0.46099 -1.65,-0.0204 -2.20394,-0.2445 -1.23097,-0.49804 z m -9.8234,-1.78575 C 210.88485,614.08025 203,610.23035 203,609.44449 c 0,-0.28317 1.0125,0.0376 2.25,0.71278 1.2375,0.6752 5.85,2.46908 10.25,3.9864 7.8822,2.71814 7.8367,3.87083 -0.0544,1.37759 z M 276.5,607.26032 c 8.51646,-5.59556 15.86743,-12.51546 21.13131,-19.89212 2.49933,-3.50251 4.75854,-6.3682 5.02045,-6.3682 0.26192,0 -0.56508,1.89545 -1.83778,4.21212 -3.33412,6.06907 -14.74033,17.75813 -20.96935,21.48934 -7.884,4.72256 -10.29491,5.12541 -3.34463,0.55886 z M 428,607.1478 c 10.89744,-3.55865 20.83762,-8.80254 29.01483,-15.30664 l 6.48517,-5.15826 -4,4.25082 c -7.56586,8.04026 -19.69009,14.95489 -30.82695,17.58106 -9.67411,2.28124 -9.97478,1.67057 -0.67305,-1.36698 z m -57.27582,-4.40972 c -6.80801,-3.81675 -14.65967,-10.40679 -17.84768,-14.97987 -1.39344,-1.99885 0.64877,-0.50935 5.28359,3.85359 4.15523,3.91149 10.43157,8.74205 13.94743,10.73458 3.51587,1.99253 5.94248,3.62435 5.39248,3.62628 -0.55,0.002 -3.59912,-1.45364 -6.77582,-3.23458 z M 180.2302,587.25 c -5.43183,-10.24556 -7.68001,-19.45091 -7.63205,-31.25 0.0875,-21.52827 9.41289,-39.1743 26.87435,-50.85324 11.56715,-7.73658 23.51352,-11.28203 40.0275,-11.87939 15.85936,-0.57367 22.99655,0.85776 36.18523,7.25728 21.07937,10.2283 32.24689,29.16894 32.29741,54.77794 0.017,8.63843 -2.30943,22.16331 -3.99119,23.20269 -1.65591,1.02342 -2.05573,-1.47781 -0.59576,-3.72703 3.93241,-6.05825 4.42622,-23.92358 1.02579,-37.11201 C 298.03132,512.88223 275.19344,495.61448 247,494.24979 223.47303,493.11097 204.47128,500.2768 189.81233,515.81606 178.11238,528.21862 174,538.51215 174,555.39524 c 0,15.96397 5.07954,31.83367 10.6356,33.22815 3.51365,0.88187 40.68514,-1.14963 57.8644,-3.16242 7.15,-0.83772 20.12746,-2.63414 28.83881,-3.99205 8.71134,-1.3579 16.32384,-2.46892 16.91666,-2.46892 6.55597,0 -22.2756,5.55821 -41.39852,7.9809 -8.60368,1.09 -25.25368,2.48046 -37,3.08991 -11.74632,0.60945 -22.13834,1.51784 -23.09338,2.01864 -2.872,1.50602 -3.36143,1.14348 -6.53337,-4.83945 z m 283.97607,-4.44373 c -0.78101,-0.78101 -10.6161,-1.05017 -32.91008,-0.90065 -23.12973,0.15513 -36.42431,-0.22906 -48.7762,-1.40953 -9.33901,-0.89253 -17.21401,-1.86671 -17.5,-2.16483 -0.286,-0.29813 6.23001,-0.15713 14.48001,0.31334 8.25,0.47047 30.61987,0.84393 49.71081,0.82991 40.79106,-0.03 38.68606,0.51499 42.68182,-11.04968 4.59902,-13.31066 3.71321,-29.44797 -2.45547,-44.73251 -8.80309,-21.81198 -31.75925,-36.73331 -56.41706,-36.67068 -21.69474,0.0551 -42.7469,9.02161 -56.27192,23.96724 -13.67294,15.10909 -19.10226,36.85154 -13.64812,54.65578 1.15503,3.77044 2.73003,7.56577 3.5,8.43408 1.76626,1.99185 1.77765,2.92126 0.0358,2.92126 -1.5249,0 -3.70077,-5.27009 -6.19308,-15 -4.46336,-17.4249 3.18367,-41.08177 17.8457,-55.20743 14.70914,-14.17106 32.5193,-21.18869 53.71152,-21.16366 13.88741,0.0164 21.20948,1.74919 32.30917,7.64604 17.95645,9.53959 28.43932,25.97735 31.68526,49.68439 1.62669,11.88066 -0.30339,22.76677 -6.05747,34.16553 -3.23813,6.4147 -4.12156,7.29053 -5.73069,5.6814 z m -265.45872,-5.87561 c -2.06385,-1.08953 -4.98885,-3.84928 -6.5,-6.13278 C 189.85238,567.17854 189.5,565.66543 189.5,559 c 0,-6.66784 0.35197,-8.17792 2.75112,-11.80327 6.69263,-10.11326 20.43106,-11.01742 28.45995,-1.87302 6.91369,7.87426 6.91369,19.47832 0,27.35258 -5.6577,6.44376 -14.55251,8.1667 -21.96352,4.25437 z m 21.42371,-8.58565 c 3.48568,-3.15449 1.82442,-9.4029 -2.87011,-10.79519 -4.78601,-1.41942 -8.49558,7.11289 -4.72972,10.87875 2.03797,2.03797 5.29513,2.00216 7.59983,-0.0836 z m 140.09777,8.962 c 0.97297,-0.25354 2.32297,-0.23687 3,0.0371 0.67703,0.27393 -0.11903,0.48137 -1.76903,0.46099 -1.65,-0.0204 -2.20394,-0.2445 -1.23097,-0.49804 z m 6.70093,-5.55701 c -10.35241,-5.22988 -13.73907,-18.64173 -7.42715,-29.41297 6.86485,-11.71481 23.04953,-11.71481 29.91438,0 4.53836,7.74468 4.28329,16.24354 -0.71314,23.76193 C 386.13434,570.02593 378.96986,574 374.5,574 c -1.69192,0 -5.08044,-1.0125 -7.53004,-2.25 z M 387,563 c 3.87844,-3.87844 1.35757,-11 -3.89377,-11 -4.45704,0 -6.77398,7.49967 -3.45124,11.17126 2.15639,2.38279 4.85386,2.31989 7.34501,-0.17126 z M 101,843.12955 c 15.43819,-8.20651 18.01495,-9.74761 18.60888,-11.12955 0.35457,-0.825 0.86975,-7.41609 1.14485,-14.64687 0.60571,-15.92077 0.83044,-15.644 -11.57573,-14.256 -16.893799,1.89006 -31.489675,10.89269 -35.277693,21.759 -2.159191,6.19386 3.472496,10.37276 8.877187,6.58717 C 83.999872,830.58711 85,830.33147 85,830.8752 c 0,0.54374 -1.35,1.9499 -3,3.1248 -3.942164,2.80707 -3.923466,6.23038 0.05576,10.20961 2.844572,2.84457 3.414749,3.01387 8.25,2.44967 2.856834,-0.33334 7.66924,-1.92172 10.69424,-3.52973 z m 484.63968,-0.58972 c 1.14658,-0.8031 2.68028,-2.89808 3.40824,-4.65551 1.29,-3.11435 1.2238,-3.27973 -2.61218,-6.52495 -4.2637,-3.60707 -4.04682,-4.24385 0.62295,-1.82902 3.66083,1.89309 6.61118,0.63316 7.58283,-3.2382 0.84762,-3.37718 -2.65813,-10.22153 -7.34206,-14.33408 -7.2088,-6.32941 -23.32708,-12.41511 -31.15295,-11.76227 L 552.5,800.5 l 0.22896,13 c 0.33979,19.29359 0.14509,18.74177 8.32808,23.60319 11.494,6.82847 19.93143,8.69447 24.58264,5.43664 z m -467.09856,-1.60636 c 1.01373,-1.64026 -0.18164,-2.24051 -3.03545,-1.52425 -1.42311,0.35718 -2.3175,1.08622 -1.98755,1.6201 0.80459,1.30185 4.19921,1.23707 5.023,-0.0958 z M 559.75047,840.75 C 559.12044,838.85781 556,838.5888 556,840.42668 c 0,0.92763 0.855,1.57332 2.08333,1.57332 1.22198,0 1.91126,-0.51682 1.66714,-1.25 z m 48.78302,-10.19217 c 10.34952,-3.46317 21.34375,-8.51052 29.21472,-13.41223 4.92388,-3.06638 5.1977,-4.56828 2.25303,-12.35809 -5.74777,-15.20508 -23.10854,-27.25915 -50.69601,-35.19966 -15.33634,-4.41426 -35.09952,-7.53874 -36.21973,-5.72619 0.13222,2.60605 0.80533,31.91956 1.29791,32.37303 0.61412,0.40408 2.69159,0.74692 4.61659,0.76187 8.31784,0.0646 21.61067,5.36428 29.23412,11.65527 8.12438,6.70438 12.01908,16.98692 8.29768,21.90704 -3.39739,4.49176 -1.42434,4.49158 12.00169,-10e-4 z M 70.009384,827.75 c 0.01395,-4.83188 5.158749,-12.96902 10.833656,-17.13478 9.340349,-6.85645 23.12547,-11.55456 34.03021,-11.59786 L 119.24651,799 118.81973,787.0298 c -0.23473,-6.5836 -0.74559,-12.28899 -1.13523,-12.67864 -1.65219,-1.65218 -42.017769,4.64837 -56.1845,8.76969 -11.818641,3.43822 -22.826367,9.31745 -29.987494,16.01633 C 27.362427,803.01938 25,806.01766 25,807.40256 c 0,3.51521 14.954679,12.55187 33.5,20.24306 10.290768,4.26782 11.497331,4.27876 11.509384,0.10438 z M 22.000593,798.99857 c 0.927263,-2.23861 0.952794,-4.44522 0.107587,-9.29876 C 21.498681,786.19981 21,780.58709 21,777.2271 c 0,-3.35998 -0.422769,-6.37035 -0.939486,-6.6897 -1.219697,-0.75381 -5.579942,3.97214 -7.797993,8.45203 -3.351026,6.76822 -1.617511,16.58495 4.017035,22.74808 2.356084,2.57712 3.806722,1.88262 5.721037,-2.73894 z m 635.388647,0.0276 c 7.44358,-13.67631 4.09966,-29.56411 -9.30026,-44.18776 -13.75885,-15.01536 -32.23763,-24.13117 -63.40103,-31.2765 C 575.4475,721.4432 574.12174,721.54961 573,724.5 c -1.20481,3.1689 -3,3.24217 -3,0.12244 0,-2.98943 -2.20015,-4.87375 -5.19496,-4.4492 -1.93198,0.27387 -2.44919,1.17646 -3.19568,5.57676 -0.48986,2.8875 -1.22487,5.25 -1.63337,5.25 -0.99207,0 -1.94549,-3.7483 -1.96234,-7.71482 -0.0163,-3.82704 -3.17642,-6.22491 -5.57757,-4.23213 -0.18939,12.74416 -0.21878,27.42734 0.39369,34.87944 0.69648,1.30138 1.84181,1.99557 6.3841,2.50237 20.03175,2.235 40.36765,7.86949 57.02806,15.80083 5.90806,2.81258 11.03382,4.82189 11.39058,4.46513 0.35676,-0.35676 1.00717,-6.55717 1.44537,-13.7787 0.43819,-7.22152 1.04993,-13.38326 1.35941,-13.69275 1.57891,-1.5789 2.06271,2.36373 2.06271,16.80944 0,16.07566 0.60441,18.90257 3.78085,17.68366 0.93882,-0.36026 1.63517,-2.90903 2.06845,-7.57093 0.35924,-3.8653 1.2122,-8.29316 1.89547,-9.83968 1.083,-2.45127 1.30726,-0.93324 1.74877,11.83741 0.4321,12.49841 0.78302,14.95424 2.39011,16.72642 1.036,1.14243 2.20193,1.88044 2.59094,1.64001 0.38902,-0.24042 1.51407,-3.49231 2.50012,-7.22642 2.91149,-11.0256 3.84899,-10.15533 3.18947,2.96072 -0.68223,13.56763 0.27867,14.94565 4.72506,6.77617 z M 32.465877,787.84818 c 2.608123,-2.05155 2.722199,-2.50587 2.448123,-9.75 C 34.476078,766.5234 34.813691,763 36.360709,763 c 1.421308,0 2.613944,6.66046 2.630599,14.69098 0.0048,2.30504 0.437555,4.45604 0.96172,4.77999 0.524166,0.32395 2.661666,-0.21324 4.75,-1.19376 3.609341,-1.69467 3.811908,-2.04207 4.099232,-7.02999 C 49.162255,767.99771 50.511336,767.47153 52,773 c 1.239864,4.6045 2.47658,4.89543 10.484632,2.46639 6.405185,-1.94284 28.792871,-6.01455 43.372818,-7.88833 6.2466,-0.8028 11.60753,-1.70971 11.91317,-2.01535 0.70012,-0.70012 -1.39154,-30.44695 -2.30724,-32.81271 -0.44948,-1.16126 -1.75454,-1.75 -3.87924,-1.75 -3.95099,0 -6.34199,1.73991 -6.7634,4.92167 -0.4226,3.19076 -2.57653,3.82816 -2.99385,0.88596 -0.27741,-1.9558 -0.8609,-2.2769 -3.827102,-2.10606 C 89.640059,735.18305 57.773743,746.51609 42,754.61751 c -13.670331,7.02111 -20.407822,11.94173 -19.444252,14.20082 0.394507,0.92492 1.467566,5.51929 2.384577,10.20972 2.337093,11.95401 2.82078,12.5209 7.525552,8.82013 z M 125.23069,567.49142 c 2.05188,-6.04528 3.7337,-11.66642 3.73738,-12.49142 0.004,-0.825 -2.42651,-3.63381 -5.40043,-6.24179 -6.63663,-5.82003 -8.38021,-10.09938 -6.57462,-16.13644 1.81934,-6.08298 4.50357,-9.2641 9.39253,-11.13121 4.45863,-1.70277 6.37163,-1.48152 17.20795,1.99015 1.69001,0.54143 2.93256,-0.35573 6.44702,-4.655 2.39444,-2.92914 7.22858,-8.35956 10.74254,-12.0676 3.51396,-3.70804 6.21514,-7.30804 6.00263,-8 -0.21251,-0.69196 -2.61372,-2.34466 -5.33603,-3.67267 -19.28588,-9.40813 -42.2629,-5.4757 -57.48676,9.83862 -7.819612,7.86608 -13.317562,17.84297 -15.068086,27.3434 -2.409017,13.07421 2.611578,27.62865 12.538776,36.34927 5.48979,4.82254 16.07502,10.62142 18.53762,10.15542 0.96631,-0.18286 2.9014,-4.33332 5.25948,-11.28073 z"
           style="fill:#000000" />
      </g>
    </g>
  </g>
</svg>
