<?xml version="1.0" encoding="UTF-8" standalone="no"?>
<svg
   xmlns:dc="http://purl.org/dc/elements/1.1/"
   xmlns:cc="http://creativecommons.org/ns#"
   xmlns:rdf="http://www.w3.org/1999/02/22-rdf-syntax-ns#"
   xmlns:svg="http://www.w3.org/2000/svg"
   xmlns="http://www.w3.org/2000/svg"
   id="svg8"
   version="1.1"
   viewBox="0 0 65.585082 64.651213"
   height="64.651215mm"
   width="65.585083mm">
  <defs
     id="defs2" />
  <metadata
     id="metadata5">
    <rdf:RDF>
      <cc:Work
         rdf:about="">
        <dc:format>image/svg+xml</dc:format>
        <dc:type
           rdf:resource="http://purl.org/dc/dcmitype/StillImage" />
        <dc:title></dc:title>
      </cc:Work>
    </rdf:RDF>
  </metadata>
  <g
     transform="translate(-76.820557,-97.995835)"
     id="layer1">
    <g
       transform="translate(10.855055)"
       id="g853">
      <path
         style="fill:#000000;stroke-width:0.26458335"
         d="m 76.166807,136.1552 c -4.240673,-1.34467 -7.381065,-4.97907 -8.081198,-9.35245 -0.662096,-4.13577 1.338152,-8.68339 4.863627,-11.05758 1.298844,-0.87469 1.380185,-1.00069 1.829212,-2.83334 1.325168,-5.40853 4.967528,-10.13194 9.729975,-12.61782 7.672561,-4.004894 16.488397,-2.70335 22.630137,3.34105 1.48744,1.46386 3.58197,4.43405 3.94119,5.58889 0.15486,0.49782 0.32097,0.58289 0.89485,0.45824 4.35958,-0.94694 7.62662,-0.53791 10.8658,1.36038 7.98408,4.67898 9.05937,16.0508 2.09389,22.14403 -2.63515,2.30516 -5.57103,3.33161 -9.54301,3.33645 l -13.6922,0.003 v -1.6818 -1.68179 l 13.88209,-0.14135 c 2.33926,-0.0238 3.03156,-0.26395 4.44431,-0.92505 2.02507,-0.94765 3.32323,-2.04735 4.38339,-3.71326 2.99471,-4.70589 1.67598,-10.90857 -2.96617,-13.95137 -3.09367,-2.02782 -6.60938,-2.22087 -10.11623,-0.55547 -1.06853,0.50744 -1.98909,0.84044 -2.04568,0.74 -0.0566,-0.10044 -0.31201,-0.83747 -0.56759,-1.63783 -2.09404,-6.55775 -7.56182,-10.94921 -14.085176,-11.31255 -3.13878,-0.17483 -5.19155,0.2284 -7.983498,1.5682 -4.88534,2.34438 -8.73434,8.04795 -8.754017,12.97198 -0.0038,0.94126 -0.06863,1.00956 -1.69695,1.78668 -1.802887,0.86044 -2.962532,1.98046 -3.924557,3.79044 -0.852738,1.60437 -0.852738,5.1278 0,6.73216 0.9271,1.74428 2.085115,2.89955 3.696849,3.6881 1.299763,0.63591 1.868656,0.73915 4.612113,0.83697 l 4.716968,0.11158 v 1.68717 1.68719 l -4.828646,-0.0177 c -1.833107,-0.01 -3.700915,-0.16349 -4.299479,-0.35329 z"
         id="path828" />
      <path
         style="fill:#000000;stroke-width:0.05315988"
         d="m 87.140143,109.45922 c 0.229065,0.22563 1.045366,0.99925 1.813954,1.71922 l 1.39739,1.30906 -0.01481,2.44998 c -0.0081,1.34749 -3.56e-4,2.44998 0.01723,2.44998 0.01763,0 0.144024,-0.28479 0.280945,-0.63286 0.329768,-0.83837 0.89936,-1.97448 1.320228,-2.63339 0.187281,-0.29323 0.364069,-0.55665 0.392845,-0.58543 0.0288,-0.0288 0.555096,-0.052 1.169587,-0.0513 l 1.117246,8.1e-4 0.174515,0.22968 c 0.495767,0.65236 1.204526,1.99303 1.632769,3.08845 0.109501,0.2801 0.208758,0.51895 0.220587,0.53076 0.01186,0.0119 0.02173,-1.07527 0.02194,-2.41577 l 4.4e-4,-2.43727 1.77082,-1.67427 c 0.973938,-0.92086 1.785741,-1.67478 1.803951,-1.67545 0.0183,-6.3e-4 0.0332,1.76505 0.0333,3.92379 l 1.5e-4,3.92497 -1.31259,1.90135 c -0.721938,1.04575 -1.332333,1.936 -1.356441,1.97833 -0.02414,0.0423 0.0042,0.44144 0.06329,0.88692 0.322258,2.43661 0.306945,5.21507 -0.04177,7.5808 -0.157498,1.06861 -0.615055,3.2822 -0.694958,3.36209 -0.0063,0.006 -0.08722,-0.0421 -0.178803,-0.10844 -0.283718,-0.20548 -0.932117,-0.51577 -1.466387,-0.70171 -1.190315,-0.41426 -2.529701,-0.40053 -3.712336,0.0381 -0.434314,0.16107 -1.31586,0.60414 -1.430907,0.71918 -0.0411,0.0411 -0.08337,0.0661 -0.09395,0.0555 -0.03066,-0.0306 -0.31155,-1.24826 -0.455874,-1.97628 -0.597405,-3.0136 -0.680205,-6.30715 -0.231637,-9.21375 0.07516,-0.48683 0.07071,-0.55128 -0.05097,-0.73838 -0.07329,-0.11276 -0.689745,-1.01015 -1.369845,-1.99424 l -1.236522,-1.78924 4e-5,-3.96569 3.2e-5,-3.96568 z m 4.036269,24.86733 c 0.949784,-0.61413 1.768432,-0.84908 2.675972,-0.76797 0.663711,0.0593 1.626143,0.46691 2.308758,0.97775 l 0.196058,0.14675 -0.24396,0.68337 c -0.324283,0.9084 -0.964155,2.39719 -1.442589,3.35652 -0.421596,0.84539 -1.10363,2.04527 -1.162556,2.04527 -0.05695,0 -0.644141,-1.03539 -1.119956,-1.97474 -0.796335,-1.57213 -1.786004,-4.04524 -1.663693,-4.15743 0.03543,-0.032 0.238523,-0.17148 0.45195,-0.30951 z"
         id="path841" />
    </g>
    <g
       id="text845"
       style="font-style:normal;font-variant:normal;font-weight:normal;font-stretch:normal;font-size:10.58333302px;line-height:1.25;font-family:serif;-inkscape-font-specification:serif;letter-spacing:0px;word-spacing:0px;fill:#000000;fill-opacity:1;stroke:none;stroke-width:0.26458332"
       aria-label="Download">
      <path
         id="path859"
         style="font-style:normal;font-variant:normal;font-weight:normal;font-stretch:normal;font-family:Geometos;-inkscape-font-specification:Geometos;text-align:center;text-anchor:middle;stroke-width:0.26458332"
         d="m 79.879141,151.91554 h -3.058584 v -7.747 h 3.058584 q 1.661583,0 2.730499,0.97367 0.5715,0.51858 0.85725,1.25942 0.296334,0.73025 0.296334,1.64041 0,0.92075 -0.296334,1.66159 -0.28575,0.73025 -0.85725,1.24883 -0.518583,0.47625 -1.217083,0.71967 -0.687916,0.24341 -1.513416,0.24341 z m -1.576917,-1.31233 h 1.576917 q 0.41275,0 0.836083,-0.0952 0.423333,-0.0952 0.762,-0.37042 0.34925,-0.28575 0.5715,-0.78316 0.22225,-0.49742 0.22225,-1.30175 0,-0.80434 -0.22225,-1.30175 -0.22225,-0.508 -0.5715,-0.78317 -0.34925,-0.27517 -0.772583,-0.37042 -0.423334,-0.0952 -0.8255,-0.0952 h -1.576917 z" />
      <path
         id="path861"
         style="font-style:normal;font-variant:normal;font-weight:normal;font-stretch:normal;font-family:Geometos;-inkscape-font-specification:Geometos;text-align:center;text-anchor:middle;stroke-width:0.26458332"
         d="m 88.749628,152.06371 q -0.8255,0 -1.55575,-0.3175 -0.73025,-0.3175 -1.280584,-0.85725 -0.53975,-0.55033 -0.85725,-1.28058 -0.3175,-0.73025 -0.3175,-1.56634 0,-0.8255 0.3175,-1.55575 0.3175,-0.74083 0.85725,-1.28058 0.550334,-0.55033 1.280584,-0.86783 0.73025,-0.3175 1.55575,-0.3175 0.836083,0 1.566333,0.3175 0.73025,0.3175 1.27,0.86783 0.550333,0.53975 0.867833,1.28058 0.3175,0.73025 0.3175,1.55575 0,0.83609 -0.3175,1.56634 -0.3175,0.73025 -0.867833,1.28058 -0.53975,0.53975 -1.27,0.85725 -0.73025,0.3175 -1.566333,0.3175 z m 0,-6.65692 q -0.529167,0 -0.994834,0.22225 -0.455083,0.21167 -0.804333,0.5715 -0.338667,0.35984 -0.53975,0.84667 -0.201083,0.47625 -0.201083,0.99483 0,0.52917 0.201083,1.00542 0.201083,0.47625 0.53975,0.84667 0.34925,0.35983 0.804333,0.58208 0.465667,0.21167 0.994834,0.21167 0.529166,0 0.984249,-0.21167 0.465667,-0.22225 0.804334,-0.58208 0.34925,-0.37042 0.550333,-0.84667 0.201083,-0.47625 0.201083,-1.00542 0,-0.51858 -0.201083,-0.99483 -0.201083,-0.48683 -0.550333,-0.84667 -0.338667,-0.35983 -0.804334,-0.5715 -0.455083,-0.22225 -0.984249,-0.22225 z" />
      <path
         id="path863"
         style="font-style:normal;font-variant:normal;font-weight:normal;font-stretch:normal;font-family:Geometos;-inkscape-font-specification:Geometos;text-align:center;text-anchor:middle;stroke-width:0.26458332"
         d="m 103.28534,144.17913 -2.88925,7.73641 h -0.14817 l -2.095497,-4.5085 -2.116667,4.51909 h -0.137583 l -2.8575,-7.747 h 1.576917 l 1.513416,4.24391 1.9685,-4.24391 h 0.09525 l 1.968504,4.2545 1.54516,-4.2545 z" />
      <path
         id="path865"
         style="font-style:normal;font-variant:normal;font-weight:normal;font-stretch:normal;font-family:Geometos;-inkscape-font-specification:Geometos;text-align:center;text-anchor:middle;stroke-width:0.26458332"
         d="m 110.80199,151.91554 -5.10117,-4.60375 v 4.60375 h -1.47108 v -7.73641 h 0.15875 l 5.09058,4.67783 v -4.67783 h 1.48167 v 7.73641 z" />
      <path
         id="path867"
         style="font-style:normal;font-variant:normal;font-weight:normal;font-stretch:normal;font-family:Geometos;-inkscape-font-specification:Geometos;text-align:center;text-anchor:middle;stroke-width:0.26458332"
         d="m 118.24075,150.60321 v 1.31233 h -5.57742 v -7.747 h 1.48167 v 6.43467 z" />
      <path
         id="path869"
         style="font-style:normal;font-variant:normal;font-weight:normal;font-stretch:normal;font-family:Geometos;-inkscape-font-specification:Geometos;text-align:center;text-anchor:middle;stroke-width:0.26458332"
         d="m 122.35998,152.06371 q -0.8255,0 -1.55575,-0.3175 -0.73025,-0.3175 -1.28058,-0.85725 -0.53975,-0.55033 -0.85725,-1.28058 -0.3175,-0.73025 -0.3175,-1.56634 0,-0.8255 0.3175,-1.55575 0.3175,-0.74083 0.85725,-1.28058 0.55033,-0.55033 1.28058,-0.86783 0.73025,-0.3175 1.55575,-0.3175 0.83608,0 1.56633,0.3175 0.73025,0.3175 1.27,0.86783 0.55034,0.53975 0.86784,1.28058 0.3175,0.73025 0.3175,1.55575 0,0.83609 -0.3175,1.56634 -0.3175,0.73025 -0.86784,1.28058 -0.53975,0.53975 -1.27,0.85725 -0.73025,0.3175 -1.56633,0.3175 z m 0,-6.65692 q -0.52917,0 -0.99483,0.22225 -0.45509,0.21167 -0.80434,0.5715 -0.33866,0.35984 -0.53975,0.84667 -0.20108,0.47625 -0.20108,0.99483 0,0.52917 0.20108,1.00542 0.20109,0.47625 0.53975,0.84667 0.34925,0.35983 0.80434,0.58208 0.46566,0.21167 0.99483,0.21167 0.52917,0 0.98425,-0.21167 0.46567,-0.22225 0.80433,-0.58208 0.34925,-0.37042 0.55034,-0.84667 0.20108,-0.47625 0.20108,-1.00542 0,-0.51858 -0.20108,-0.99483 -0.20109,-0.48683 -0.55034,-0.84667 -0.33866,-0.35983 -0.80433,-0.5715 -0.45508,-0.22225 -0.98425,-0.22225 z" />
      <path
         id="path871"
         style="font-style:normal;font-variant:normal;font-weight:normal;font-stretch:normal;font-family:Geometos;-inkscape-font-specification:Geometos;text-align:center;text-anchor:middle;stroke-width:0.26458332"
         d="m 126.49426,151.91554 3.95816,-7.73641 h 0.14817 l 3.95817,7.73641 h -1.60867 l -0.60325,-1.21708 h -3.65125 l -0.59267,1.21708 z m 2.921,-2.50825 h 2.21191 l -1.10066,-2.33891 z" />
      <path
         id="path873"
         style="font-style:normal;font-variant:normal;font-weight:normal;font-stretch:normal;font-family:Geometos;-inkscape-font-specification:Geometos;text-align:center;text-anchor:middle;stroke-width:0.26458332"
         d="m 138.52155,151.91554 h -3.05858 v -7.747 h 3.05858 q 1.66159,0 2.7305,0.97367 0.5715,0.51858 0.85725,1.25942 0.29634,0.73025 0.29634,1.64041 0,0.92075 -0.29634,1.66159 -0.28575,0.73025 -0.85725,1.24883 -0.51858,0.47625 -1.21708,0.71967 -0.68792,0.24341 -1.51342,0.24341 z m -1.57691,-1.31233 h 1.57691 q 0.41275,0 0.83609,-0.0952 0.42333,-0.0952 0.762,-0.37042 0.34925,-0.28575 0.5715,-0.78316 0.22225,-0.49742 0.22225,-1.30175 0,-0.80434 -0.22225,-1.30175 -0.22225,-0.508 -0.5715,-0.78317 -0.34925,-0.27517 -0.77259,-0.37042 -0.42333,-0.0952 -0.8255,-0.0952 h -1.57691 z" />
    </g>
    <g
       id="text857"
       style="font-style:normal;font-variant:normal;font-weight:normal;font-stretch:normal;font-size:10.58333302px;line-height:1.25;font-family:serif;-inkscape-font-specification:serif;letter-spacing:0px;word-spacing:0px;fill:#000000;fill-opacity:1;stroke:none;stroke-width:0.26458332"
       aria-label="autopwn">
      <path
         id="path876"
         style="font-style:normal;font-variant:normal;font-weight:normal;font-stretch:normal;font-family:Geometos;-inkscape-font-specification:Geometos;text-align:center;text-anchor:middle;stroke-width:0.26458332"
         d="m 81.557769,162.49889 3.958166,-7.73642 h 0.148167 l 3.958166,7.73642 h -1.608666 l -0.60325,-1.21709 h -3.65125 l -0.592667,1.21709 z m 2.921,-2.50825 h 2.211916 l -1.100666,-2.33892 z" />
      <path
         id="path878"
         style="font-style:normal;font-variant:normal;font-weight:normal;font-stretch:normal;font-family:Geometos;-inkscape-font-specification:Geometos;text-align:center;text-anchor:middle;stroke-width:0.26458332"
         d="m 93.353555,162.63647 q -0.751417,0 -1.36525,-0.23283 -0.613833,-0.23284 -1.04775,-0.65617 -0.433917,-0.42333 -0.677333,-1.02658 -0.232834,-0.60325 -0.232834,-1.34409 v -4.61433 h 1.481667 v 4.61433 q 0,0.58209 0.1905,0.96309 0.1905,0.381 0.465667,0.60325 0.28575,0.22225 0.60325,0.30691 0.328083,0.0847 0.582083,0.0847 0.254,0 0.5715,-0.0847 0.328083,-0.0847 0.60325,-0.30691 0.28575,-0.22225 0.47625,-0.60325 0.1905,-0.381 0.1905,-0.96309 v -4.61433 h 1.481667 v 4.61433 q 0,0.74084 -0.232834,1.34409 -0.232833,0.60325 -0.66675,1.02658 -0.433916,0.42333 -1.04775,0.65617 -0.613833,0.23283 -1.375833,0.23283 z" />
      <path
         id="path880"
         style="font-style:normal;font-variant:normal;font-weight:normal;font-stretch:normal;font-family:Geometos;-inkscape-font-specification:Geometos;text-align:center;text-anchor:middle;stroke-width:0.26458332"
         d="m 103.49338,156.06422 h -2.21192 v 6.43467 h -1.481663 v -6.43467 h -2.2225 v -1.31233 h 5.916083 z" />
      <path
         id="path882"
         style="font-style:normal;font-variant:normal;font-weight:normal;font-stretch:normal;font-family:Geometos;-inkscape-font-specification:Geometos;text-align:center;text-anchor:middle;stroke-width:0.26458332"
         d="m 107.95392,162.64705 q -0.8255,0 -1.55575,-0.3175 -0.73025,-0.3175 -1.28058,-0.85725 -0.53975,-0.55033 -0.85725,-1.28058 -0.3175,-0.73025 -0.3175,-1.56633 0,-0.8255 0.3175,-1.55575 0.3175,-0.74084 0.85725,-1.28059 0.55033,-0.55033 1.28058,-0.86783 0.73025,-0.3175 1.55575,-0.3175 0.83609,0 1.56634,0.3175 0.73025,0.3175 1.27,0.86783 0.55033,0.53975 0.86783,1.28059 0.3175,0.73025 0.3175,1.55575 0,0.83608 -0.3175,1.56633 -0.3175,0.73025 -0.86783,1.28058 -0.53975,0.53975 -1.27,0.85725 -0.73025,0.3175 -1.56634,0.3175 z m 0,-6.65691 q -0.52916,0 -0.99483,0.22225 -0.45508,0.21166 -0.80433,0.5715 -0.33867,0.35983 -0.53975,0.84666 -0.20109,0.47625 -0.20109,0.99484 0,0.52916 0.20109,1.00541 0.20108,0.47625 0.53975,0.84667 0.34925,0.35983 0.80433,0.58208 0.46567,0.21167 0.99483,0.21167 0.52917,0 0.98425,-0.21167 0.46567,-0.22225 0.80434,-0.58208 0.34925,-0.37042 0.55033,-0.84667 0.20108,-0.47625 0.20108,-1.00541 0,-0.51859 -0.20108,-0.99484 -0.20108,-0.48683 -0.55033,-0.84666 -0.33867,-0.35984 -0.80434,-0.5715 -0.45508,-0.22225 -0.98425,-0.22225 z" />
      <path
         id="path884"
         style="font-style:normal;font-variant:normal;font-weight:normal;font-stretch:normal;font-family:Geometos;-inkscape-font-specification:Geometos;text-align:center;text-anchor:middle;stroke-width:0.26458332"
         d="m 116.73495,154.75189 q 0.5715,0 1.06892,0.22225 0.508,0.21166 0.87841,0.58208 0.37042,0.37042 0.58209,0.87842 0.22225,0.49741 0.22225,1.06891 0,0.5715 -0.1905,1.05834 -0.1905,0.48683 -0.56092,0.85725 -0.37042,0.35983 -0.94192,0.5715 -0.56091,0.20108 -1.30175,0.20108 h -1.72508 v 2.30717 h -1.48167 v -7.747 z m 0,4.10633 q 0.32808,0 0.5715,-0.10583 0.24342,-0.11642 0.39158,-0.30692 0.15875,-0.1905 0.23284,-0.43392 0.0741,-0.24341 0.0741,-0.508 0,-0.26458 -0.0952,-0.51858 -0.0953,-0.26458 -0.27517,-0.46567 -0.17991,-0.20108 -0.4445,-0.32808 -0.26458,-0.127 -0.61383,-0.127 h -1.80975 v 2.794 z" />
      <path
         id="path886"
         style="font-style:normal;font-variant:normal;font-weight:normal;font-stretch:normal;font-family:Geometos;-inkscape-font-specification:Geometos;text-align:center;text-anchor:middle;stroke-width:0.26458332"
         d="m 129.99305,154.76247 -2.88925,7.73642 h -0.14816 l -2.0955,-4.5085 -2.11667,4.51908 h -0.13758 l -2.8575,-7.747 h 1.57691 l 1.51342,4.24392 1.9685,-4.24392 h 0.0952 l 1.9685,4.2545 1.54517,-4.2545 z" />
      <path
         id="path888"
         style="font-style:normal;font-variant:normal;font-weight:normal;font-stretch:normal;font-family:Geometos;-inkscape-font-specification:Geometos;text-align:center;text-anchor:middle;stroke-width:0.26458332"
         d="m 137.5097,162.49889 -5.10117,-4.60375 v 4.60375 h -1.47108 v -7.73642 h 0.15875 l 5.09058,4.67783 v -4.67783 h 1.48167 v 7.73642 z" />
    </g>
  </g>
</svg>
