<?xml version="1.0" encoding="UTF-8" standalone="no"?>
<svg
   xmlns:dc="http://purl.org/dc/elements/1.1/"
   xmlns:cc="http://creativecommons.org/ns#"
   xmlns:rdf="http://www.w3.org/1999/02/22-rdf-syntax-ns#"
   xmlns:svg="http://www.w3.org/2000/svg"
   xmlns="http://www.w3.org/2000/svg"
   id="svg8"
   version="1.1"
   viewBox="0 0 178.23408 71.901348"
   height="291.16406pt"
   width="721.75775pt">
  <defs
     id="defs2" />
  <metadata
     id="metadata5">
    <rdf:RDF>
      <cc:Work
         rdf:about="">
        <dc:format>image/svg+xml</dc:format>
        <dc:type
           rdf:resource="http://purl.org/dc/dcmitype/StillImage" />
        <dc:title></dc:title>
      </cc:Work>
    </rdf:RDF>
  </metadata>
  <g
     transform="translate(47.484308,-121.54663)"
     id="layer1">
    <path
       d="m -31.423272,138.49319 v 10.14016 h -3.420567 v -25.28094 h 9.671348 q 4.045645,0 6.285508,2.08359 2.239864,2.0836 2.239864,5.4868 0,3.45529 -2.239864,5.52152 -2.239863,2.04887 -6.285508,2.04887 z m 0,-2.67395 h 6.250781 q 2.569766,0 3.837286,-1.37169 1.267519,-1.38907 1.267519,-3.49002 0,-2.10096 -1.284883,-3.50739 -1.267519,-1.40642 -3.819922,-1.40642 h -6.250781 z"
       style="font-style:normal;font-variant:normal;font-weight:normal;font-stretch:normal;font-size:35.56000137px;line-height:1.25;font-family:Roboto;-inkscape-font-specification:Roboto;text-align:center;letter-spacing:0px;word-spacing:0px;text-anchor:middle;fill:#ffffff;fill-opacity:1;stroke:none;stroke-width:0.18520834"
       id="path1477" />
    <path
       d="m -9.0072748,148.63335 h -3.4205662 v -18.78707 h 3.4205662 z m 0,-23.5967 h -3.4205662 v -3.49002 h 3.4205662 z"
       style="font-style:normal;font-variant:normal;font-weight:normal;font-stretch:normal;font-size:35.56000137px;line-height:1.25;font-family:Roboto;-inkscape-font-specification:Roboto;text-align:center;letter-spacing:0px;word-spacing:0px;text-anchor:middle;fill:#ffffff;fill-opacity:1;stroke:none;stroke-width:0.18520834"
       id="path1479" />
    <path
       d="m -0.69026263,129.84628 0.24308595,2.79548 q 0.93761722,-1.49324 2.34404308,-2.30931 1.4237891,-0.83344 3.2295704,-0.83344 3.0385744,0 4.7054494,1.78842 1.6668748,1.77105 1.6668748,5.4868 v 11.85912 H 8.0781947 v -11.78967 q 0,-2.48295 -0.989707,-3.52475 -0.9723438,-1.0418 -2.9864845,-1.0418 -1.475879,0 -2.6218556,0.7119 -1.12861331,0.71189 -1.80578131,1.94469 v 13.69963 H -3.7462002 v -18.78707 z"
       style="font-style:normal;font-variant:normal;font-weight:normal;font-stretch:normal;font-size:35.56000137px;line-height:1.25;font-family:Roboto;-inkscape-font-specification:Roboto;text-align:center;letter-spacing:0px;word-spacing:0px;text-anchor:middle;fill:#ffffff;fill-opacity:1;stroke:none;stroke-width:0.18520834"
       id="path1481" />
    <path
       d="m 24.260773,148.99798 q -3.924102,0 -6.250782,-2.6045 -2.309316,-2.62185 -2.309316,-6.78904 v -0.76398 q 0,-4.01092 2.378769,-6.6675 2.396133,-2.67395 5.66043,-2.67395 3.802559,0 5.747246,2.29195 1.944688,2.29196 1.944688,6.11188 v 2.13568 H 19.242784 l -0.05209,0.0868 q 0.05209,2.70867 1.3717,4.46236 1.319609,1.73633 3.698379,1.73633 1.736328,0 3.038574,-0.48617 1.319609,-0.50354 2.27459,-1.3717 l 1.336973,2.2225 q -1.007071,0.98971 -2.656583,1.64951 -1.649511,0.65981 -3.993554,0.65981 z m -0.520899,-16.80766 q -1.718965,0 -2.934394,1.45851 -1.21543,1.44116 -1.493243,3.62893 l 0.03473,0.0868 h 8.664278 v -0.45145 q 0,-2.01414 -1.076524,-3.36848 -1.076523,-1.35433 -3.194844,-1.35433 z"
       style="font-style:normal;font-variant:normal;font-weight:normal;font-stretch:normal;font-size:35.56000137px;line-height:1.25;font-family:Roboto;-inkscape-font-specification:Roboto;text-align:center;letter-spacing:0px;word-spacing:0px;text-anchor:middle;fill:#ffffff;fill-opacity:1;stroke:none;stroke-width:0.18520834"
       id="path1483" />
    <path
       d="m 46.833038,148.63335 q -0.173633,-0.8508 -0.277813,-1.49325 -0.08682,-0.6598 -0.104179,-1.31961 -0.954981,1.35434 -2.500313,2.27459 -1.527969,0.9029 -3.299023,0.9029 -2.934395,0 -4.479727,-1.49325 -1.527969,-1.5106 -1.527969,-4.14982 0,-2.69131 2.17041,-4.20192 2.187774,-1.52796 5.920879,-1.52796 h 3.715743 v -1.85788 q 0,-1.64951 -1.007071,-2.60449 -1.00707,-0.97234 -2.847578,-0.97234 -1.649512,0 -2.691309,0.8508 -1.024433,0.83344 -1.024433,2.01414 h -3.264297 l -0.03473,-0.10418 q -0.104179,-2.04887 1.927325,-3.75047 2.048867,-1.7016 5.278437,-1.7016 3.194844,0 5.139532,1.63215 1.944687,1.61478 1.944687,4.67072 v 9.04627 q 0,1.00707 0.10418,1.94469 0.10418,0.93762 0.381992,1.84051 z m -5.677793,-2.50032 q 1.857871,0 3.351113,-0.95498 1.493242,-0.95498 1.944688,-2.18777 v -3.05594 H 42.61376 q -2.06623,0 -3.316386,1.0418 -1.232793,1.0418 -1.232793,2.44822 0,1.25016 0.781347,1.97942 0.781348,0.72925 2.309317,0.72925 z"
       style="font-style:normal;font-variant:normal;font-weight:normal;font-stretch:normal;font-size:35.56000137px;line-height:1.25;font-family:Roboto;-inkscape-font-specification:Roboto;text-align:center;letter-spacing:0px;word-spacing:0px;text-anchor:middle;fill:#ffffff;fill-opacity:1;stroke:none;stroke-width:0.18520834"
       id="path1485" />
    <path
       d="m 70.881186,139.95171 q 0,4.063 -1.944687,6.56332 -1.944688,2.48295 -5.365254,2.48295 -1.736329,0 -3.055938,-0.57299 -1.302246,-0.59035 -2.2225,-1.75369 v 9.18517 H 54.87224 v -26.01019 h 2.621856 l 0.538262,2.43085 q 0.920254,-1.35433 2.291953,-2.06623 1.371699,-0.71189 3.194844,-0.71189 3.490019,0 5.417344,2.77812 1.944687,2.76077 1.944687,7.30995 z m -3.420566,-0.36463 q 0,-3.19485 -1.26752,-5.24371 -1.250156,-2.06624 -3.698379,-2.06624 -1.475879,0 -2.517676,0.67717 -1.041797,0.65981 -1.684238,1.82315 v 9.08099 q 0.642441,1.16334 1.684238,1.82315 1.041797,0.64244 2.552403,0.64244 2.430859,0 3.681015,-1.77105 1.250157,-1.78842 1.250157,-4.60127 z"
       style="font-style:normal;font-variant:normal;font-weight:normal;font-stretch:normal;font-size:35.56000137px;line-height:1.25;font-family:Roboto;-inkscape-font-specification:Roboto;text-align:center;letter-spacing:0px;word-spacing:0px;text-anchor:middle;fill:#ffffff;fill-opacity:1;stroke:none;stroke-width:0.18520834"
       id="path1487" />
    <path
       d="m 91.092048,139.95171 q 0,4.063 -1.944688,6.56332 -1.944688,2.48295 -5.365254,2.48295 -1.736328,0 -3.055938,-0.57299 -1.302246,-0.59035 -2.2225,-1.75369 v 9.18517 h -3.420566 v -26.01019 h 2.621855 l 0.538262,2.43085 q 0.920254,-1.35433 2.291953,-2.06623 1.371699,-0.71189 3.194844,-0.71189 3.49002,0 5.417344,2.77812 1.944688,2.76077 1.944688,7.30995 z m -3.420567,-0.36463 q 0,-3.19485 -1.26752,-5.24371 -1.250156,-2.06624 -3.698379,-2.06624 -1.475879,0 -2.517676,0.67717 -1.041796,0.65981 -1.684238,1.82315 v 9.08099 q 0.642442,1.16334 1.684238,1.82315 1.041797,0.64244 2.552403,0.64244 2.430859,0 3.681016,-1.77105 1.250156,-1.78842 1.250156,-4.60127 z"
       style="font-style:normal;font-variant:normal;font-weight:normal;font-stretch:normal;font-size:35.56000137px;line-height:1.25;font-family:Roboto;-inkscape-font-specification:Roboto;text-align:center;letter-spacing:0px;word-spacing:0px;text-anchor:middle;fill:#ffffff;fill-opacity:1;stroke:none;stroke-width:0.18520834"
       id="path1489" />
    <path
       d="m 98.992342,148.63335 h -3.420567 v -27.08672 h 3.420567 z"
       style="font-style:normal;font-variant:normal;font-weight:normal;font-stretch:normal;font-size:35.56000137px;line-height:1.25;font-family:Roboto;-inkscape-font-specification:Roboto;text-align:center;letter-spacing:0px;word-spacing:0px;text-anchor:middle;fill:#ffffff;fill-opacity:1;stroke:none;stroke-width:0.18520834"
       id="path1491" />
    <path
       d="m 112.04952,148.99798 q -3.9241,0 -6.25078,-2.6045 -2.30932,-2.62185 -2.30932,-6.78904 v -0.76398 q 0,-4.01092 2.37877,-6.6675 2.39613,-2.67395 5.66043,-2.67395 3.80256,0 5.74725,2.29195 1.94468,2.29196 1.94468,6.11188 v 2.13568 h -12.18902 l -0.0521,0.0868 q 0.0521,2.70867 1.3717,4.46236 1.31961,1.73633 3.69838,1.73633 1.73633,0 3.03857,-0.48617 1.31961,-0.50354 2.27459,-1.3717 l 1.33698,2.2225 q -1.00707,0.98971 -2.65659,1.64951 -1.64951,0.65981 -3.99355,0.65981 z m -0.5209,-16.80766 q -1.71896,0 -2.93439,1.45851 -1.21543,1.44116 -1.49325,3.62893 l 0.0347,0.0868 h 8.66428 v -0.45145 q 0,-2.01414 -1.07653,-3.36848 -1.07652,-1.35433 -3.19484,-1.35433 z"
       style="font-style:normal;font-variant:normal;font-weight:normal;font-stretch:normal;font-size:35.56000137px;line-height:1.25;font-family:Roboto;-inkscape-font-specification:Roboto;text-align:center;letter-spacing:0px;word-spacing:0px;text-anchor:middle;fill:#ffffff;fill-opacity:1;stroke:none;stroke-width:0.18520834"
       id="path1493" />
    <path
       d="m -44.063741,190.4094 h 11.963301 v 2.67395 h -15.383868 v -25.28094 h 3.420567 z"
       style="font-style:normal;font-variant:normal;font-weight:normal;font-stretch:normal;font-size:35.56000137px;line-height:1.25;font-family:Roboto;-inkscape-font-specification:Roboto;text-align:center;letter-spacing:0px;word-spacing:0px;text-anchor:middle;fill:#ffffff;fill-opacity:1;stroke:none;stroke-width:0.18520834"
       id="path1495" />
    <path
       d="m -29.686944,183.51618 q 0,-4.16719 2.257226,-6.8585 2.257227,-2.70867 6.129239,-2.70867 3.906738,0 6.163965,2.69131 2.27459,2.69131 2.27459,6.87586 v 0.38199 q 0,4.20192 -2.257227,6.87586 -2.257227,2.67395 -6.146602,2.67395 -3.889375,0 -6.163965,-2.67395 -2.257226,-2.69131 -2.257226,-6.87586 z m 3.420566,0.38199 q 0,2.98649 1.250156,4.93117 1.26752,1.94469 3.750469,1.94469 2.448223,0 3.715743,-1.94469 1.267519,-1.94468 1.267519,-4.93117 v -0.38199 q 0,-2.95176 -1.284883,-4.91381 -1.267519,-1.96205 -3.733105,-1.96205 -2.448223,0 -3.715743,1.96205 -1.250156,1.96205 -1.250156,4.91381 z"
       style="font-style:normal;font-variant:normal;font-weight:normal;font-stretch:normal;font-size:35.56000137px;line-height:1.25;font-family:Roboto;-inkscape-font-specification:Roboto;text-align:center;letter-spacing:0px;word-spacing:0px;text-anchor:middle;fill:#ffffff;fill-opacity:1;stroke:none;stroke-width:0.18520834"
       id="path1497" />
    <path
       d="m -1.0375302,190.77403 q 1.70160166,0 2.9864845,-1.0418 1.3022462,-1.05916 1.3022462,-2.58712 h 3.0733009 l 0.034726,0.10418 q 0.086816,2.43086 -2.1704102,4.32345 -2.2398634,1.87524 -5.2263479,1.87524 -4.0977345,0 -6.2681447,-2.67395 -2.1704103,-2.67394 -2.1704103,-6.71959 v -0.72926 q 0,-4.01091 2.1704103,-6.68486 2.1877735,-2.69131 6.2681447,-2.69131 3.2990236,0 5.3826174,1.94469 2.1009571,1.94469 2.031504,4.7749 l -0.034727,0.10418 H 3.2512005 q 0,-1.71896 -1.2154298,-2.91703 -1.2154297,-1.21543 -3.0733009,-1.21543 -2.6913087,0 -3.8546486,1.94469 -1.1459766,1.92732 -1.1459766,4.74017 v 0.72926 q 0,2.88231 1.1459766,4.80963 1.1459767,1.90996 3.8546486,1.90996 z"
       style="font-style:normal;font-variant:normal;font-weight:normal;font-stretch:normal;font-size:35.56000137px;line-height:1.25;font-family:Roboto;-inkscape-font-specification:Roboto;text-align:center;letter-spacing:0px;word-spacing:0px;text-anchor:middle;fill:#ffffff;fill-opacity:1;stroke:none;stroke-width:0.18520834"
       id="path1499" />
    <path
       d="m 15.874306,184.41907 h -2.2225 v 8.66428 H 10.23124 v -27.08672 h 3.420566 v 15.69641 h 2.187774 l 5.139531,-7.39676 h 4.097735 l -6.424415,8.54273 7.344669,10.24434 h -4.028282 z"
       style="font-style:normal;font-variant:normal;font-weight:normal;font-stretch:normal;font-size:35.56000137px;line-height:1.25;font-family:Roboto;-inkscape-font-specification:Roboto;text-align:center;letter-spacing:0px;word-spacing:0px;text-anchor:middle;fill:#ffffff;fill-opacity:1;stroke:none;stroke-width:0.18520834"
       id="path1501" />
    <path
       d="m 39.401551,188.10009 q 0,-1.12862 -0.868164,-1.85787 -0.850801,-0.72926 -3.246934,-1.26752 -3.420566,-0.74663 -5.156894,-2.01415 -1.718965,-1.28488 -1.718965,-3.49001 0,-2.29196 1.944687,-3.90674 1.944688,-1.61479 5.070079,-1.61479 3.28166,0 5.208984,1.68424 1.944688,1.68424 1.857871,4.09773 l -0.03473,0.10418 h -3.264297 q 0,-1.23279 -1.041797,-2.20513 -1.024434,-0.98971 -2.726035,-0.98971 -1.823145,0 -2.708672,0.79871 -0.885528,0.79871 -0.885528,1.92733 0,1.11125 0.781348,1.75369 0.781348,0.64244 3.177481,1.14597 3.559472,0.76399 5.295801,2.0836 1.736328,1.30224 1.736328,3.50738 0,2.50031 -2.031504,4.04565 -2.014141,1.54533 -5.278438,1.54533 -3.594199,0 -5.66043,-1.82315 -2.06623,-1.82314 -1.962051,-4.254 l 0.03473,-0.10418 h 3.264297 q 0.08682,1.82314 1.354336,2.67394 1.267519,0.83344 2.969121,0.83344 1.823145,0 2.847578,-0.72926 1.041797,-0.74662 1.041797,-1.94468 z"
       style="font-style:normal;font-variant:normal;font-weight:normal;font-stretch:normal;font-size:35.56000137px;line-height:1.25;font-family:Roboto;-inkscape-font-specification:Roboto;text-align:center;letter-spacing:0px;word-spacing:0px;text-anchor:middle;fill:#ffffff;fill-opacity:1;stroke:none;stroke-width:0.18520834"
       id="path1503" />
    <path
       d="m 54.733332,190.77403 q 1.701602,0 2.986485,-1.0418 1.302246,-1.05916 1.302246,-2.58712 h 3.073301 l 0.03473,0.10418 q 0.08682,2.43086 -2.170411,4.32345 -2.239863,1.87524 -5.226348,1.87524 -4.097734,0 -6.268144,-2.67395 -2.170411,-2.67394 -2.170411,-6.71959 v -0.72926 q 0,-4.01091 2.170411,-6.68486 2.187773,-2.69131 6.268144,-2.69131 3.299024,0 5.382618,1.94469 2.100957,1.94469 2.031504,4.7749 l -0.03473,0.10418 h -3.090664 q 0,-1.71896 -1.21543,-2.91703 -1.215429,-1.21543 -3.073301,-1.21543 -2.691308,0 -3.854648,1.94469 -1.145977,1.92732 -1.145977,4.74017 v 0.72926 q 0,2.88231 1.145977,4.80963 1.145976,1.90996 3.854648,1.90996 z"
       style="font-style:normal;font-variant:normal;font-weight:normal;font-stretch:normal;font-size:35.56000137px;line-height:1.25;font-family:Roboto;-inkscape-font-specification:Roboto;text-align:center;letter-spacing:0px;word-spacing:0px;text-anchor:middle;fill:#ffffff;fill-opacity:1;stroke:none;stroke-width:0.18520834"
       id="path1505" />
    <path
       d="m 74.874739,177.31749 -1.753691,-0.10418 q -1.354336,0 -2.291953,0.64244 -0.920254,0.64244 -1.423789,1.80578 v 13.42182 h -3.420567 v -18.78707 h 3.055938 l 0.329902,2.7434 q 0.798711,-1.45852 1.962051,-2.27459 1.180703,-0.81608 2.708672,-0.81608 0.381992,0 0.729258,0.0695 0.347265,0.0521 0.572988,0.12155 z"
       style="font-style:normal;font-variant:normal;font-weight:normal;font-stretch:normal;font-size:35.56000137px;line-height:1.25;font-family:Roboto;-inkscape-font-specification:Roboto;text-align:center;letter-spacing:0px;word-spacing:0px;text-anchor:middle;fill:#ffffff;fill-opacity:1;stroke:none;stroke-width:0.18520834"
       id="path1507" />
    <path
       d="m 85.657333,193.44798 q -3.924102,0 -6.250782,-2.6045 -2.309316,-2.62185 -2.309316,-6.78904 v -0.76398 q 0,-4.01092 2.378769,-6.6675 2.396133,-2.67395 5.66043,-2.67395 3.802559,0 5.747247,2.29195 1.944687,2.29196 1.944687,6.11188 v 2.13568 H 80.639344 l -0.05209,0.0868 q 0.05209,2.70867 1.3717,4.46236 1.319609,1.73633 3.698379,1.73633 1.736328,0 3.038574,-0.48617 1.319609,-0.50354 2.27459,-1.3717 l 1.336973,2.2225 q -1.007071,0.98971 -2.656582,1.64951 -1.649512,0.65981 -3.993555,0.65981 z m -0.520899,-16.80766 q -1.718965,0 -2.934394,1.45852 -1.21543,1.44115 -1.493243,3.62892 l 0.03473,0.0868 h 8.664278 v -0.45145 q 0,-2.01414 -1.076524,-3.36847 -1.076523,-1.35434 -3.194844,-1.35434 z"
       style="font-style:normal;font-variant:normal;font-weight:normal;font-stretch:normal;font-size:35.56000137px;line-height:1.25;font-family:Roboto;-inkscape-font-specification:Roboto;text-align:center;letter-spacing:0px;word-spacing:0px;text-anchor:middle;fill:#ffffff;fill-opacity:1;stroke:none;stroke-width:0.18520834"
       id="path1509" />
    <path
       d="m 104.47913,193.44798 q -3.9241,0 -6.250779,-2.6045 -2.309316,-2.62185 -2.309316,-6.78904 v -0.76398 q 0,-4.01092 2.37877,-6.6675 2.396135,-2.67395 5.660425,-2.67395 3.80256,0 5.74725,2.29195 1.94469,2.29196 1.94469,6.11188 v 2.13568 H 99.461144 l -0.05209,0.0868 q 0.05209,2.70867 1.371696,4.46236 1.31961,1.73633 3.69838,1.73633 1.73633,0 3.03858,-0.48617 1.31961,-0.50354 2.27459,-1.3717 l 1.33697,2.2225 q -1.00707,0.98971 -2.65658,1.64951 -1.64951,0.65981 -3.99356,0.65981 z m -0.5209,-16.80766 q -1.71896,0 -2.93439,1.45852 -1.21543,1.44115 -1.493242,3.62892 l 0.03473,0.0868 h 8.664272 v -0.45145 q 0,-2.01414 -1.07652,-3.36847 -1.07653,-1.35434 -3.19485,-1.35434 z"
       style="font-style:normal;font-variant:normal;font-weight:normal;font-stretch:normal;font-size:35.56000137px;line-height:1.25;font-family:Roboto;-inkscape-font-specification:Roboto;text-align:center;letter-spacing:0px;word-spacing:0px;text-anchor:middle;fill:#ffffff;fill-opacity:1;stroke:none;stroke-width:0.18520834"
       id="path1511" />
    <path
       d="m 118.56075,174.29628 0.24309,2.79549 q 0.93761,-1.49325 2.34404,-2.30932 1.42379,-0.83344 3.22957,-0.83344 3.03857,0 4.70545,1.78842 1.66687,1.77105 1.66687,5.4868 v 11.85912 h -3.42056 v -11.78967 q 0,-2.48295 -0.98971,-3.52475 -0.97234,-1.04179 -2.98648,-1.04179 -1.47588,0 -2.62186,0.71189 -1.12861,0.7119 -1.80578,1.94469 v 13.69963 h -3.42057 v -18.78707 z"
       style="font-style:normal;font-variant:normal;font-weight:normal;font-stretch:normal;font-size:35.56000137px;line-height:1.25;font-family:Roboto;-inkscape-font-specification:Roboto;text-align:center;letter-spacing:0px;word-spacing:0px;text-anchor:middle;fill:#ffffff;fill-opacity:1;stroke:none;stroke-width:0.18520834"
       id="path1513" />
  </g>
</svg>
