<?xml version="1.0" encoding="UTF-8" standalone="no"?>
<!-- Created with Inkscape (http://www.inkscape.org/) -->

<svg
   xmlns:dc="http://purl.org/dc/elements/1.1/"
   xmlns:cc="http://creativecommons.org/ns#"
   xmlns:rdf="http://www.w3.org/1999/02/22-rdf-syntax-ns#"
   xmlns:svg="http://www.w3.org/2000/svg"
   xmlns="http://www.w3.org/2000/svg"
   xmlns:sodipodi="http://sodipodi.sourceforge.net/DTD/sodipodi-0.dtd"
   xmlns:inkscape="http://www.inkscape.org/namespaces/inkscape"
   width="172.73428mm"
   height="161.81828mm"
   viewBox="0 0 172.73428 161.81826"
   version="1.1"
   id="svg8"
   inkscape:version="0.92.3pre0 (0ab9bec, 2018-03-03)"
   sodipodi:docname="bettercap-injector.svg">
  <defs
     id="defs2" />
  <sodipodi:namedview
     id="base"
     pagecolor="#ffffff"
     bordercolor="#666666"
     borderopacity="1.0"
     inkscape:pageopacity="0.0"
     inkscape:pageshadow="2"
     inkscape:zoom="0.49849513"
     inkscape:cx="-111.2918"
     inkscape:cy="532.90661"
     inkscape:document-units="mm"
     inkscape:current-layer="layer1"
     showgrid="false"
     inkscape:window-width="1366"
     inkscape:window-height="709"
     inkscape:window-x="0"
     inkscape:window-y="339"
     inkscape:window-maximized="1" />
  <metadata
     id="metadata5">
    <rdf:RDF>
      <cc:Work
         rdf:about="">
        <dc:format>image/svg+xml</dc:format>
        <dc:type
           rdf:resource="http://purl.org/dc/dcmitype/StillImage" />
        <dc:title />
      </cc:Work>
    </rdf:RDF>
  </metadata>
  <g
     inkscape:label="Layer 1"
     inkscape:groupmode="layer"
     id="layer1"
     transform="translate(54.416976,-112.85735)">
    <path
       style="opacity:1;fill:#c83737;fill-opacity:1;fill-rule:evenodd;stroke:none;stroke-width:5.71346807;stroke-linecap:butt;stroke-linejoin:round;stroke-miterlimit:4;stroke-dasharray:none;stroke-dashoffset:0;stroke-opacity:1;paint-order:normal"
       d="m 28.099721,190.71974 40.419246,-22.98309 c 8.336387,-1.16453 6.840647,9.14092 19.002027,7.96799 l -50.801033,29.83663 z"
       id="rect835"
       inkscape:connector-curvature="0"
       sodipodi:nodetypes="ccccc" />
    <path
       style="fill:#000000;stroke-width:0.23806116"
       d="m -21.405582,227.34403 c 0.116513,-0.17211 7.882091,-4.75109 17.2568441,-10.17552 l 17.0450049,-9.8626 -0.17206,-0.77354 c -0.09463,-0.42545 -0.11849,-0.976 -0.05302,-1.22346 0.07451,-0.28175 2.867722,-2.04203 7.472415,-4.70921 l 7.353379,-4.25929 -1.623096,-2.86955 c -1.293911,-2.28757 -1.587134,-3.00376 -1.445783,-3.53128 0.153011,-0.57104 3.974018,-2.85429 27.879296,-16.65926 l 27.701986,-15.99753 -1.42332,-2.45051 c -0.78283,-1.34777 -1.41918,-2.71119 -1.41412,-3.0298 0.0175,-1.09654 1.23544,-1.94455 2.37409,-1.65289 0.55348,0.14177 1.13319,0.97236 3.47865,4.98404 l 2.81449,4.81392 9.68746,-5.59522 9.687456,-5.59521 -1.67945,-2.8963 c -0.9237,-1.59297 -1.72201,-3.21958 -1.77403,-3.61471 -0.19655,-1.49294 1.54152,-2.59487 2.7148,-1.72118 0.65897,0.4907 13.82507,23.41984 13.84147,24.10531 0.0323,1.34956 -1.76071,2.16617 -2.87642,1.31005 -0.31618,-0.24261 -1.32572,-1.74728 -2.24342,-3.3437 l -1.66855,-2.90259 -9.68933,5.59197 -9.689316,5.59197 2.76173,4.84439 c 2.30149,4.03707 2.73094,4.9544 2.57698,5.50462 -0.31674,1.13192 -1.66014,1.76275 -2.61849,1.22958 -0.27845,-0.15493 -1.14104,-1.38773 -1.91683,-2.73957 l -1.41054,-2.45789 -27.705251,15.99187 c -20.707109,11.95243 -27.839043,15.95601 -28.234922,15.84994 -0.827116,-0.22163 -1.185185,-0.67065 -2.693605,-3.37776 l -1.408216,-2.52728 -7.384895,4.24431 c -4.621972,2.65639 -7.552935,4.19873 -7.834048,4.12246 -0.247056,-0.067 -0.711899,-0.36298 -1.033032,-0.65766 l -0.58388,-0.53577 -17.1197549,9.88286 c -15.3520951,8.86244 -17.8408091,9.68966 -17.8408091,9.68966 -5.320206,1.27869 -3.869713,-0.057 -1.10986,-2.59767 z M 32.557742,197.9934 c 2.104984,3.64892 3.930489,6.66207 4.056673,6.69589 0.126187,0.0338 2.490984,-1.24239 5.255104,-2.836 l 5.025676,-2.89747 -2.008319,-3.52494 c -1.761203,-3.09121 -1.982948,-3.61962 -1.802131,-4.29443 0.267662,-0.99893 1.259359,-1.62813 2.178106,-1.38195 0.569831,0.15268 1.042438,0.79202 2.776027,3.7554 l 2.089278,3.57139 5.531388,-3.18972 5.531389,-3.18972 -1.65654,-2.91178 c -0.911096,-1.60147 -1.713633,-3.1808 -1.783418,-3.50961 -0.256332,-1.20782 0.93783,-2.26561 2.181488,-1.93237 0.71254,0.19092 1.011982,0.57028 2.64389,3.34951 l 1.840344,3.13419 5.52529,-3.1862 5.525287,-3.18619 -1.815373,-3.20515 c -0.998462,-1.76284 -1.825358,-3.46554 -1.837551,-3.78379 -0.04905,-1.28014 1.570331,-2.3087 2.621799,-1.66525 0.248648,0.15216 1.307745,1.74106 2.353545,3.53088 l 1.90146,3.25423 5.39179,-3.10901 c 2.96547,-1.70996 5.41957,-3.21271 5.45353,-3.33946 0.0809,-0.30179 -7.52248,-13.48044 -7.8241,-13.56127 -0.30069,-0.0805 -52.840068,30.24915 -52.920629,30.54981 -0.03369,0.12572 1.66101,3.21407 3.765997,6.86301 z m 56.463102,-32.49417 1.26755,2.1786 9.68968,-5.59435 9.689666,-5.59433 -1.30396,-2.25852 -1.30396,-2.25852 -9.620566,5.55223 c -5.29132,3.05373 -9.63528,5.60715 -9.65327,5.67427 -0.018,0.0671 0.5377,1.1024 1.23486,2.30062 z"
       id="path826"
       inkscape:connector-curvature="0"
       sodipodi:nodetypes="cscccscssscccccccccccccscccsccccscscscccsccscscsccccccccccccccccscscccsccccccscc" />
    <path
       sodipodi:nodetypes="ccccc"
       inkscape:connector-curvature="0"
       id="path876"
       d="M -20.890616,154.20366 5.1783559,139.38039 c 5.3766751,-0.75108 4.411972,5.89557 12.2556261,5.13907 l -32.76485,19.24357 z"
       style="opacity:1;fill:#71c837;fill-opacity:1;fill-rule:evenodd;stroke:none;stroke-width:3.68498302;stroke-linecap:butt;stroke-linejoin:round;stroke-miterlimit:4;stroke-dasharray:none;stroke-dashoffset:0;stroke-opacity:1;paint-order:normal" />
    <path
       sodipodi:nodetypes="cscccscssscccccccccccccscccsccccscscscccsccscscsccccccccccccccccscscccsccccccscc"
       inkscape:connector-curvature="0"
       id="path878"
       d="m -52.819769,177.82503 c 0.07514,-0.11105 5.083667,-3.06429 11.130048,-6.56286 l 10.993421,-6.36102 -0.110976,-0.4989 c -0.06103,-0.2744 -0.07643,-0.62949 -0.03419,-0.78909 0.04806,-0.18172 1.849578,-1.31704 4.819441,-3.03727 l 4.742666,-2.7471 -1.046839,-1.85075 c -0.834527,-1.47539 -1.023644,-1.93731 -0.932478,-2.27755 0.09868,-0.3683 2.5631,-1.84091 17.9811503,-10.74463 l 17.8667917,-10.31783 -0.91799,-1.5805 c -0.504894,-0.86926 -0.91532,-1.74861 -0.912053,-1.95411 0.0113,-0.70723 0.796815,-1.25416 1.5312,-1.06605 0.356973,0.0914 0.730869,0.62714 2.243609,3.21453 l 1.815246,3.1048 6.24806,-3.60871 6.248066,-3.60872 -1.083182,-1.86801 c -0.595754,-1.0274 -1.110637,-2.07651 -1.144184,-2.33135 -0.126769,-0.96289 0.994226,-1.67361 1.750947,-1.11011 0.425009,0.31649 8.916677,15.10497 8.927251,15.54707 0.02083,0.87042 -1.135596,1.3971 -1.855189,0.84493 -0.203921,-0.15646 -0.855037,-1.12693 -1.446921,-2.15656 l -1.076154,-1.87207 -6.249273,3.60662 -6.249268,3.60662 1.781217,3.12445 c 1.484381,2.60378 1.761358,3.19542 1.662061,3.5503 -0.204288,0.73005 -1.070729,1.13692 -1.688831,0.79303 -0.179595,-0.0999 -0.735928,-0.89503 -1.236286,-1.76693 L 20.027843,145.52202 2.1589419,155.8362 c -13.3553469,7.70889 -17.9551889,10.29105 -18.2105169,10.22264 -0.53346,-0.14294 -0.764402,-0.43254 -1.73728,-2.17852 l -0.908249,-1.63001 -4.762992,2.73742 c -2.981007,1.71328 -4.871374,2.70804 -5.052682,2.65884 -0.159343,-0.0432 -0.45915,-0.2341 -0.666269,-0.42416 l -0.376582,-0.34556 -11.041631,6.37409 c -9.901553,5.71596 -11.506685,6.24949 -11.506685,6.24949 -3.431344,0.82471 -2.495827,-0.0367 -0.71582,-1.6754 z m 34.804418,-18.93011 c 1.35764,2.35343 2.535025,4.29679 2.61641,4.3186 0.08138,0.0219 1.606595,-0.80129 3.389354,-1.82911 l 3.2413823,-1.86876 -1.2952943,-2.27346 c -1.135914,-1.99373 -1.278931,-2.33453 -1.162311,-2.76975 0.172632,-0.64428 0.812241,-1.05009 1.4048013,-0.89132 0.36752,0.0984 0.672335,0.51082 1.790438,2.42211 l 1.34751,2.30341 3.567548,-2.05725 3.5675466,-2.05726 -1.068408,-1.878 c -0.587625,-1.03289 -1.105233,-2.0515 -1.150241,-2.26357 -0.165324,-0.77899 0.604867,-1.46123 1.406982,-1.24631 0.459563,0.12314 0.652693,0.36781 1.705215,2.16031 l 1.186955,2.02145 3.563616,-2.05499 3.563611,-2.05498 -1.17085,-2.06721 c -0.643971,-1.13696 -1.17729,-2.23514 -1.185154,-2.44041 -0.03164,-0.82564 1.012807,-1.48902 1.690967,-1.07402 0.160369,0.0981 0.843449,1.12292 1.5179511,2.27729 l 1.226375,2.09886 3.47751,-2.00519 c 1.912627,-1.10287 3.49543,-2.07209 3.517336,-2.15384 0.05217,-0.19465 -4.85173,-8.6944 -5.046269,-8.74654 -0.193933,-0.052 -34.079956,19.50963 -34.131915,19.70355 -0.02172,0.0811 1.071292,2.07296 2.428934,4.42639 z m 36.416684,-20.95758 0.817527,1.40511 6.249494,-3.60814 6.249494,-3.60815 -0.841007,-1.45666 -0.841006,-1.45667 -6.204926,3.58099 c -3.412711,1.96955 -6.214413,3.61641 -6.226014,3.6597 -0.01165,0.0433 0.346795,0.71101 0.796438,1.48382 z"
       style="fill:#000000;stroke-width:0.15354095" />
    <path
       style="opacity:1;fill:#c8ab37;fill-opacity:1;fill-rule:evenodd;stroke:none;stroke-width:2.71745467;stroke-linecap:butt;stroke-linejoin:round;stroke-miterlimit:4;stroke-dasharray:none;stroke-dashoffset:0;stroke-opacity:1;paint-order:normal"
       d="m 62.521844,136.87844 19.22431,-10.93127 c 3.964975,-0.55388 3.253565,4.34762 9.037788,3.78976 L 66.621825,143.9279 Z"
       id="path880"
       inkscape:connector-curvature="0"
       sodipodi:nodetypes="ccccc" />
    <path
       style="fill:#000000;stroke-width:0.11322728"
       d="m 38.976001,154.29779 c 0.05541,-0.0819 3.748901,-2.25973 8.207745,-4.83971 l 8.106991,-4.69088 -0.08184,-0.36791 c -0.04501,-0.20236 -0.05636,-0.46421 -0.02522,-0.58191 0.03544,-0.13394 1.363952,-0.97123 3.554049,-2.23979 l 3.497433,-2.02583 -0.771981,-1.36482 c -0.615414,-1.08802 -0.754877,-1.42865 -0.687647,-1.67955 0.07277,-0.27161 1.890133,-1.35757 13.260024,-7.92354 l 13.175693,-7.60878 -0.676963,-1.16552 c -0.37233,-0.64103 -0.674995,-1.28949 -0.672585,-1.44104 0.0083,-0.52153 0.587603,-0.92487 1.129168,-0.78616 0.263247,0.0674 0.538973,0.4625 1.654528,2.37054 l 1.33864,2.28961 4.607571,-2.66121 4.607572,-2.66123 -0.79879,-1.37754 c -0.439326,-0.75765 -0.819016,-1.5313 -0.843757,-1.71924 -0.09354,-0.71006 0.733176,-1.23418 1.291216,-0.81863 0.313413,0.2334 6.575522,11.13901 6.583312,11.46503 0.0153,0.64189 -0.83744,1.03028 -1.36808,0.6231 -0.15039,-0.11537 -0.63054,-0.83105 -1.06702,-1.59034 l -0.79361,-1.38054 -4.608456,2.65966 -4.608467,2.65968 1.313544,2.30409 c 1.094634,1.92013 1.29889,2.35643 1.225671,2.61813 -0.150653,0.53837 -0.789598,0.83842 -1.245422,0.58481 -0.132447,-0.0736 -0.542694,-0.66002 -0.911675,-1.30301 l -0.670898,-1.16901 -13.177241,7.60609 c -9.84877,5.68485 -13.240879,7.58904 -13.429168,7.53858 -0.393396,-0.10547 -0.563701,-0.31897 -1.28114,-1.60652 l -0.669779,-1.20203 -3.512423,2.01868 c -2.198315,1.26344 -3.592348,1.99701 -3.726052,1.96073 -0.117507,-0.0318 -0.338595,-0.17264 -0.491334,-0.31279 l -0.277705,-0.25483 -8.142544,4.70051 c -7.301803,4.21518 -8.485492,4.60862 -8.485492,4.60862 -2.530412,0.60819 -1.840524,-0.0271 -0.527873,-1.2355 z m 25.666178,-13.95982 c 1.001179,1.73551 1.86943,3.16863 1.929446,3.1847 0.06002,0.0161 1.184768,-0.5909 2.499447,-1.34886 l 2.390326,-1.3781 -0.955202,-1.67654 c -0.837669,-1.47025 -0.943136,-1.72157 -0.857136,-2.04252 0.127309,-0.47511 0.598981,-0.77437 1.035957,-0.6573 0.271024,0.0727 0.495808,0.37671 1.320341,1.78616 l 0.993708,1.69863 2.630855,-1.5171 2.630852,-1.5171 -0.787886,-1.38492 c -0.433339,-0.76168 -0.815044,-1.51285 -0.848235,-1.66924 -0.121913,-0.57447 0.446053,-1.07758 1.037565,-0.91908 0.3389,0.0908 0.481322,0.27124 1.257495,1.5931 l 0.875308,1.4907 2.627953,-1.51543 2.62795,-1.51543 -0.863431,-1.52444 c -0.47489,-0.83844 -0.868182,-1.64828 -0.87398,-1.79967 -0.02333,-0.60885 0.746885,-1.09806 1.246987,-0.79202 0.118267,0.0724 0.621993,0.82808 1.119399,1.67936 l 0.904377,1.54779 2.564456,-1.47871 c 1.410444,-0.8133 2.577673,-1.52804 2.593819,-1.58833 0.0385,-0.14353 -3.577855,-6.4116 -3.721315,-6.45005 -0.143014,-0.0384 -25.131933,14.38718 -25.170249,14.53019 -0.01602,0.0598 0.790014,1.52869 1.791193,3.26421 z m 26.855134,-15.45498 0.602871,1.0362 4.608629,-2.66079 4.608627,-2.66079 -0.62019,-1.07421 -0.62019,-1.0742 -4.575766,2.64076 c -2.51667,1.45242 -4.582763,2.66689 -4.591317,2.69881 -0.0081,0.032 0.255744,0.52434 0.587336,1.09422 z"
       id="path882"
       inkscape:connector-curvature="0"
       sodipodi:nodetypes="cscccscssscccccccccccccscccsccccscscscccsccscscsccccccccccccccccscscccsccccccscc" />
    <g
       aria-label="INJECTOR"
       style="font-style:normal;font-variant:normal;font-weight:normal;font-stretch:normal;font-size:33.09589767px;line-height:1.25;font-family:serif;-inkscape-font-specification:serif;letter-spacing:0px;word-spacing:0px;fill:#000000;fill-opacity:1;stroke:none;stroke-width:0.82739747"
       id="text886">
      <path
         d="m -49.247254,274.21228 h -4.633426 v -24.1931 h 4.633426 z"
         style="font-style:normal;font-variant:normal;font-weight:normal;font-stretch:normal;font-family:Geometos;-inkscape-font-specification:Geometos;stroke-width:0.82739747"
         id="path820" />
      <path
         d="m -22.742612,274.21228 -15.952222,-14.39672 v 14.39672 h -4.60033 v -24.1931 h 0.496438 l 15.919127,14.62839 v -14.62839 h 4.633426 v 24.1931 z"
         style="font-style:normal;font-variant:normal;font-weight:normal;font-stretch:normal;font-family:Geometos;-inkscape-font-specification:Geometos;stroke-width:0.82739747"
         id="path822" />
      <path
         d="m -1.9625244,250.01918 v 15.19102 q 0,2.11813 -0.6619179,3.87222 -0.6288221,1.75408 -1.8202744,3.01172 -1.1583564,1.22455 -2.8131513,1.91956 -1.6547949,0.66192 -3.673645,0.66192 -2.846247,0 -4.931288,-1.32383 -2.051946,-1.32384 -3.111015,-3.67365 l 4.203179,-1.88646 q 0.198576,0.46334 0.529535,0.95978 0.330959,0.46334 0.794301,0.86049 0.463343,0.36406 1.059069,0.62882 0.628822,0.23167 1.456219,0.23167 1.423124,0 2.2505214,-0.56263 0.8604933,-0.56263 1.3238359,-1.39002 0.4633426,-0.8274 0.5957262,-1.72099 0.1654795,-0.89359 0.1654795,-1.5886 v -15.19102 z"
         style="font-style:normal;font-variant:normal;font-weight:normal;font-stretch:normal;font-family:Geometos;-inkscape-font-specification:Geometos;stroke-width:0.82739747"
         id="path824" />
      <path
         d="m 7.846272,254.08997 v 6.05655 H 19.56222 v 4.20318 H 7.846272 v 5.6925 h 13.205263 v 4.17008 H 3.2459422 v -24.2262 H 21.051535 v 4.10389 z"
         style="font-style:normal;font-variant:normal;font-weight:normal;font-stretch:normal;font-family:Geometos;-inkscape-font-specification:Geometos;stroke-width:0.82739747"
         id="path827" />
      <path
         d="m 47.397935,268.25502 q -0.794302,1.45622 -1.952658,2.64767 -1.158356,1.15836 -2.58148,2.01885 -1.390028,0.8274 -3.044823,1.29074 -1.621699,0.46334 -3.375781,0.46334 -2.58148,0 -4.865097,-0.99287 -2.283617,-0.99288 -4.004604,-2.68077 -1.687891,-1.72099 -2.680768,-4.00461 -0.992876,-2.28361 -0.992876,-4.86509 0,-2.58148 0.992876,-4.8651 0.992877,-2.28362 2.680768,-3.97151 1.720987,-1.72098 4.004604,-2.71386 2.283617,-0.99288 4.865097,-0.99288 1.754082,0 3.375781,0.46334 1.654795,0.46335 3.044823,1.32384 1.423124,0.8274 2.58148,2.01885 1.158356,1.15836 1.952658,2.58148 l -4.335563,1.75408 q -0.529534,-0.7943 -1.257644,-1.48931 -0.695014,-0.69502 -1.555507,-1.22455 -0.860493,-0.52953 -1.820274,-0.8274 -0.959781,-0.29786 -1.985754,-0.29786 -1.654795,0 -3.111015,0.69501 -1.423123,0.66192 -2.482192,1.78718 -1.059069,1.12526 -1.687891,2.64767 -0.628822,1.48932 -0.628822,3.11102 0,1.65479 0.628822,3.14411 0.628822,1.48931 1.687891,2.61457 1.059069,1.12526 2.482192,1.82028 1.45622,0.66192 3.111015,0.66192 1.025973,0 1.985754,-0.29787 0.959781,-0.29786 1.820274,-0.82739 0.860493,-0.52954 1.555507,-1.22455 0.72811,-0.72811 1.257644,-1.52241 z"
         style="font-style:normal;font-variant:normal;font-weight:normal;font-stretch:normal;font-family:Geometos;-inkscape-font-specification:Geometos;stroke-width:0.82739747"
         id="path829" />
      <path
         d="m 66.807647,254.08997 h -6.917042 v 20.12231 h -4.633426 v -20.12231 h -6.950138 v -4.10389 h 18.500606 z"
         style="font-style:normal;font-variant:normal;font-weight:normal;font-stretch:normal;font-family:Geometos;-inkscape-font-specification:Geometos;stroke-width:0.82739747"
         id="path831" />
      <path
         d="m 80.756538,274.67562 q -2.58148,0 -4.865097,-0.99287 -2.283616,-0.99288 -4.004603,-2.68077 -1.687891,-1.72099 -2.680768,-4.00461 -0.992877,-2.28361 -0.992877,-4.89819 0,-2.58148 0.992877,-4.8651 0.992877,-2.31671 2.680768,-4.0046 1.720987,-1.72099 4.004603,-2.71386 2.283617,-0.99288 4.865097,-0.99288 2.614576,0 4.898193,0.99288 2.283617,0.99287 3.971508,2.71386 1.720987,1.68789 2.713864,4.0046 0.992877,2.28362 0.992877,4.8651 0,2.61458 -0.992877,4.89819 -0.992877,2.28362 -2.713864,4.00461 -1.687891,1.68789 -3.971508,2.68077 -2.283617,0.99287 -4.898193,0.99287 z m 0,-20.81732 q -1.654794,0 -3.111014,0.69502 -1.423124,0.66192 -2.515288,1.78718 -1.059069,1.12526 -1.687891,2.64767 -0.628822,1.48931 -0.628822,3.11101 0,1.6548 0.628822,3.14411 0.628822,1.48932 1.687891,2.64767 1.092164,1.12526 2.515288,1.82028 1.45622,0.66192 3.111014,0.66192 1.654795,0 3.077919,-0.66192 1.456219,-0.69502 2.515288,-1.82028 1.092165,-1.15835 1.720987,-2.64767 0.628822,-1.48931 0.628822,-3.14411 0,-1.6217 -0.628822,-3.11101 -0.628822,-1.52241 -1.720987,-2.64767 -1.059069,-1.12526 -2.515288,-1.78718 -1.423124,-0.69502 -3.077919,-0.69502 z"
         style="font-style:normal;font-variant:normal;font-weight:normal;font-stretch:normal;font-family:Geometos;-inkscape-font-specification:Geometos;stroke-width:0.82739747"
         id="path833" />
      <path
         d="m 102.02737,274.21228 h -4.600333 v -24.2262 h 10.987843 q 1.85337,0 3.37578,0.62883 1.5555,0.59572 2.64767,1.72098 1.09216,1.09217 1.68789,2.64767 0.62882,1.52242 0.62882,3.34269 0,2.74696 -1.39003,4.7989 -1.35693,2.05195 -3.64054,2.94554 3.07791,4.0377 6.05654,8.14159 H 112.254 q -1.45622,-1.88647 -2.84625,-3.80603 -1.39003,-1.91956 -2.78005,-3.90531 h -4.60033 z m 0,-11.81524 h 6.38751 q 0.62882,0 1.29074,-0.23167 0.69501,-0.26476 1.22454,-0.7612 0.52954,-0.52954 0.8605,-1.29074 0.36405,-0.76121 0.36405,-1.78718 0,-0.52953 -0.13238,-1.25764 -0.13239,-0.72811 -0.52954,-1.39003 -0.39715,-0.66192 -1.12526,-1.12526 -0.72811,-0.46335 -1.95265,-0.46335 h -6.38751 z"
         style="font-style:normal;font-variant:normal;font-weight:normal;font-stretch:normal;font-family:Geometos;-inkscape-font-specification:Geometos;stroke-width:0.82739747"
         id="path835" />
    </g>
  </g>
</svg>
