<?xml version="1.0" encoding="UTF-8" standalone="no"?>
<svg
   xmlns:dc="http://purl.org/dc/elements/1.1/"
   xmlns:cc="http://creativecommons.org/ns#"
   xmlns:rdf="http://www.w3.org/1999/02/22-rdf-syntax-ns#"
   xmlns:svg="http://www.w3.org/2000/svg"
   xmlns="http://www.w3.org/2000/svg"
   width="512pt"
   height="512pt"
   viewBox="0 0 126.43557 126.43556"
   version="1.1"
   id="svg8">
  <defs
     id="defs2" />
  <metadata
     id="metadata5">
    <rdf:RDF>
      <cc:Work
         rdf:about="">
        <dc:format>image/svg+xml</dc:format>
        <dc:type
           rdf:resource="http://purl.org/dc/dcmitype/StillImage" />
        <dc:title></dc:title>
      </cc:Work>
    </rdf:RDF>
  </metadata>
  <g
     style="fill:rgb(128,0,128);fill-opacity:1"
     id="layer1"
     transform="translate(81.104339,-34.477827)">
    <path
       style="fill:rgb(128,0,128);stroke-width:0.22398657;fill-opacity:1"
       d="m 8.1584286,150.54773 c -16.3846163,-2.32396 -29.8154126,-4.23021 -29.8462116,-4.2362 -0.03081,-0.007 -0.05599,-10.03986 -0.05599,-22.29751 V 101.72738 H 8.8303897 39.404556 v 14.07428 c 0,7.74083 -0.0669,19.68492 -0.148669,26.54241 l -0.148657,12.46811 -0.579291,-0.0198 c -0.318611,-0.0108 -13.984886,-1.92097 -30.369503,-4.24487 z M -52.093956,142.2573 c -12.319261,-1.70703 -22.524648,-3.10831 -22.678637,-3.11396 -0.22167,-0.009 -0.279986,-3.90558 -0.279986,-18.71311 v -18.70285 h 22.734636 22.734636 v 21.8387 c 0,12.01127 -0.02523,21.82885 -0.05599,21.81679 -0.03081,-0.0122 -10.135391,-1.41851 -22.454649,-3.12557 z M -75.106785,75.24095 c -0.06634,-10.132589 -0.09047,-18.455672 -0.05365,-18.495751 0.03682,-0.04003 10.029543,-1.422469 22.20607,-3.071996 12.176529,-1.649518 22.416324,-3.05052 22.755105,-3.113347 l 0.615962,-0.114165 v 21.609098 21.609118 h -22.701454 -22.701444 z m 53.363006,-3.751774 c 0,-12.196064 0.05763,-22.174662 0.12803,-22.174662 0.07044,0 13.6380163,-1.965491 30.1502334,-4.367747 16.5122186,-2.402257 30.1625786,-4.367735 30.3341416,-4.367735 0.264841,0 0.311934,4.007789 0.311934,26.542409 V 93.663859 H 8.7183944 -21.743779 Z"
       id="path837" />
  </g>
</svg>
