<?xml version="1.0" encoding="UTF-8" standalone="no"?>
<svg
   xmlns:dc="http://purl.org/dc/elements/1.1/"
   xmlns:cc="http://creativecommons.org/ns#"
   xmlns:rdf="http://www.w3.org/1999/02/22-rdf-syntax-ns#"
   xmlns:svg="http://www.w3.org/2000/svg"
   xmlns="http://www.w3.org/2000/svg"
   width="2230.3918pt"
   height="277.63199pt"
   viewBox="0 0 550.78292 68.559677"
   version="1.1"
   id="svg8">
  <defs
     id="defs2" />
  <metadata
     id="metadata5">
    <rdf:RDF>
      <cc:Work
         rdf:about="">
        <dc:format>image/svg+xml</dc:format>
        <dc:type
           rdf:resource="http://purl.org/dc/dcmitype/StillImage" />
        <dc:title></dc:title>
      </cc:Work>
    </rdf:RDF>
  </metadata>
  <path
     d="m 0,19.70024 q 2.06248,-0.56896 5.334,-1.28016 3.3426417,-0.7112 8.605523,-0.7112 6.96976,0 10.09904,4.05384 0.3556,-0.28448 1.35128,-0.92456 1.0668,-0.7112 2.63144,-1.4224 1.56465,-0.7112 3.62713,-1.20904 2.1336,-0.49784 4.69392,-0.49784 4.19608,0 6.7564,1.28016 2.63144,1.20904 4.05384,3.48488 1.4224,2.20472 1.92024,5.334 0.49784,3.12928 0.49784,6.82752 v 20.55368 h -4.6228 V 36.12896 q 0,-3.62712 -0.3556,-6.25856 -0.28448,-2.70256 -1.28016,-4.40944 -0.92456,-1.778 -2.70256,-2.63144 -1.778,-0.92456 -4.6228,-0.92456 -2.1336,0 -3.9116,0.42672 -1.70688,0.3556 -2.98704,0.92456 -1.28017,0.56896 -2.13361,1.13792 -0.78232,0.56896 -1.13792,0.85344 0.64008,1.84912 0.92456,4.19608 0.3556,2.27584 0.3556,4.83616 v 20.90928 h -4.6228 V 36.12896 q 0,-3.62712 -0.3556,-6.25856 -0.28448,-2.70256 -1.28016,-4.40944 -0.99568,-1.778 -2.8448,-2.63144 -1.778,-0.92456 -4.76504,-0.92456 -3.3426403,0 -5.6896023,0.3556 Q 5.26288,22.61616 4.6228,22.90064 V 55.18912 H 0 Z"
     style="font-style:normal;font-variant:normal;font-weight:300;font-stretch:normal;font-size:71.12000275px;line-height:1.25;font-family:Ubuntu;-inkscape-font-specification:'Ubuntu Light';text-align:start;letter-spacing:0px;word-spacing:0px;text-anchor:start;fill:#800080;fill-opacity:1;stroke:none;stroke-width:0.18520834"
     id="path11745" />
  <path
     d="m 72.989133,51.84648 q 2.70256,0 4.69392,-0.14224 2.06248,-0.21336 3.48488,-0.49784 V 38.26256 q -0.78232,-0.3556 -2.4892,-0.7112 -1.70688,-0.42672 -4.69392,-0.42672 -1.70688,0 -3.556,0.28448 -1.84912,0.21336 -3.41376,1.0668 -1.56464,0.78232 -2.56032,2.20472 -0.99568,1.4224 -0.99568,3.76936 0,2.06248 0.64008,3.48488 0.7112,1.4224 1.92024,2.27584 1.28016,0.85344 2.98704,1.28016 1.778,0.3556 3.98272,0.3556 z m -0.42672,-34.27984 q 3.62712,0 6.11632,1.0668 2.56032,0.99568 4.12496,2.8448 1.56464,1.778 2.27584,4.2672 0.7112,2.4892 0.7112,5.40512 v 23.18512 q -0.7112,0.21336 -2.06248,0.49784 -1.35128,0.21336 -3.12928,0.49784 -1.778,0.28448 -3.98272,0.42672 -2.1336,0.21336 -4.40944,0.21336 -2.91592,0 -5.40512,-0.64008 -2.41808,-0.64008 -4.2672,-1.99136 -1.778,-1.4224 -2.8448,-3.556 -0.99568,-2.20472 -0.99568,-5.334 0,-2.98704 1.13792,-5.12064 1.13792,-2.1336 3.2004,-3.48488 2.06248,-1.4224 4.90728,-2.06248 2.8448,-0.64008 6.18744,-0.64008 0.99568,0 2.06248,0.14224 1.13792,0.0711 2.1336,0.28448 1.0668,0.14224 1.778,0.3556 0.78232,0.14224 1.0668,0.28448 v -2.27584 q 0,-1.92024 -0.28448,-3.69824 -0.28448,-1.84912 -1.28016,-3.27152 -0.92456,-1.49352 -2.70256,-2.34696 -1.70688,-0.92456 -4.55168,-0.92456 -4.05384,0 -6.0452,0.56896 -1.99136,0.56896 -2.91592,0.92456 l -0.64008,-4.05384 q 1.20904,-0.56896 3.69824,-1.0668 2.56032,-0.49784 6.11632,-0.49784 z"
     style="font-style:normal;font-variant:normal;font-weight:300;font-stretch:normal;font-size:71.12000275px;line-height:1.25;font-family:Ubuntu;-inkscape-font-specification:'Ubuntu Light';text-align:start;letter-spacing:0px;word-spacing:0px;text-anchor:start;fill:#800080;fill-opacity:1;stroke:none;stroke-width:0.18520834"
     id="path11747" />
  <path
     d="m 121.61857,50.92192 q -0.42672,0.3556 -1.28016,0.85344 -0.85344,0.42672 -2.1336,0.92456 -1.20904,0.49784 -2.8448,0.85344 -1.56464,0.28448 -3.556,0.28448 -3.2004,0 -6.18744,-0.99568 -2.98704,-0.99568 -5.26288,-3.12928 -2.20474,-2.1336 -3.55603,-5.47624 -1.351277,-3.41376 -1.351277,-8.24992 0,-3.9116 1.20904,-7.25424 1.209047,-3.34264 3.413787,-5.76072 2.27584,-2.4892 5.47624,-3.84048 3.27152,-1.4224 7.32536,-1.4224 5.12064,0 8.1788,0.7112 3.12928,0.64008 5.12064,1.28016 v 33.56864 q 0,8.24992 -4.2672,11.7348 -4.2672,3.556 -12.87272,3.556 -3.556,0 -6.47192,-0.56896 -2.8448,-0.49784 -4.9073,-1.20904 l 0.92457,-4.19608 q 1.70689,0.78232 4.62281,1.35128 2.98704,0.56896 5.97408,0.56896 6.54304,0 9.45896,-2.56032 2.98704,-2.4892 2.98704,-8.60552 z m -0.0711,-28.02128 q -1.20904,-0.3556 -3.12928,-0.64008 -1.92024,-0.3556 -5.47624,-0.3556 -2.98704,0 -5.334,1.0668 -2.27584,0.99568 -3.9116,2.91592 -1.63576,1.84912 -2.4892,4.48056 -0.85344,2.56032 -0.85344,5.6896 0,3.62712 0.99568,6.25856 0.99568,2.56032 2.56032,4.19608 1.63576,1.63576 3.69824,2.41808 2.06248,0.7112 4.19608,0.7112 3.12928,0 5.6896,-0.92456 2.63144,-0.92456 4.05384,-2.1336 z"
     style="font-style:normal;font-variant:normal;font-weight:300;font-stretch:normal;font-size:71.12000275px;line-height:1.25;font-family:Ubuntu;-inkscape-font-specification:'Ubuntu Light';text-align:start;letter-spacing:0px;word-spacing:0px;text-anchor:start;fill:#800080;fill-opacity:1;stroke:none;stroke-width:0.18520834"
     id="path11749" />
  <path
     d="m 142.97347,55.18912 h -4.6228 V 18.42008 h 4.6228 z m 1.0668,-47.86376 q 0,1.63576 -0.99568,2.63144 -0.99568,0.92456 -2.41808,0.92456 -1.4224,0 -2.41808,-0.92456 -0.99568,-0.99568 -0.99568,-2.63144 0,-1.63576 0.99568,-2.56032 0.99568,-0.99568 2.41808,-0.99568 1.4224,0 2.41808,0.99568 0.99568,0.92456 0.99568,2.56032 z"
     style="font-style:normal;font-variant:normal;font-weight:300;font-stretch:normal;font-size:71.12000275px;line-height:1.25;font-family:Ubuntu;-inkscape-font-specification:'Ubuntu Light';text-align:start;letter-spacing:0px;word-spacing:0px;text-anchor:start;fill:#800080;fill-opacity:1;stroke:none;stroke-width:0.18520834"
     id="path11751" />
  <path
     d="m 170.37799,55.97144 q -4.2672,0 -7.53872,-1.35128 -3.27152,-1.35128 -5.47624,-3.84048 -2.1336,-2.56032 -3.27152,-6.0452 -1.13792,-3.556 -1.13792,-7.8232 0,-4.33832 1.13792,-7.89432 1.20904,-3.556 3.41376,-6.11632 2.20472,-2.56032 5.334,-3.9116 3.12928,-1.4224 7.04088,-1.4224 2.98704,0 5.54736,0.49784 2.63144,0.49784 4.05384,1.28016 l -1.20904,3.98272 q -1.4224,-0.7112 -3.2004,-1.13792 -1.778,-0.42672 -4.76504,-0.42672 -6.11632,0 -9.31672,3.98272 -3.12928,3.9116 -3.12928,11.16584 0,3.27152 0.7112,6.0452 0.7112,2.70256 2.27584,4.69392 1.63576,1.92024 4.12496,3.05816 2.56032,1.0668 6.18744,1.0668 2.98704,0 4.9784,-0.64008 2.06248,-0.7112 2.98704,-1.20904 l 0.99568,3.98272 q -1.28016,0.7112 -4.05384,1.35128 -2.70256,0.7112 -5.6896,0.7112 z"
     style="font-style:normal;font-variant:normal;font-weight:300;font-stretch:normal;font-size:71.12000275px;line-height:1.25;font-family:Ubuntu;-inkscape-font-specification:'Ubuntu Light';text-align:start;letter-spacing:0px;word-spacing:0px;text-anchor:start;fill:#800080;fill-opacity:1;stroke:none;stroke-width:0.18520834"
     id="path11753" />
  <path
     d="m 208.66682,55.90032 q -4.6228,-0.0711 -7.53872,-0.99568 -2.8448,-0.92456 -4.55168,-2.56032 -1.63576,-1.70688 -2.27584,-4.05384 -0.56896,-2.41808 -0.56896,-5.40512 V 1.70688 L 204.3285,0 v 40.75176 q 0,1.4224 0.21336,2.56032 0.21336,1.13792 0.78232,1.92024 0.64008,0.78232 1.778,1.28016 1.13792,0.49784 3.05816,0.64008 z"
     style="font-style:normal;font-variant:normal;font-weight:bold;font-stretch:normal;font-size:71.12000275px;line-height:1.25;font-family:Ubuntu;-inkscape-font-specification:'Ubuntu Bold';text-align:start;letter-spacing:0px;word-spacing:0px;text-anchor:start;fill:#303030;fill-opacity:1;stroke:none;stroke-width:0.18520834"
     id="path11756" />
  <path
     d="m 251.22547,36.41344 q 0,4.40944 -1.28016,8.10768 -1.28016,3.62712 -3.69824,6.25856 -2.41808,2.56032 -5.83184,3.98272 -3.34264,1.4224 -7.53872,1.4224 -4.12496,0 -7.53872,-1.4224 -3.34264,-1.4224 -5.76072,-3.98272 -2.41808,-2.63144 -3.76936,-6.25856 -1.35128,-3.69824 -1.35128,-8.10768 0,-4.40944 1.35128,-8.03656 1.4224,-3.62712 3.84048,-6.18744 2.4892,-2.56032 5.83184,-3.98272 3.41376,-1.4224 7.39648,-1.4224 4.05384,0 7.39648,1.4224 3.41376,1.4224 5.83184,3.98272 2.41808,2.56032 3.76936,6.18744 1.35128,3.62712 1.35128,8.03656 z m -10.81024,0 q 0,-4.90728 -1.99136,-7.68096 -1.92024,-2.8448 -5.54736,-2.8448 -3.62712,0 -5.61848,2.8448 -1.99136,2.77368 -1.99136,7.68096 0,4.90728 1.99136,7.8232 1.99136,2.8448 5.61848,2.8448 3.62712,0 5.54736,-2.8448 1.99136,-2.91592 1.99136,-7.8232 z"
     style="font-style:normal;font-variant:normal;font-weight:bold;font-stretch:normal;font-size:71.12000275px;line-height:1.25;font-family:Ubuntu;-inkscape-font-specification:'Ubuntu Bold';text-align:start;letter-spacing:0px;word-spacing:0px;text-anchor:start;fill:#303030;fill-opacity:1;stroke:none;stroke-width:0.18520834"
     id="path11758" />
  <path
     d="m 257.65628,36.48456 q 0,-4.05384 1.28016,-7.60984 1.35128,-3.62712 3.84048,-6.25856 2.4892,-2.70256 6.0452,-4.2672 3.556,-1.56464 8.10768,-1.56464 2.98704,0 5.47624,0.56896 2.4892,0.49784 4.83616,1.49352 l -2.20472,8.46328 q -1.49352,-0.56896 -3.27152,-0.99568 -1.778,-0.42672 -3.98272,-0.42672 -4.69392,0 -7.04088,2.91592 -2.27584,2.91592 -2.27584,7.68096 0,5.04952 2.1336,7.8232 2.20472,2.77368 7.60984,2.77368 1.92024,0 4.12496,-0.3556 2.20472,-0.3556 4.05384,-1.13792 l 1.49352,8.67664 q -1.84912,0.78232 -4.6228,1.35128 -2.77368,0.56896 -6.11632,0.56896 -5.12064,0 -8.81888,-1.49352 -3.69824,-1.56464 -6.11632,-4.19608 -2.34696,-2.63144 -3.48488,-6.18744 -1.0668,-3.62712 -1.0668,-7.8232 z"
     style="font-style:normal;font-variant:normal;font-weight:bold;font-stretch:normal;font-size:71.12000275px;line-height:1.25;font-family:Ubuntu;-inkscape-font-specification:'Ubuntu Bold';text-align:start;letter-spacing:0px;word-spacing:0px;text-anchor:start;fill:#303030;fill-opacity:1;stroke:none;stroke-width:0.18520834"
     id="path11760" />
  <path
     d="m 305.59116,31.2928 q 1.56464,-1.70688 3.2004,-3.556 1.70688,-1.84912 3.27152,-3.62712 1.56464,-1.84912 2.91592,-3.48488 1.4224,-1.63576 2.41808,-2.8448 h 12.58824 q -3.76936,4.33832 -7.39648,8.32104 -3.556,3.9116 -7.8232,8.10768 2.1336,1.92024 4.40944,4.6228 2.27584,2.63144 4.40944,5.47624 2.1336,2.8448 3.9116,5.6896 1.778,2.8448 2.98704,5.19176 h -12.16152 q -1.13792,-1.84912 -2.63144,-4.05384 -1.4224,-2.27584 -3.05816,-4.48056 -1.63576,-2.27584 -3.48488,-4.33832 -1.778,-2.06248 -3.556,-3.48488 v 16.3576 H 294.99428 V 1.70688 L 305.59116,0 Z"
     style="font-style:normal;font-variant:normal;font-weight:bold;font-stretch:normal;font-size:71.12000275px;line-height:1.25;font-family:Ubuntu;-inkscape-font-specification:'Ubuntu Bold';text-align:start;letter-spacing:0px;word-spacing:0px;text-anchor:start;fill:#303030;fill-opacity:1;stroke:none;stroke-width:0.18520834"
     id="path11762" />
  <path
     d="m 346.84965,47.57928 q 2.91592,0 4.12496,-0.56896 1.20904,-0.56896 1.20904,-2.20472 0,-1.28016 -1.56464,-2.20472 -1.56464,-0.99568 -4.76504,-2.20472 -2.4892,-0.92456 -4.55168,-1.92024 -1.99137,-0.99568 -3.41376,-2.34696 -1.4224,-1.4224 -2.20472,-3.34264 -0.78232,-1.92024 -0.78232,-4.6228 0,-5.26288 3.91159,-8.32104 3.91161,-3.05816 10.73913,-3.05816 3.41376,0 6.54304,0.64008 3.12928,0.56896 4.9784,1.28016 l -1.84912,8.24992 q -1.84912,-0.64008 -4.05384,-1.13792 -2.1336,-0.49784 -4.83616,-0.49784 -4.9784,0 -4.9784,2.77368 0,0.64008 0.21336,1.13792 0.21336,0.49784 0.85344,0.99568 0.64008,0.42672 1.70688,0.99568 1.13792,0.49784 2.8448,1.13792 3.48488,1.28016 5.76072,2.56032 2.27584,1.20904 3.556,2.70256 1.35128,1.4224 1.84912,3.2004 0.56896,1.778 0.56896,4.12496 0,5.54736 -4.19608,8.39216 -4.12496,2.8448 -11.7348,2.8448 -4.9784,0 -8.32104,-0.85344 -3.27152,-0.85344 -4.55168,-1.4224 l 1.778,-8.60552 q 2.70256,1.0668 5.54736,1.70688 2.8448,0.56896 5.61848,0.56896 z"
     style="font-style:normal;font-variant:normal;font-weight:bold;font-stretch:normal;font-size:71.12000275px;line-height:1.25;font-family:Ubuntu;-inkscape-font-specification:'Ubuntu Bold';text-align:start;letter-spacing:0px;word-spacing:0px;text-anchor:start;fill:#303030;fill-opacity:1;stroke:none;stroke-width:0.18520834"
     id="path11764" />
  <path
     d="m 368.78129,36.48456 q 0,-4.05384 1.28016,-7.60984 1.35128,-3.62712 3.84048,-6.25856 2.4892,-2.70256 6.0452,-4.2672 3.556,-1.56464 8.10768,-1.56464 2.98704,0 5.47624,0.56896 2.4892,0.49784 4.83616,1.49352 l -2.20472,8.46328 q -1.49352,-0.56896 -3.27152,-0.99568 -1.778,-0.42672 -3.98272,-0.42672 -4.69392,0 -7.04088,2.91592 -2.27584,2.91592 -2.27584,7.68096 0,5.04952 2.1336,7.8232 2.20472,2.77368 7.60984,2.77368 1.92024,0 4.12496,-0.3556 2.20472,-0.3556 4.05384,-1.13792 l 1.49352,8.67664 q -1.84912,0.78232 -4.6228,1.35128 -2.77368,0.56896 -6.11632,0.56896 -5.12064,0 -8.81888,-1.49352 -3.69824,-1.56464 -6.11632,-4.19608 -2.34696,-2.63144 -3.48488,-6.18744 -1.0668,-3.62712 -1.0668,-7.8232 z"
     style="font-style:normal;font-variant:normal;font-weight:bold;font-stretch:normal;font-size:71.12000275px;line-height:1.25;font-family:Ubuntu;-inkscape-font-specification:'Ubuntu Bold';text-align:start;letter-spacing:0px;word-spacing:0px;text-anchor:start;fill:#303030;fill-opacity:1;stroke:none;stroke-width:0.18520834"
     id="path11766" />
  <path
     d="m 428.66432,27.16784 q -1.4224,-0.3556 -3.34264,-0.7112 -1.92024,-0.42672 -4.12496,-0.42672 -0.99568,0 -2.41808,0.21336 -1.35128,0.14224 -2.06248,0.3556 V 55.18912 H 406.11928 V 19.77136 q 2.8448,-0.99568 6.68528,-1.84912 3.9116,-0.92456 8.67664,-0.92456 0.85344,0 2.06248,0.14224 1.20904,0.0711 2.41808,0.28448 1.20904,0.14224 2.41808,0.42672 1.20904,0.21336 2.06248,0.56896 z"
     style="font-style:normal;font-variant:normal;font-weight:bold;font-stretch:normal;font-size:71.12000275px;line-height:1.25;font-family:Ubuntu;-inkscape-font-specification:'Ubuntu Bold';text-align:start;letter-spacing:0px;word-spacing:0px;text-anchor:start;fill:#303030;fill-opacity:1;stroke:none;stroke-width:0.18520834"
     id="path11768" />
  <path
     d="m 433.6505,36.76904 q 0,-4.9784 1.49352,-8.67664 1.56464,-3.76936 4.05384,-6.25856 2.4892,-2.4892 5.6896,-3.76936 3.27152,-1.28016 6.68528,-1.28016 7.96544,0 12.58824,4.90728 4.6228,4.83616 4.6228,14.29512 0,0.92456 -0.0711,2.06248 -0.0711,1.0668 -0.14224,1.92024 h -24.03856 q 0.3556,3.27152 3.05816,5.19176 2.70256,1.92024 7.25424,1.92024 2.91592,0 5.6896,-0.49784 2.8448,-0.56896 4.6228,-1.35128 l 1.4224,8.60552 q -0.85344,0.42672 -2.27584,0.85344 -1.4224,0.42672 -3.2004,0.7112 -1.70688,0.3556 -3.69824,0.56896 -1.99136,0.21336 -3.98272,0.21336 -5.04952,0 -8.81888,-1.49352 -3.69824,-1.49352 -6.18744,-4.05384 -2.41808,-2.63144 -3.62712,-6.18744 -1.13792,-3.556 -1.13792,-7.68096 z m 24.892,-4.05384 q -0.0711,-1.35128 -0.49784,-2.63144 -0.3556,-1.28016 -1.20904,-2.27584 -0.78232,-0.99568 -2.06248,-1.63576 -1.20904,-0.64008 -3.05816,-0.64008 -1.778,0 -3.05816,0.64008 -1.28016,0.56896 -2.1336,1.56464 -0.85344,0.99568 -1.35128,2.34696 -0.42672,1.28016 -0.64008,2.63144 z"
     style="font-style:normal;font-variant:normal;font-weight:bold;font-stretch:normal;font-size:71.12000275px;line-height:1.25;font-family:Ubuntu;-inkscape-font-specification:'Ubuntu Bold';text-align:start;letter-spacing:0px;word-spacing:0px;text-anchor:start;fill:#303030;fill-opacity:1;stroke:none;stroke-width:0.18520834"
     id="path11770" />
  <path
     d="m 475.18348,36.76904 q 0,-4.9784 1.49352,-8.67664 1.56464,-3.76936 4.05384,-6.25856 2.4892,-2.4892 5.6896,-3.76936 3.27152,-1.28016 6.68528,-1.28016 7.96544,0 12.58824,4.90728 4.6228,4.83616 4.6228,14.29512 0,0.92456 -0.0711,2.06248 -0.0711,1.0668 -0.14224,1.92024 h -24.03856 q 0.3556,3.27152 3.05816,5.19176 2.70256,1.92024 7.25424,1.92024 2.91592,0 5.6896,-0.49784 2.8448,-0.56896 4.6228,-1.35128 l 1.4224,8.60552 q -0.85344,0.42672 -2.27584,0.85344 -1.4224,0.42672 -3.2004,0.7112 -1.70688,0.3556 -3.69824,0.56896 -1.99136,0.21336 -3.98272,0.21336 -5.04952,0 -8.81888,-1.49352 -3.69824,-1.49352 -6.18744,-4.05384 Q 477.53046,48.006 476.32142,44.45 475.1835,40.894 475.1835,36.76904 Z m 24.892,-4.05384 q -0.0711,-1.35128 -0.49784,-2.63144 -0.3556,-1.28016 -1.20904,-2.27584 -0.78232,-0.99568 -2.06248,-1.63576 -1.20904,-0.64008 -3.05816,-0.64008 -1.778,0 -3.05816,0.64008 -1.28016,0.56896 -2.1336,1.56464 -0.85344,0.99568 -1.35128,2.34696 -0.42672,1.28016 -0.64008,2.63144 z"
     style="font-style:normal;font-variant:normal;font-weight:bold;font-stretch:normal;font-size:71.12000275px;line-height:1.25;font-family:Ubuntu;-inkscape-font-specification:'Ubuntu Bold';text-align:start;letter-spacing:0px;word-spacing:0px;text-anchor:start;fill:#303030;fill-opacity:1;stroke:none;stroke-width:0.18520834"
     id="path11772" />
  <path
     d="m 518.49444,19.06016 q 2.70256,-0.78232 6.96976,-1.4224 4.2672,-0.7112 8.96112,-0.7112 4.76504,0 7.89432,1.28016 3.2004,1.20904 5.04952,3.48488 1.84912,2.27584 2.63144,5.40512 0.78232,3.12928 0.78232,6.96976 V 55.18912 H 540.18604 V 35.34664 q 0,-5.12064 -1.35128,-7.25424 -1.35128,-2.1336 -5.04952,-2.1336 -1.13792,0 -2.41808,0.14224 -1.28016,0.0711 -2.27584,0.21336 v 28.87472 h -10.59688 z"
     style="font-style:normal;font-variant:normal;font-weight:bold;font-stretch:normal;font-size:71.12000275px;line-height:1.25;font-family:Ubuntu;-inkscape-font-specification:'Ubuntu Bold';text-align:start;letter-spacing:0px;word-spacing:0px;text-anchor:start;fill:#303030;fill-opacity:1;stroke:none;stroke-width:0.18520834"
     id="path11774" />
</svg>
