<?xml version="1.0" encoding="UTF-8" standalone="no"?>
<svg
   xmlns:dc="http://purl.org/dc/elements/1.1/"
   xmlns:cc="http://creativecommons.org/ns#"
   xmlns:rdf="http://www.w3.org/1999/02/22-rdf-syntax-ns#"
   xmlns:svg="http://www.w3.org/2000/svg"
   xmlns="http://www.w3.org/2000/svg"
   width="721.75775pt"
   height="291.16406pt"
   viewBox="0 0 178.23408 71.901348"
   version="1.1"
   id="svg8">
  <defs
     id="defs2" />
  <metadata
     id="metadata5">
    <rdf:RDF>
      <cc:Work
         rdf:about="">
        <dc:format>image/svg+xml</dc:format>
        <dc:type
           rdf:resource="http://purl.org/dc/dcmitype/StillImage" />
        <dc:title></dc:title>
      </cc:Work>
    </rdf:RDF>
  </metadata>
  <path
     d="m 22.86744,18.995431 0.03473,0.104179 q 0.06945,3.559473 -2.500313,5.955606 -2.569766,2.396133 -6.789043,2.396133 -4.2887308,0 -6.9974027,-3.038574 Q 3.9241026,21.3742 3.9241026,16.703478 V 12.20639 q 0,-4.67073 2.6913087,-7.7093 2.7086719,-3.05594 6.9974027,-3.05594 4.28873,0 6.82377,2.29196 2.535039,2.27459 2.465586,6.04242 l -0.03473,0.10418 h -3.28166 q 0,-2.65658 -1.562696,-4.20192 -1.562695,-1.54533 -4.410273,-1.54533 -2.864942,0 -4.5665433,2.30932 -1.7016016,2.30931 -1.7016016,5.72988 v 4.531818 q 0,3.455293 1.7016016,5.764609 1.7016013,2.309317 4.5665433,2.309317 2.847578,0 4.410273,-1.527969 1.562696,-1.545332 1.562696,-4.254004 z"
     style="font-style:normal;font-variant:normal;font-weight:normal;font-stretch:normal;font-size:35.56000137px;line-height:1.25;font-family:Roboto;-inkscape-font-specification:Roboto;text-align:center;letter-spacing:0px;word-spacing:0px;text-anchor:middle;fill:#ffffff;fill-opacity:1;stroke:none;stroke-width:0.18520834"
     id="path838" />
  <path
     d="M 30.559374,27.08672 H 27.138807 V 0 h 3.420567 z"
     style="font-style:normal;font-variant:normal;font-weight:normal;font-stretch:normal;font-size:35.56000137px;line-height:1.25;font-family:Roboto;-inkscape-font-specification:Roboto;text-align:center;letter-spacing:0px;word-spacing:0px;text-anchor:middle;fill:#ffffff;fill-opacity:1;stroke:none;stroke-width:0.18520834"
     id="path840" />
  <path
     d="m 35.021737,17.519552 q 0,-4.167188 2.257227,-6.858492 2.257227,-2.70868 6.129239,-2.70868 3.906738,0 6.163965,2.69131 2.27459,2.691311 2.27459,6.875862 v 0.381992 q 0,4.201914 -2.257227,6.87586 -2.257227,2.673945 -6.146602,2.673945 -3.889375,0 -6.163965,-2.673945 -2.257227,-2.691309 -2.257227,-6.87586 z m 3.420567,0.381992 q 0,2.986485 1.250156,4.931172 1.26752,1.944688 3.750469,1.944688 2.448223,0 3.715743,-1.944688 1.267519,-1.944687 1.267519,-4.931172 v -0.381992 q 0,-2.951758 -1.284883,-4.913809 -1.267519,-1.962053 -3.733105,-1.962053 -2.448223,0 -3.715743,1.962053 -1.250156,1.962051 -1.250156,4.913809 z"
     style="font-style:normal;font-variant:normal;font-weight:normal;font-stretch:normal;font-size:35.56000137px;line-height:1.25;font-family:Roboto;-inkscape-font-specification:Roboto;text-align:center;letter-spacing:0px;word-spacing:0px;text-anchor:middle;fill:#ffffff;fill-opacity:1;stroke:none;stroke-width:0.18520834"
     id="path842" />
  <path
     d="m 67.959882,24.308595 q -0.885527,1.510606 -2.27459,2.32668 -1.389062,0.816074 -3.212207,0.816074 -3.073301,0 -4.792265,-1.962051 -1.718965,-1.962051 -1.718965,-6.111875 V 8.29965 h 3.420566 v 11.1125 q 0,3.003847 0.885528,4.132461 0.885527,1.128613 2.760761,1.128613 1.823145,0 3.003848,-0.729258 1.198067,-0.746621 1.805781,-2.100957 V 8.29965 h 3.420567 v 18.78707 h -3.073301 z"
     style="font-style:normal;font-variant:normal;font-weight:normal;font-stretch:normal;font-size:35.56000137px;line-height:1.25;font-family:Roboto;-inkscape-font-specification:Roboto;text-align:center;letter-spacing:0px;word-spacing:0px;text-anchor:middle;fill:#ffffff;fill-opacity:1;stroke:none;stroke-width:0.18520834"
     id="path844" />
  <path
     d="m 75.460821,18.04045 q 0,-4.531816 1.927325,-7.30994 1.944687,-2.77813 5.434707,-2.77813 1.649512,0 2.917031,0.60772 1.284883,0.60771 2.187774,1.77105 V 0 h 3.420566 V 27.08672 H 88.552736 L 88.15338,24.777404 q -0.920254,1.319609 -2.257226,1.996777 -1.336973,0.677168 -3.108028,0.677168 -3.43793,0 -5.382617,-2.482949 -1.944688,-2.500313 -1.944688,-6.563321 z m 3.420567,0.364629 q 0,2.847578 1.16334,4.566543 1.16334,1.701602 3.611562,1.701602 1.527969,0 2.569766,-0.694531 1.041797,-0.694532 1.701602,-1.944688 v -8.768457 q -0.659805,-1.163338 -1.718965,-1.840508 -1.041797,-0.69453 -2.517676,-0.69453 -2.465586,0 -3.646289,2.031503 -1.16334,2.031504 -1.16334,5.278437 z"
     style="font-style:normal;font-variant:normal;font-weight:normal;font-stretch:normal;font-size:35.56000137px;line-height:1.25;font-family:Roboto;-inkscape-font-specification:Roboto;text-align:center;letter-spacing:0px;word-spacing:0px;text-anchor:middle;fill:#ffffff;fill-opacity:1;stroke:none;stroke-width:0.18520834"
     id="path846" />
  <path
     d="m 112.4967,18.405079 q 0,4.063008 -1.96205,6.563321 -1.94469,2.482949 -5.36525,2.482949 -1.85787,0 -3.22957,-0.711894 -1.3717,-0.729258 -2.27459,-2.135684 L 99.248519,27.08672 H 96.45303 V 0 h 3.42057 v 10.52215 q 0.88552,-1.25016 2.18777,-1.90996 1.31961,-0.65981 3.0733,-0.65981 3.47266,0 5.41735,2.77813 1.94468,2.778124 1.94468,7.30994 z m -3.42056,-0.364629 q 0,-3.22957 -1.19807,-5.261074 -1.1807,-2.048866 -3.61156,-2.048866 -1.58006,0 -2.67395,0.78135 -1.07652,0.76398 -1.71896,2.066227 v 8.143379 q 0.6598,1.389063 1.71896,2.17041 1.07653,0.781348 2.70867,0.781348 2.4135,0 3.5942,-1.718965 1.18071,-1.718965 1.18071,-4.54918 z"
     style="font-style:normal;font-variant:normal;font-weight:normal;font-stretch:normal;font-size:35.56000137px;line-height:1.25;font-family:Roboto;-inkscape-font-specification:Roboto;text-align:center;letter-spacing:0px;word-spacing:0px;text-anchor:middle;fill:#ffffff;fill-opacity:1;stroke:none;stroke-width:0.18520834"
     id="path848" />
  <path
     d="m 124.46,27.451349 q -3.9241,0 -6.25078,-2.604492 -2.30932,-2.621856 -2.30932,-6.789043 v -0.763985 q 0,-4.010918 2.37877,-6.667499 2.39613,-2.67395 5.66043,-2.67395 3.80256,0 5.74725,2.29196 1.94468,2.29195 1.94468,6.111872 v 2.135684 h -12.18902 l -0.0521,0.08682 q 0.0521,2.708672 1.3717,4.462363 1.31961,1.736329 3.69838,1.736329 1.73633,0 3.03857,-0.486172 1.31961,-0.503535 2.27459,-1.3717 l 1.33697,2.222501 q -1.00707,0.989707 -2.65658,1.649511 -1.64951,0.659805 -3.99355,0.659805 z M 123.9391,10.64369 q -1.71897,0 -2.9344,1.45852 -1.21543,1.44115 -1.49324,3.628924 l 0.0347,0.08682 h 8.66428 v -0.451445 q 0,-2.014141 -1.07653,-3.368479 -1.07652,-1.35434 -3.19484,-1.35434 z"
     style="font-style:normal;font-variant:normal;font-weight:normal;font-stretch:normal;font-size:35.56000137px;line-height:1.25;font-family:Roboto;-inkscape-font-specification:Roboto;text-align:center;letter-spacing:0px;word-spacing:0px;text-anchor:middle;fill:#ffffff;fill-opacity:1;stroke:none;stroke-width:0.18520834"
     id="path850" />
  <path
     d="m 144.37568,11.32086 -1.75369,-0.10418 q -1.35433,0 -2.29195,0.64244 -0.92025,0.642443 -1.42379,1.805783 V 27.08672 h -3.42057 V 8.29965 h 3.05594 l 0.3299,2.7434 q 0.79871,-1.45852 1.96205,-2.27459 1.18071,-0.81608 2.70868,-0.81608 0.38199,0 0.72925,0.0695 0.34727,0.0521 0.57299,0.12154 z"
     style="font-style:normal;font-variant:normal;font-weight:normal;font-stretch:normal;font-size:35.56000137px;line-height:1.25;font-family:Roboto;-inkscape-font-specification:Roboto;text-align:center;letter-spacing:0px;word-spacing:0px;text-anchor:middle;fill:#ffffff;fill-opacity:1;stroke:none;stroke-width:0.18520834"
     id="path852" />
  <path
     d="m 156.59944,11.32086 -1.75369,-0.10418 q -1.35434,0 -2.29196,0.64244 -0.92025,0.642443 -1.42378,1.805783 V 27.08672 h -3.42057 V 8.29965 h 3.05594 l 0.3299,2.7434 q 0.79871,-1.45852 1.96205,-2.27459 1.1807,-0.81608 2.70867,-0.81608 0.38199,0 0.72926,0.0695 0.34727,0.0521 0.57299,0.12154 z"
     style="font-style:normal;font-variant:normal;font-weight:normal;font-stretch:normal;font-size:35.56000137px;line-height:1.25;font-family:Roboto;-inkscape-font-specification:Roboto;text-align:center;letter-spacing:0px;word-spacing:0px;text-anchor:middle;fill:#ffffff;fill-opacity:1;stroke:none;stroke-width:0.18520834"
     id="path854" />
  <path
     d="m 166.0277,20.124044 0.60771,2.361406 h 0.10418 l 4.61864,-14.1858 h 3.80256 l -7.9003,21.669375 q -0.71189,1.892598 -2.04886,3.299024 -1.31961,1.406425 -3.57684,1.406425 -0.41672,0 -1.05916,-0.104179 -0.64244,-0.08682 -0.98971,-0.173633 l 0.34727,-2.691309 q -0.10418,-0.01736 0.60771,0.03473 0.72926,0.05209 0.92026,0.05209 1.09388,0 1.78841,-0.972344 0.69454,-0.972344 1.16334,-2.153047 l 0.81608,-1.962051 -6.98004,-18.405081 h 3.81992 z"
     style="font-style:normal;font-variant:normal;font-weight:normal;font-stretch:normal;font-size:35.56000137px;line-height:1.25;font-family:Roboto;-inkscape-font-specification:Roboto;text-align:center;letter-spacing:0px;word-spacing:0px;text-anchor:middle;fill:#ffffff;fill-opacity:1;stroke:none;stroke-width:0.18520834"
     id="path856" />
  <path
     d="M 3.4205644,68.862776 H 15.383866 v 2.673946 H -2.13e-6 V 46.255783 H 3.4205644 Z"
     style="font-style:normal;font-variant:normal;font-weight:normal;font-stretch:normal;font-size:35.56000137px;line-height:1.25;font-family:Roboto;-inkscape-font-specification:Roboto;text-align:center;letter-spacing:0px;word-spacing:0px;text-anchor:middle;fill:#ffffff;fill-opacity:1;stroke:none;stroke-width:0.18520834"
     id="path858" />
  <path
     d="m 17.797361,61.969554 q 0,-4.167188 2.257227,-6.858497 2.257226,-2.708672 6.129238,-2.708672 3.906739,0 6.163965,2.691309 2.27459,2.691309 2.27459,6.87586 v 0.381992 q 0,4.201914 -2.257226,6.875859 -2.257227,2.673946 -6.146602,2.673946 -3.889375,0 -6.163965,-2.673946 -2.257227,-2.691308 -2.257227,-6.875859 z m 3.420567,0.381992 q 0,2.986484 1.250156,4.931172 1.26752,1.944687 3.750469,1.944687 2.448223,0 3.715742,-1.944687 1.26752,-1.944688 1.26752,-4.931172 v -0.381992 q 0,-2.951758 -1.284883,-4.913809 -1.26752,-1.962051 -3.733106,-1.962051 -2.448222,0 -3.715742,1.962051 -1.250156,1.962051 -1.250156,4.913809 z"
     style="font-style:normal;font-variant:normal;font-weight:normal;font-stretch:normal;font-size:35.56000137px;line-height:1.25;font-family:Roboto;-inkscape-font-specification:Roboto;text-align:center;letter-spacing:0px;word-spacing:0px;text-anchor:middle;fill:#ffffff;fill-opacity:1;stroke:none;stroke-width:0.18520834"
     id="path860" />
  <path
     d="m 46.446776,69.227405 q 1.701601,0 2.986484,-1.041797 1.302246,-1.05916 1.302246,-2.587129 h 3.073301 l 0.03473,0.10418 q 0.08682,2.43086 -2.170411,4.323457 -2.239863,1.875235 -5.226347,1.875235 -4.097735,0 -6.268145,-2.673946 -2.170411,-2.673945 -2.170411,-6.71959 v -0.729258 q 0,-4.010918 2.170411,-6.684863 2.187773,-2.691309 6.268145,-2.691309 3.299023,0 5.382617,1.944688 2.100957,1.944687 2.031504,4.774902 l -0.03473,0.10418 h -3.090664 q 0,-1.718965 -1.21543,-2.917031 -1.215429,-1.21543 -3.0733,-1.21543 -2.691309,0 -3.854649,1.944687 -1.145977,1.927325 -1.145977,4.740176 v 0.729258 q 0,2.882305 1.145977,4.809629 1.145977,1.909961 3.854649,1.909961 z"
     style="font-style:normal;font-variant:normal;font-weight:normal;font-stretch:normal;font-size:35.56000137px;line-height:1.25;font-family:Roboto;-inkscape-font-specification:Roboto;text-align:center;letter-spacing:0px;word-spacing:0px;text-anchor:middle;fill:#ffffff;fill-opacity:1;stroke:none;stroke-width:0.18520834"
     id="path862" />
  <path
     d="m 63.358612,62.872444 h -2.2225 v 8.664278 h -3.420567 v -27.08672 h 3.420567 v 15.696407 h 2.187773 l 5.139532,-7.396758 h 4.097734 l -6.424414,8.542735 7.344668,10.244336 h -4.028281 z"
     style="font-style:normal;font-variant:normal;font-weight:normal;font-stretch:normal;font-size:35.56000137px;line-height:1.25;font-family:Roboto;-inkscape-font-specification:Roboto;text-align:center;letter-spacing:0px;word-spacing:0px;text-anchor:middle;fill:#ffffff;fill-opacity:1;stroke:none;stroke-width:0.18520834"
     id="path864" />
  <path
     d="m 86.885857,66.55346 q 0,-1.128613 -0.868164,-1.857871 -0.850801,-0.729258 -3.246934,-1.26752 -3.420566,-0.746621 -5.156895,-2.01414 -1.718965,-1.284883 -1.718965,-3.49002 0,-2.291953 1.944688,-3.906739 1.944688,-1.614785 5.070078,-1.614785 3.281661,0 5.208985,1.684239 1.944687,1.684238 1.857871,4.097734 l -0.03473,0.10418 h -3.264297 q 0,-1.232793 -1.041797,-2.205137 -1.024434,-0.989707 -2.726036,-0.989707 -1.823144,0 -2.708672,0.798711 -0.885527,0.798711 -0.885527,1.927324 0,1.11125 0.781348,1.753692 0.781347,0.642441 3.17748,1.145976 3.559473,0.763985 5.295801,2.083594 1.736328,1.302246 1.736328,3.507383 0,2.500313 -2.031504,4.045645 -2.01414,1.545332 -5.278437,1.545332 -3.5942,0 -5.66043,-1.823145 -2.066231,-1.823144 -1.962051,-4.254004 l 0.03473,-0.10418 h 3.264297 q 0.08682,1.823145 1.354336,2.673946 1.267519,0.833437 2.969121,0.833437 1.823144,0 2.847578,-0.729257 1.041797,-0.746622 1.041798,-1.944688 z"
     style="font-style:normal;font-variant:normal;font-weight:normal;font-stretch:normal;font-size:35.56000137px;line-height:1.25;font-family:Roboto;-inkscape-font-specification:Roboto;text-align:center;letter-spacing:0px;word-spacing:0px;text-anchor:middle;fill:#ffffff;fill-opacity:1;stroke:none;stroke-width:0.18520834"
     id="path866" />
  <path
     d="m 102.21764,69.227405 q 1.7016,0 2.98648,-1.041797 1.30225,-1.05916 1.30225,-2.587129 h 3.0733 l 0.0347,0.10418 q 0.0868,2.43086 -2.17041,4.323457 -2.23987,1.875235 -5.22635,1.875235 -4.097736,0 -6.268147,-2.673946 -2.17041,-2.673945 -2.17041,-6.71959 v -0.729258 q 0,-4.010918 2.17041,-6.684863 2.187774,-2.691309 6.268147,-2.691309 3.29902,0 5.38262,1.944688 2.10095,1.944687 2.0315,4.774902 l -0.0347,0.10418 h -3.09066 q 0,-1.718965 -1.21543,-2.917031 -1.21543,-1.21543 -3.0733,-1.21543 -2.691311,0 -3.85465,1.944687 -1.145977,1.927325 -1.145977,4.740176 v 0.729258 q 0,2.882305 1.145977,4.809629 1.145976,1.909961 3.85465,1.909961 z"
     style="font-style:normal;font-variant:normal;font-weight:normal;font-stretch:normal;font-size:35.56000137px;line-height:1.25;font-family:Roboto;-inkscape-font-specification:Roboto;text-align:center;letter-spacing:0px;word-spacing:0px;text-anchor:middle;fill:#ffffff;fill-opacity:1;stroke:none;stroke-width:0.18520834"
     id="path868" />
  <path
     d="m 122.35904,55.770862 -1.75369,-0.10418 q -1.35433,0 -2.29195,0.642442 -0.92025,0.642441 -1.42379,1.805781 v 13.421817 h -3.42057 V 52.749651 h 3.05594 l 0.3299,2.743398 q 0.79872,-1.458515 1.96206,-2.27459 1.1807,-0.816074 2.70867,-0.816074 0.38199,0 0.72926,0.06945 0.34726,0.05209 0.57298,0.121543 z"
     style="font-style:normal;font-variant:normal;font-weight:normal;font-stretch:normal;font-size:35.56000137px;line-height:1.25;font-family:Roboto;-inkscape-font-specification:Roboto;text-align:center;letter-spacing:0px;word-spacing:0px;text-anchor:middle;fill:#ffffff;fill-opacity:1;stroke:none;stroke-width:0.18520834"
     id="path870" />
  <path
     d="m 133.14164,71.901351 q -3.9241,0 -6.25078,-2.604492 -2.30932,-2.621856 -2.30932,-6.789044 v -0.763984 q 0,-4.010918 2.37877,-6.6675 2.39613,-2.673946 5.66043,-2.673946 3.80256,0 5.74725,2.291953 1.94468,2.291954 1.94468,6.111876 v 2.135683 h -12.18902 l -0.0521,0.08682 q 0.0521,2.708672 1.3717,4.462363 1.31961,1.736328 3.69838,1.736328 1.73633,0 3.03857,-0.486172 1.31961,-0.503535 2.27459,-1.371699 l 1.33698,2.2225 q -1.00708,0.989707 -2.65659,1.649512 -1.64951,0.659805 -3.99355,0.659805 z m -0.5209,-16.807657 q -1.71897,0 -2.93439,1.458516 -1.21543,1.441152 -1.49325,3.628925 l 0.0347,0.08682 h 8.66428 V 59.81651 q 0,-2.014141 -1.07653,-3.368477 -1.07652,-1.354336 -3.19484,-1.354336 z"
     style="font-style:normal;font-variant:normal;font-weight:normal;font-stretch:normal;font-size:35.56000137px;line-height:1.25;font-family:Roboto;-inkscape-font-specification:Roboto;text-align:center;letter-spacing:0px;word-spacing:0px;text-anchor:middle;fill:#ffffff;fill-opacity:1;stroke:none;stroke-width:0.18520834"
     id="path872" />
  <path
     d="m 151.96344,71.901351 q -3.9241,0 -6.25078,-2.604492 -2.30932,-2.621856 -2.30932,-6.789044 v -0.763984 q 0,-4.010918 2.37877,-6.6675 2.39613,-2.673946 5.66043,-2.673946 3.80256,0 5.74725,2.291953 1.94468,2.291954 1.94468,6.111876 v 2.135683 h -12.18902 l -0.0521,0.08682 q 0.0521,2.708672 1.3717,4.462363 1.31961,1.736328 3.69838,1.736328 1.73633,0 3.03857,-0.486172 1.31961,-0.503535 2.27459,-1.371699 l 1.33698,2.2225 q -1.00707,0.989707 -2.65659,1.649512 -1.64951,0.659805 -3.99355,0.659805 z m -0.5209,-16.807657 q -1.71896,0 -2.93439,1.458516 -1.21543,1.441152 -1.49325,3.628925 l 0.0347,0.08682 h 8.66428 V 59.81651 q 0,-2.014141 -1.07653,-3.368477 -1.07652,-1.354336 -3.19484,-1.354336 z"
     style="font-style:normal;font-variant:normal;font-weight:normal;font-stretch:normal;font-size:35.56000137px;line-height:1.25;font-family:Roboto;-inkscape-font-specification:Roboto;text-align:center;letter-spacing:0px;word-spacing:0px;text-anchor:middle;fill:#ffffff;fill-opacity:1;stroke:none;stroke-width:0.18520834"
     id="path874" />
  <path
     d="m 166.04506,52.749651 0.24308,2.795488 q 0.93762,-1.493242 2.34404,-2.309316 1.42379,-0.833438 3.22957,-0.833438 3.03858,0 4.70545,1.788418 1.66688,1.771055 1.66688,5.486797 v 11.859122 h -3.42057 V 59.747053 q 0,-2.482949 -0.9897,-3.524746 -0.97235,-1.041797 -2.98649,-1.041797 -1.47588,0 -2.62185,0.711895 -1.12862,0.711894 -1.80579,1.944687 v 13.69963 h -3.42056 V 52.749651 Z"
     style="font-style:normal;font-variant:normal;font-weight:normal;font-stretch:normal;font-size:35.56000137px;line-height:1.25;font-family:Roboto;-inkscape-font-specification:Roboto;text-align:center;letter-spacing:0px;word-spacing:0px;text-anchor:middle;fill:#ffffff;fill-opacity:1;stroke:none;stroke-width:0.18520834"
     id="path876" />
</svg>
