<?xml version="1.0" encoding="UTF-8" standalone="no"?>
<svg
   xmlns:dc="http://purl.org/dc/elements/1.1/"
   xmlns:cc="http://creativecommons.org/ns#"
   xmlns:rdf="http://www.w3.org/1999/02/22-rdf-syntax-ns#"
   xmlns:svg="http://www.w3.org/2000/svg"
   xmlns="http://www.w3.org/2000/svg"
   width="512pt"
   height="512pt"
   viewBox="0 0 126.43557 126.43556"
   version="1.1"
   id="svg8">
  <defs
     id="defs2" />
  <metadata
     id="metadata5">
    <rdf:RDF>
      <cc:Work
         rdf:about="">
        <dc:format>image/svg+xml</dc:format>
        <dc:type
           rdf:resource="http://purl.org/dc/dcmitype/StillImage" />
        <dc:title></dc:title>
      </cc:Work>
    </rdf:RDF>
  </metadata>
  <path
     id="path904"
     d="m 80.96382,119.97623 c -2.29213,-0.65757 -3.7164,-1.69456 -4.85273,-3.53318 -0.81299,-1.31543 -1.42236,-1.68123 -3.47627,-2.08674 -4.66741,-0.92148 -9.18094,-1.10312 -13.73112,-0.55256 -4.4226,0.53511 -4.58887,0.60035 -6.21823,2.43976 -1.78565,2.01582 -4.37962,3.32852 -6.57731,3.32852 -0.74054,0 -4.13758,-0.9678 -7.54898,-2.15068 -5.15996,-1.78919 -6.79335,-2.15098 -9.71766,-2.15246 -6.79694,-0.003 -9.70258,-3.18512 -7.85964,-8.60634 0.54129,-1.59232 0.65661,-3.1613 0.44,-5.98749 -0.36781,-4.798976 0.3907,-6.308425 4.10143,-8.161906 1.39064,-0.694616 3.20158,-1.902649 4.02428,-2.684515 1.36019,-1.292647 1.45885,-1.5809 1.08765,-3.178357 -0.61322,-2.639035 -0.49739,-8.061984 0.24715,-11.574134 1.48481,-7.003604 4.40336,-12.592229 12.23392,-23.426207 3.80649,-5.266462 4.01542,-6.301756 4.05406,-20.089632 0.0374,-13.404911 0.18104,-14.244925 3.18376,-18.654659 3.13139,-4.5985019 7.60363,-6.7952919 13.85253,-6.8044269 7.75982,-0.01136 12.63839,3.482408 15.40061,11.0290589 0.8463,2.312177 1.03248,4.224222 1.26539,12.995053 0.26425,9.951947 0.31497,10.368918 1.57148,12.914764 0.71414,1.446934 2.72384,4.245131 4.46603,6.218221 5.57554,6.314507 9.07836,12.29617 11.48421,19.611309 1.19689,3.639217 1.35152,4.855094 1.47375,11.589627 0.10021,5.515996 0.3196,7.813682 0.82236,8.609842 0.37717,0.597285 1.03259,2.309323 1.4565,3.804532 0.42392,1.495206 1.31991,3.371202 1.99111,4.168876 1.66053,1.973424 2.21824,4.124054 1.63307,6.297254 -0.7205,2.67568 -2.17752,4.17131 -5.55596,5.70316 -2.20045,0.99773 -4.2656,2.53897 -7.25329,5.41316 -5.59111,5.37871 -8.24117,6.59796 -11.99815,5.52015 z m 4.55228,-3.29901 c 0.72791,-0.27675 3.16343,-2.27261 5.41228,-4.43525 2.73968,-2.63466 5.1601,-4.46274 7.33558,-5.5404 5.11859,-2.53559 5.79942,-4.40353 3.02656,-8.30363 -0.8905,-1.252465 -1.87525,-3.296614 -2.1884,-4.542554 -1.00239,-3.988423 -2.97937,-4.962134 -5.88057,-2.896317 -1.94066,1.381881 -6.11368,1.760789 -7.72978,0.701869 -0.6414,-0.420261 -1.44057,-1.522933 -1.77595,-2.450379 -1.24715,-3.448913 -2.06946,-1.608371 -2.49459,5.58354 -0.22107,3.740565 -0.6902,6.327671 -1.74353,9.615971 -0.79256,2.47423 -1.44103,5.40183 -1.44103,6.50577 0,4.626 3.45856,7.29012 7.47943,5.76138 z m -35.97379,-2.06449 c 1.43566,-1.35402 1.70818,-1.93388 1.70818,-3.63473 0,-2.53603 -0.84592,-4.3337 -3.60946,-7.67056 -1.19762,-1.44608 -3.17294,-4.542916 -4.38962,-6.881875 -2.54358,-4.889861 -5.18109,-7.94463 -6.85947,-7.94463 -0.7167,0 -2.02251,0.871003 -3.54192,2.362546 -1.32365,1.299399 -3.69812,3.085409 -5.2766,3.968914 l -2.86994,1.606372 -0.0207,4.521343 c -0.0129,2.59734 -0.26612,4.96595 -0.59791,5.56614 -0.87344,1.57999 -0.69966,3.71888 0.38169,4.69749 0.71391,0.64607 2.16055,0.96119 5.65531,1.23189 3.66044,0.28354 5.63765,0.73439 8.96596,2.04442 5.76322,2.26842 8.15732,2.29881 10.4541,0.13267 z m 21.62227,-6.25356 c 2.1396,-0.67641 4.10811,-1.49748 4.37443,-1.82461 1.13457,-1.3936 2.48426,-7.338531 2.76889,-12.196055 0.40268,-6.872907 0.86735,-8.561328 2.65533,-9.648659 0.79362,-0.482634 1.8051,-1.598092 2.24771,-2.478798 1.11464,-2.217805 3.15853,-2.758393 6.13352,-1.622237 2.44376,0.933282 5.70234,3.608399 6.16288,5.059387 0.16038,0.50569 0.60017,0.91944 0.97706,0.91944 1.94208,0 -0.59582,-5.453828 -3.32191,-7.13865 -1.7863,-1.104002 -2.19123,-2.073958 -2.21161,-5.29779 -0.0181,-3.001969 -1.19974,-7.700202 -2.65897,-10.579865 -0.67727,-1.336511 -1.32427,-2.337138 -1.43781,-2.223606 -0.11363,0.113533 0.12681,2.434532 0.53394,5.157796 0.44989,3.008849 0.61451,5.958391 0.41965,7.518173 l -0.32071,2.566791 -1.12391,-3.337543 C 85.74492,71.397295 83.27696,65.748087 80.87873,60.679136 78.48047,55.610193 75.95918,49.729185 75.27581,47.61023 c -0.68333,-2.118955 -1.3127,-3.944737 -1.39859,-4.057296 -0.20016,-0.262349 -3.36148,1.458597 -7.29808,3.972945 -2.66847,1.704399 -3.44786,1.971603 -5.75071,1.971603 -2.39379,0 -2.97809,-0.222029 -5.76219,-2.189492 -1.70404,-1.204221 -3.33758,-2.328581 -3.63006,-2.498581 -0.36235,-0.210587 -0.70891,1.249296 -1.08752,4.581113 -0.58262,5.126844 -1.18863,6.728206 -5.26999,13.925843 -2.23886,3.94834 -3.63244,8.191371 -4.49458,13.68478 l -0.63809,4.06576 -0.65526,-2.630786 c -0.85632,-3.438 -0.77456,-10.020346 0.16942,-13.632249 0.7478,-2.861606 0.74731,-2.866472 -0.17278,-1.674139 -0.50754,0.657698 -1.52119,2.810157 -2.25252,4.783248 -1.05265,2.839961 -1.32677,4.38474 -1.31559,7.414031 0.0207,5.446012 1.3869,7.826543 6.61902,11.528441 9.13502,6.46329 10.82572,8.153895 10.82572,10.825189 0,1.412998 -1.67662,3.71506 -2.70572,3.71506 -0.52298,0 -0.33306,0.49614 0.68667,1.79372 0.7753,0.98654 1.76047,2.47961 2.18927,3.31794 0.92641,1.81123 1.19759,1.99991 4.07386,2.83458 3.17788,0.92218 9.06021,0.50195 13.75669,-0.98277 z m -4.8273,-63.844113 c 2.09387,-1.293402 4.45276,-2.74922 5.24202,-3.235155 0.89844,-0.553186 1.48984,-1.355103 1.58173,-2.144851 0.1299,-1.117672 -0.16968,-1.40782 -2.6308,-2.547447 -1.52765,-0.707364 -4.00638,-1.912633 -5.50831,-2.67838 -3.55313,-1.81154 -4.99016,-1.764815 -7.99915,0.260086 -1.35049,0.908794 -3.29934,2.126679 -4.33084,2.706413 -3.45352,1.940988 -2.97553,3.221577 2.72116,7.290134 4.8539,3.46663 5.82709,3.497738 10.92419,0.3492 z m -7.91191,-0.819342 c -1.86502,-0.711695 -5.25984,-3.372649 -5.26067,-4.123468 -0.001,-1.146117 0.28727,-1.06805 2.4846,0.672263 3.04451,2.411291 5.49294,2.407574 10.31249,-0.01575 2.51187,-1.262934 4.00791,-1.776214 4.21245,-1.445247 0.42905,0.694219 0.0354,1.001133 -3.90543,3.04499 -3.2836,1.702989 -6.35657,2.434506 -7.84344,1.867115 z m -6.35188,-9.651061 c 0.4382,-0.278423 0.45839,-0.783686 0.0808,-2.025557 -1.10276,-3.627789 1.73152,-6.085538 2.99345,-2.59576 0.38974,1.077887 0.87721,1.638953 1.34635,1.549669 1.93477,-0.368227 0.43657,-6.099142 -1.912,-7.313621 -1.66334,-0.86016 -3.47253,-0.319996 -4.33675,1.294833 -0.79455,1.484653 -0.79698,6.016796 -0.005,7.921484 0.68122,1.636687 0.88825,1.76877 1.8323,1.168952 z m 19.75678,-1.797996 c 0.25672,-0.674823 0.4657,-2.450603 0.46472,-3.946178 -0.005,-6.270189 -4.81973,-8.874124 -8.55139,-4.623988 -1.7782,2.02525 -2.84234,5.426256 -1.88729,6.031743 1.27587,0.808877 2.14209,0.377976 2.9581,-1.471487 1.70717,-3.869412 4.80996,-2.589458 4.90074,2.021639 0.0635,3.221991 0.0615,3.215222 0.91932,3.215222 0.40113,0 0.93925,-0.552128 1.1958,-1.226951 z"
     style="fill:#ac00ff;fill-opacity:1;stroke-width:0.47832459" />
</svg>
